<svg xmlns="http://www.w3.org/2000/svg" xmlns:xlink="http://www.w3.org/1999/xlink" width="1000" zoomAndPan="magnify" viewBox="0 0 750 225" height="300" preserveAspectRatio="xMidYMid meet" version="1.0"><defs><g/><clipPath id="id1"><path d="M 0 70 L 750 70 L 750 225 L 0 225 Z M 0 70 " clip-rule="nonzero"/></clipPath><clipPath id="id2"><path d="M -10.050781 9.109375 L 747.816406 -14.996094 L 759.878906 364.3125 L 2.015625 388.417969 Z M -10.050781 9.109375 " clip-rule="nonzero"/></clipPath><clipPath id="id3"><path d="M 747.992188 -15 L -9.875 9.105469 L 2.191406 388.410156 L 760.054688 364.308594 Z M 747.992188 -15 " clip-rule="nonzero"/></clipPath><clipPath id="id4"><path d="M 644 36 L 688.257812 36 L 688.257812 147 L 644 147 Z M 644 36 " clip-rule="nonzero"/></clipPath><clipPath id="id5"><path d="M 600 11.203125 L 688.257812 11.203125 L 688.257812 62 L 600 62 Z M 600 11.203125 " clip-rule="nonzero"/></clipPath><clipPath id="id6"><path d="M 600 36 L 688.257812 36 L 688.257812 62 L 600 62 Z M 600 36 " clip-rule="nonzero"/></clipPath><clipPath id="id7"><path d="M 512.757812 87 L 557 87 L 557 197 L 512.757812 197 Z M 512.757812 87 " clip-rule="nonzero"/></clipPath><clipPath id="id8"><path d="M 512.757812 61 L 601 61 L 601 113 L 512.757812 113 Z M 512.757812 61 " clip-rule="nonzero"/></clipPath><clipPath id="id9"><path d="M 512.757812 87 L 601 87 L 601 113 L 512.757812 113 Z M 512.757812 87 " clip-rule="nonzero"/></clipPath><clipPath id="id10"><path d="M 598 174 L 636 174 L 636 213.703125 L 598 213.703125 Z M 598 174 " clip-rule="nonzero"/></clipPath><clipPath id="id11"><path d="M 597 194 L 599 194 L 599 213.703125 L 597 213.703125 Z M 597 194 " clip-rule="nonzero"/></clipPath></defs><rect x="-75" width="900" fill="#ffffff" y="-22.5" height="270" fill-opacity="1"/><rect x="-75" width="900" fill="#ffffff" y="-22.5" height="270" fill-opacity="1"/><rect x="-75" width="900" fill="#ffffff" y="-22.5" height="270" fill-opacity="1"/><g clip-path="url(#id1)"><g clip-path="url(#id2)"><g clip-path="url(#id3)"><path fill="#f3a93a" d="M 752.539062 127.953125 C 752.539062 127.953125 609.359375 -5.847656 373.394531 133.363281 C 137.429688 272.578125 -4.914062 165.09375 -4.914062 165.09375 L 2 382.488281 L 759.867188 358.382812 Z M 752.539062 127.953125 " fill-opacity="1" fill-rule="nonzero"/></g></g></g><g fill="#f3a93a" fill-opacity="1"><g transform="translate(41.691173, 90.417853)"><g><path d="M 2.957031 0 L 10.957031 0 L 10.957031 -14.273438 L 21.589844 0 L 28.148438 0 L 28.148438 -27.988281 L 20.191406 -27.988281 L 20.191406 -13.792969 L 9.554688 -27.988281 L 2.957031 -27.988281 Z M 2.957031 0 "/></g></g></g><g fill="#f3a93a" fill-opacity="1"><g transform="translate(72.829825, 90.417853)"><g><path d="M 16.59375 0.601562 C 25.507812 0.601562 31.824219 -5.4375 31.824219 -13.992188 C 31.824219 -22.550781 25.507812 -28.585938 16.59375 -28.585938 C 7.675781 -28.585938 1.359375 -22.550781 1.359375 -13.992188 C 1.359375 -5.4375 7.675781 0.601562 16.59375 0.601562 Z M 9.554688 -13.992188 C 9.554688 -18.191406 12.472656 -21.109375 16.59375 -21.109375 C 20.75 -21.109375 23.628906 -18.191406 23.628906 -13.992188 C 23.628906 -9.796875 20.75 -6.878906 16.59375 -6.878906 C 12.472656 -6.878906 9.554688 -9.796875 9.554688 -13.992188 Z M 9.554688 -13.992188 "/></g></g></g><g fill="#f3a93a" fill-opacity="1"><g transform="translate(106.047055, 90.417853)"><g/></g></g><g fill="#f3a93a" fill-opacity="1"><g transform="translate(115.280732, 90.417853)"><g><path d="M 16.03125 0.601562 C 23.75 0.601562 29.585938 -4.078125 30.785156 -11.195312 L 22.589844 -11.195312 C 21.589844 -8.554688 19.230469 -6.878906 16.191406 -6.878906 C 12.273438 -6.878906 9.554688 -9.796875 9.554688 -13.992188 C 9.554688 -18.230469 12.316406 -21.109375 16.273438 -21.109375 C 19.191406 -21.109375 21.628906 -19.472656 22.46875 -16.953125 L 30.625 -16.953125 C 29.1875 -24.03125 23.429688 -28.585938 15.953125 -28.585938 C 7.316406 -28.585938 1.359375 -22.628906 1.359375 -13.992188 C 1.359375 -5.359375 7.316406 0.601562 16.03125 0.601562 Z M 16.03125 0.601562 "/></g></g></g><g fill="#f3a93a" fill-opacity="1"><g transform="translate(147.338756, 90.417853)"><g><path d="M 2.957031 0 L 22.589844 0 L 22.589844 -6.597656 L 10.957031 -6.597656 L 10.957031 -10.914062 L 21.070312 -10.914062 L 21.070312 -17.390625 L 10.957031 -17.390625 L 10.957031 -21.46875 L 22.148438 -21.46875 L 22.148438 -27.988281 L 2.957031 -27.988281 Z M 2.957031 0 "/></g></g></g><g fill="#f3a93a" fill-opacity="1"><g transform="translate(171.72204, 90.417853)"><g><path d="M 2.957031 0 L 11.035156 0 L 11.035156 -7.957031 L 14.074219 -7.957031 L 18.070312 0 L 27.226562 0 L 22.070312 -9.4375 C 25.027344 -11.074219 26.707031 -14.035156 26.707031 -17.953125 C 26.707031 -24.148438 22.511719 -27.988281 15.714844 -27.988281 L 2.957031 -27.988281 Z M 10.875 -14.394531 L 10.875 -21.390625 L 14.632812 -21.390625 C 17.191406 -21.390625 18.59375 -20.152344 18.59375 -17.914062 C 18.59375 -15.671875 17.191406 -14.394531 14.632812 -14.394531 Z M 10.875 -14.394531 "/></g></g></g><g fill="#f3a93a" fill-opacity="1"><g transform="translate(200.502316, 90.417853)"><g><path d="M 9.636719 0 L 17.671875 0 L 17.671875 -20.511719 L 26.1875 -20.511719 L 26.1875 -27.988281 L 1.121094 -27.988281 L 1.121094 -20.511719 L 9.636719 -20.511719 Z M 9.636719 0 "/></g></g></g><g fill="#f3a93a" fill-opacity="1"><g transform="translate(227.803604, 90.417853)"><g><path d="M 2.957031 0 L 11.035156 0 L 11.035156 -27.988281 L 2.957031 -27.988281 Z M 2.957031 0 "/></g></g></g><g fill="#f3a93a" fill-opacity="1"><g transform="translate(241.794017, 90.417853)"><g><path d="M 2.957031 0 L 11.035156 0 L 11.035156 -8.316406 L 20.390625 -8.316406 L 20.390625 -15.3125 L 11.035156 -15.3125 L 11.035156 -20.789062 L 21.429688 -20.789062 L 21.429688 -27.988281 L 2.957031 -27.988281 Z M 2.957031 0 "/></g></g></g><g fill="#f3a93a" fill-opacity="1"><g transform="translate(264.738299, 90.417853)"><g><path d="M 2.957031 0 L 11.035156 0 L 11.035156 -27.988281 L 2.957031 -27.988281 Z M 2.957031 0 "/></g></g></g><g fill="#f3a93a" fill-opacity="1"><g transform="translate(278.7287, 90.417853)"><g><path d="M 16.03125 0.601562 C 23.75 0.601562 29.585938 -4.078125 30.785156 -11.195312 L 22.589844 -11.195312 C 21.589844 -8.554688 19.230469 -6.878906 16.191406 -6.878906 C 12.273438 -6.878906 9.554688 -9.796875 9.554688 -13.992188 C 9.554688 -18.230469 12.316406 -21.109375 16.273438 -21.109375 C 19.191406 -21.109375 21.628906 -19.472656 22.46875 -16.953125 L 30.625 -16.953125 C 29.1875 -24.03125 23.429688 -28.585938 15.953125 -28.585938 C 7.316406 -28.585938 1.359375 -22.628906 1.359375 -13.992188 C 1.359375 -5.359375 7.316406 0.601562 16.03125 0.601562 Z M 16.03125 0.601562 "/></g></g></g><g fill="#f3a93a" fill-opacity="1"><g transform="translate(310.786713, 90.417853)"><g><path d="M 0.199219 0 L 8.757812 0 L 10.277344 -3.957031 L 19.832031 -3.957031 L 21.351562 0 L 29.945312 0 L 19.070312 -27.988281 L 11.074219 -27.988281 Z M 11.953125 -9.875 L 15.074219 -18.550781 L 18.191406 -9.875 Z M 11.953125 -9.875 "/></g></g></g><g fill="#f3a93a" fill-opacity="1"><g transform="translate(340.926055, 90.417853)"><g><path d="M 9.636719 0 L 17.671875 0 L 17.671875 -20.511719 L 26.1875 -20.511719 L 26.1875 -27.988281 L 1.121094 -27.988281 L 1.121094 -20.511719 L 9.636719 -20.511719 Z M 9.636719 0 "/></g></g></g><g fill="#f3a93a" fill-opacity="1"><g transform="translate(368.227354, 90.417853)"><g><path d="M 2.957031 0 L 22.589844 0 L 22.589844 -6.597656 L 10.957031 -6.597656 L 10.957031 -10.914062 L 21.070312 -10.914062 L 21.070312 -17.390625 L 10.957031 -17.390625 L 10.957031 -21.46875 L 22.148438 -21.46875 L 22.148438 -27.988281 L 2.957031 -27.988281 Z M 2.957031 0 "/></g></g></g><g fill="#f3a93a" fill-opacity="1"><g transform="translate(392.610638, 90.417853)"><g><path d="M 12.996094 0.601562 C 19.953125 0.601562 24.070312 -2.679688 24.070312 -8.195312 C 24.070312 -12.835938 21.070312 -15.554688 14.273438 -17.074219 C 10.675781 -17.871094 9.355469 -18.75 9.355469 -20.191406 C 9.355469 -21.550781 10.554688 -22.390625 12.433594 -22.390625 C 14.671875 -22.390625 15.953125 -21.230469 15.953125 -19.113281 L 23.550781 -19.113281 C 23.550781 -24.867188 19.152344 -28.585938 12.273438 -28.585938 C 5.675781 -28.585938 1.597656 -25.308594 1.597656 -20.03125 C 1.597656 -15.3125 4.679688 -12.394531 10.996094 -11.195312 C 14.394531 -10.515625 16.03125 -9.476562 16.03125 -7.875 C 16.03125 -6.476562 14.832031 -5.675781 12.875 -5.675781 C 10.554688 -5.675781 9.195312 -6.917969 9.195312 -9.074219 L 1.398438 -9.074219 C 1.398438 -3.039062 5.71875 0.601562 12.996094 0.601562 Z M 12.996094 0.601562 "/></g></g></g><g fill="#f3a93a" fill-opacity="1"><g transform="translate(41.691173, 130.917852)"><g><path d="M 0.199219 0 L 8.757812 0 L 10.277344 -3.957031 L 19.832031 -3.957031 L 21.351562 0 L 29.945312 0 L 19.070312 -27.988281 L 11.074219 -27.988281 Z M 11.953125 -9.875 L 15.074219 -18.550781 L 18.191406 -9.875 Z M 11.953125 -9.875 "/></g></g></g><g fill="#f3a93a" fill-opacity="1"><g transform="translate(71.830515, 130.917852)"><g><path d="M 2.957031 0 L 14.832031 0 C 23.871094 0 29.867188 -5.558594 29.867188 -13.992188 C 29.867188 -22.390625 23.871094 -27.988281 14.832031 -27.988281 L 2.957031 -27.988281 Z M 11.035156 -7.238281 L 11.035156 -20.75 L 14.59375 -20.75 C 18.871094 -20.75 21.628906 -18.113281 21.628906 -13.992188 C 21.628906 -9.875 18.871094 -7.238281 14.59375 -7.238281 Z M 11.035156 -7.238281 "/></g></g></g><g fill="#f3a93a" fill-opacity="1"><g transform="translate(103.049116, 130.917852)"><g><path d="M 2.957031 0 L 14.832031 0 C 23.871094 0 29.867188 -5.558594 29.867188 -13.992188 C 29.867188 -22.390625 23.871094 -27.988281 14.832031 -27.988281 L 2.957031 -27.988281 Z M 11.035156 -7.238281 L 11.035156 -20.75 L 14.59375 -20.75 C 18.871094 -20.75 21.628906 -18.113281 21.628906 -13.992188 C 21.628906 -9.875 18.871094 -7.238281 14.59375 -7.238281 Z M 11.035156 -7.238281 "/></g></g></g><g fill="#f3a93a" fill-opacity="1"><g transform="translate(134.267716, 130.917852)"><g><path d="M 2.957031 0 L 22.589844 0 L 22.589844 -6.597656 L 10.957031 -6.597656 L 10.957031 -10.914062 L 21.070312 -10.914062 L 21.070312 -17.390625 L 10.957031 -17.390625 L 10.957031 -21.46875 L 22.148438 -21.46875 L 22.148438 -27.988281 L 2.957031 -27.988281 Z M 2.957031 0 "/></g></g></g><g fill="#f3a93a" fill-opacity="1"><g transform="translate(158.651, 130.917852)"><g><path d="M 2.957031 0 L 14.832031 0 C 23.871094 0 29.867188 -5.558594 29.867188 -13.992188 C 29.867188 -22.390625 23.871094 -27.988281 14.832031 -27.988281 L 2.957031 -27.988281 Z M 11.035156 -7.238281 L 11.035156 -20.75 L 14.59375 -20.75 C 18.871094 -20.75 21.628906 -18.113281 21.628906 -13.992188 C 21.628906 -9.875 18.871094 -7.238281 14.59375 -7.238281 Z M 11.035156 -7.238281 "/></g></g></g><g clip-path="url(#id4)"><path fill="#b7733b" d="M 644.230469 61.839844 L 644.230469 146.15625 L 688.039062 120.839844 L 688.039062 36.519531 Z M 644.230469 61.839844 " fill-opacity="1" fill-rule="nonzero"/><path fill="#9e6b39" d="M 688.039062 36.519531 L 644.226562 61.839844 L 644.226562 146.15625 " fill-opacity="1" fill-rule="nonzero"/></g><path fill="#314c49" d="M 647.507812 63.789062 L 647.507812 140.667969 L 684.765625 119.007812 L 684.765625 42.257812 Z M 647.507812 63.789062 " fill-opacity="1" fill-rule="nonzero"/><path fill="#6d4222" d="M 647.507812 63.789062 L 647.507812 140.667969 L 684.765625 119.007812 L 684.765625 42.257812 Z M 647.507812 63.789062 " fill-opacity="1" fill-rule="nonzero"/><path fill="#472f1a" d="M 683.375 118.144531 L 683.375 43.058594 L 647.503906 63.789062 L 647.503906 139 Z M 683.375 118.144531 " fill-opacity="1" fill-rule="nonzero"/><path fill="#72461a" d="M 644.230469 61.839844 L 644.230469 146.15625 L 600.421875 120.839844 L 600.421875 36.519531 Z M 644.230469 61.839844 " fill-opacity="1" fill-rule="nonzero"/><path fill="#603814" d="M 600.421875 36.519531 L 644.230469 61.839844 L 644.230469 146.15625 " fill-opacity="1" fill-rule="nonzero"/><g clip-path="url(#id5)"><path fill="#c47e3f" d="M 644.230469 11.203125 L 600.421875 36.519531 L 644.230469 61.839844 L 688.039062 36.519531 Z M 644.230469 11.203125 " fill-opacity="1" fill-rule="nonzero"/></g><g clip-path="url(#id6)"><path fill="#b7733b" d="M 600.421875 36.519531 L 644.230469 61.839844 L 688.039062 36.519531 " fill-opacity="1" fill-rule="nonzero"/></g><path fill="#9e6b39" d="M 648.84375 123.453125 L 648.84375 141.574219 L 686.101562 120.042969 L 686.101562 101.921875 Z M 648.84375 123.453125 " fill-opacity="1" fill-rule="nonzero"/><path fill="#916431" d="M 686.109375 101.921875 L 648.847656 123.453125 L 648.847656 141.574219 " fill-opacity="1" fill-rule="nonzero"/><path fill="#c47e3f" d="M 648.847656 123.484375 L 686.109375 101.953125 L 684.75 101.171875 L 647.492188 122.703125 Z M 648.847656 123.484375 " fill-opacity="1" fill-rule="nonzero"/><path fill="#72461a" d="M 647.492188 122.703125 L 647.492188 140.785156 L 648.847656 141.574219 L 648.847656 123.484375 Z M 647.492188 122.703125 " fill-opacity="1" fill-rule="nonzero"/><path fill="#72461a" d="M 670.019531 119.386719 L 669.132812 118.875 C 668.902344 118.734375 668.582031 118.746094 668.230469 118.953125 C 667.535156 119.355469 666.960938 120.34375 666.960938 121.152344 C 666.960938 121.574219 667.117188 121.859375 667.359375 121.984375 L 667.359375 121.992188 L 668.296875 122.53125 L 668.296875 122.523438 C 668.527344 122.640625 668.832031 122.621094 669.164062 122.425781 C 669.859375 122.019531 670.429688 121.027344 670.433594 120.222656 C 670.433594 119.796875 670.273438 119.507812 670.019531 119.386719 Z M 670.019531 119.386719 " fill-opacity="1" fill-rule="nonzero"/><path fill="#332816" d="M 671.519531 120.421875 L 670.046875 119.570312 C 669.664062 119.335938 669.132812 119.355469 668.539062 119.699219 C 667.375 120.371094 666.425781 122.023438 666.425781 123.367188 C 666.425781 124.070312 666.683594 124.546875 667.089844 124.757812 L 667.089844 124.765625 L 668.652344 125.667969 L 668.652344 125.652344 C 669.027344 125.851562 669.539062 125.816406 670.097656 125.488281 C 671.25 124.8125 672.207031 123.160156 672.210938 121.816406 C 672.214844 121.105469 671.945312 120.625 671.519531 120.421875 Z M 671.519531 120.421875 " fill-opacity="0.298" fill-rule="nonzero"/><path fill="#b2902f" d="M 667.207031 122.53125 C 667.207031 121.191406 668.15625 119.542969 669.3125 118.875 C 669.902344 118.535156 670.433594 118.511719 670.8125 118.746094 L 672.359375 119.640625 L 672.359375 122.757812 L 670.777344 123.699219 L 670.777344 122.175781 C 670.425781 122.785156 669.949219 123.320312 669.425781 123.660156 L 669.425781 124.816406 L 667.871094 123.921875 L 667.871094 123.914062 C 667.464844 123.703125 667.207031 123.230469 667.207031 122.53125 Z M 667.207031 122.53125 " fill-opacity="1" fill-rule="nonzero"/><path fill="#edc85f" d="M 670.871094 124.640625 C 672.023438 123.96875 672.972656 122.324219 672.976562 120.984375 C 672.984375 119.648438 672.042969 119.101562 670.886719 119.769531 C 669.726562 120.4375 668.78125 122.082031 668.78125 123.425781 C 668.78125 124.769531 669.722656 125.316406 670.871094 124.640625 Z M 670.871094 124.640625 " fill-opacity="1" fill-rule="nonzero"/><path fill="#d1b14a" d="M 670.871094 119.769531 C 669.714844 120.441406 668.769531 122.085938 668.769531 123.425781 C 668.769531 124.769531 669.710938 125.316406 670.859375 124.644531 " fill-opacity="1" fill-rule="nonzero"/><path fill="#b2902f" d="M 669.308594 123.035156 C 669.308594 122.078125 669.980469 120.914062 670.800781 120.441406 C 671.304688 120.144531 671.800781 120.164062 672.109375 120.472656 C 672.3125 120.679688 672.421875 120.992188 672.421875 121.378906 C 672.414062 122.332031 671.742188 123.496094 670.925781 123.972656 C 670.683594 124.117188 670.449219 124.1875 670.226562 124.1875 C 669.667969 124.1875 669.308594 123.734375 669.308594 123.035156 Z M 670.933594 120.667969 C 670.183594 121.101562 669.574219 122.160156 669.574219 123.035156 C 669.574219 123.582031 669.820312 123.921875 670.226562 123.921875 C 670.398438 123.921875 670.59375 123.863281 670.792969 123.746094 C 671.527344 123.316406 672.152344 122.234375 672.15625 121.378906 C 672.15625 121.066406 672.074219 120.816406 671.921875 120.660156 C 671.8125 120.550781 671.671875 120.496094 671.503906 120.496094 C 671.328125 120.492188 671.132812 120.554688 670.933594 120.667969 Z M 670.933594 120.667969 " fill-opacity="1" fill-rule="nonzero"/><path fill="#9e6b39" d="M 648.84375 103.851562 L 648.84375 121.976562 L 686.101562 100.441406 L 686.101562 82.320312 Z M 648.84375 103.851562 " fill-opacity="1" fill-rule="nonzero"/><path fill="#916431" d="M 686.109375 82.320312 L 648.847656 103.851562 L 648.847656 121.976562 " fill-opacity="1" fill-rule="nonzero"/><path fill="#c47e3f" d="M 648.847656 103.882812 L 686.109375 82.355469 L 684.75 81.570312 L 647.492188 103.101562 Z M 648.847656 103.882812 " fill-opacity="1" fill-rule="nonzero"/><path fill="#72461a" d="M 647.492188 103.101562 L 647.492188 121.183594 L 648.847656 121.976562 L 648.847656 103.882812 Z M 647.492188 103.101562 " fill-opacity="1" fill-rule="nonzero"/><path fill="#72461a" d="M 670.019531 99.785156 L 669.132812 99.273438 C 668.902344 99.132812 668.582031 99.144531 668.230469 99.351562 C 667.535156 99.75 666.960938 100.742188 666.960938 101.550781 C 666.960938 101.972656 667.117188 102.257812 667.359375 102.382812 L 667.359375 102.386719 L 668.296875 102.929688 L 668.296875 102.921875 C 668.527344 103.039062 668.832031 103.019531 669.164062 102.824219 C 669.859375 102.417969 670.429688 101.425781 670.433594 100.621094 C 670.433594 100.195312 670.273438 99.90625 670.019531 99.785156 Z M 670.019531 99.785156 " fill-opacity="1" fill-rule="nonzero"/><path fill="#332816" d="M 671.519531 100.820312 L 670.046875 99.96875 C 669.664062 99.734375 669.132812 99.757812 668.539062 100.101562 C 667.375 100.769531 666.425781 102.421875 666.425781 103.765625 C 666.425781 104.46875 666.683594 104.949219 667.089844 105.15625 L 667.089844 105.167969 L 668.652344 106.066406 L 668.652344 106.050781 C 669.027344 106.25 669.539062 106.214844 670.097656 105.890625 C 671.25 105.214844 672.207031 103.5625 672.210938 102.21875 C 672.214844 101.503906 671.945312 101.023438 671.519531 100.820312 Z M 671.519531 100.820312 " fill-opacity="0.298" fill-rule="nonzero"/><path fill="#b2902f" d="M 667.207031 102.929688 C 667.207031 101.589844 668.15625 99.945312 669.3125 99.273438 C 669.902344 98.933594 670.433594 98.910156 670.8125 99.144531 L 672.359375 100.039062 L 672.359375 103.15625 L 670.777344 104.097656 L 670.777344 102.574219 C 670.425781 103.183594 669.949219 103.71875 669.425781 104.058594 L 669.425781 105.214844 L 667.871094 104.320312 L 667.871094 104.3125 C 667.464844 104.105469 667.207031 103.628906 667.207031 102.929688 Z M 667.207031 102.929688 " fill-opacity="1" fill-rule="nonzero"/><path fill="#edc85f" d="M 670.871094 105.039062 C 672.023438 104.367188 672.972656 102.722656 672.976562 101.386719 C 672.984375 100.046875 672.042969 99.5 670.886719 100.167969 C 669.726562 100.835938 668.78125 102.480469 668.78125 103.824219 C 668.777344 105.167969 669.722656 105.714844 670.871094 105.039062 Z M 670.871094 105.039062 " fill-opacity="1" fill-rule="nonzero"/><path fill="#d1b14a" d="M 670.871094 100.171875 C 669.714844 100.839844 668.769531 102.484375 668.769531 103.824219 C 668.769531 105.167969 669.710938 105.714844 670.859375 105.042969 " fill-opacity="1" fill-rule="nonzero"/><path fill="#b2902f" d="M 669.308594 103.433594 C 669.308594 102.476562 669.980469 101.316406 670.800781 100.839844 C 671.304688 100.546875 671.800781 100.5625 672.109375 100.871094 C 672.3125 101.078125 672.421875 101.394531 672.421875 101.78125 C 672.414062 102.734375 671.742188 103.894531 670.925781 104.375 C 670.683594 104.515625 670.449219 104.585938 670.226562 104.585938 C 669.667969 104.585938 669.308594 104.132812 669.308594 103.433594 Z M 670.933594 101.070312 C 670.183594 101.5 669.574219 102.5625 669.574219 103.433594 C 669.574219 103.980469 669.820312 104.320312 670.226562 104.320312 C 670.398438 104.320312 670.59375 104.261719 670.792969 104.144531 C 671.527344 103.714844 672.152344 102.632812 672.15625 101.78125 C 672.15625 101.464844 672.074219 101.21875 671.921875 101.0625 C 671.8125 100.953125 671.671875 100.894531 671.503906 100.894531 C 671.328125 100.894531 671.132812 100.953125 670.933594 101.070312 Z M 670.933594 101.070312 " fill-opacity="1" fill-rule="nonzero"/><path fill="#9e6b39" d="M 648.84375 64.816406 L 648.84375 82.941406 L 686.101562 61.40625 L 686.101562 43.285156 Z M 648.84375 64.816406 " fill-opacity="1" fill-rule="nonzero"/><path fill="#916431" d="M 686.109375 43.285156 L 648.847656 64.816406 L 648.847656 82.941406 " fill-opacity="1" fill-rule="nonzero"/><path fill="#c47e3f" d="M 648.847656 64.847656 L 686.109375 43.320312 L 684.75 42.535156 L 647.492188 64.070312 Z M 648.847656 64.847656 " fill-opacity="1" fill-rule="nonzero"/><path fill="#72461a" d="M 647.492188 64.070312 L 647.492188 82.152344 L 648.847656 82.941406 L 648.847656 64.847656 Z M 647.492188 64.070312 " fill-opacity="1" fill-rule="nonzero"/><path fill="#72461a" d="M 670.019531 60.75 L 669.132812 60.238281 C 668.902344 60.097656 668.582031 60.109375 668.230469 60.316406 C 667.535156 60.71875 666.960938 61.710938 666.960938 62.515625 C 666.960938 62.9375 667.117188 63.222656 667.359375 63.347656 L 667.359375 63.351562 L 668.296875 63.894531 L 668.296875 63.886719 C 668.527344 64.003906 668.832031 63.984375 669.164062 63.789062 C 669.859375 63.382812 670.429688 62.390625 670.433594 61.585938 C 670.433594 61.160156 670.273438 60.871094 670.019531 60.75 Z M 670.019531 60.75 " fill-opacity="1" fill-rule="nonzero"/><path fill="#332816" d="M 671.519531 61.789062 L 670.046875 60.9375 C 669.664062 60.703125 669.132812 60.722656 668.539062 61.066406 C 667.375 61.734375 666.425781 63.386719 666.425781 64.734375 C 666.425781 65.433594 666.683594 65.914062 667.089844 66.121094 L 667.089844 66.128906 L 668.652344 67.03125 L 668.652344 67.015625 C 669.027344 67.214844 669.539062 67.179688 670.097656 66.851562 C 671.25 66.175781 672.207031 64.523438 672.210938 63.183594 C 672.214844 62.46875 671.945312 61.992188 671.519531 61.789062 Z M 671.519531 61.789062 " fill-opacity="0.298" fill-rule="nonzero"/><path fill="#b2902f" d="M 667.207031 63.894531 C 667.207031 62.554688 668.15625 60.910156 669.3125 60.242188 C 669.902344 59.898438 670.433594 59.878906 670.8125 60.113281 L 672.359375 61.007812 L 672.359375 64.125 L 670.777344 65.0625 L 670.777344 63.539062 C 670.425781 64.152344 669.949219 64.683594 669.425781 65.023438 L 669.425781 66.179688 L 667.871094 65.285156 L 667.871094 65.277344 C 667.464844 65.070312 667.207031 64.59375 667.207031 63.894531 Z M 667.207031 63.894531 " fill-opacity="1" fill-rule="nonzero"/><path fill="#edc85f" d="M 670.871094 66.007812 C 672.023438 65.335938 672.972656 63.691406 672.976562 62.351562 C 672.984375 61.015625 672.042969 60.46875 670.886719 61.136719 C 669.726562 61.804688 668.78125 63.449219 668.78125 64.792969 C 668.777344 66.132812 669.722656 66.679688 670.871094 66.007812 Z M 670.871094 66.007812 " fill-opacity="1" fill-rule="nonzero"/><path fill="#d1b14a" d="M 670.871094 61.136719 C 669.714844 61.804688 668.769531 63.449219 668.769531 64.792969 C 668.769531 66.132812 669.710938 66.679688 670.859375 66.007812 " fill-opacity="1" fill-rule="nonzero"/><path fill="#b2902f" d="M 669.308594 64.398438 C 669.308594 63.441406 669.980469 62.28125 670.800781 61.804688 C 671.304688 61.511719 671.800781 61.53125 672.109375 61.835938 C 672.3125 62.042969 672.421875 62.359375 672.421875 62.746094 C 672.414062 63.695312 671.742188 64.859375 670.925781 65.339844 C 670.683594 65.480469 670.449219 65.550781 670.226562 65.550781 C 669.667969 65.550781 669.308594 65.097656 669.308594 64.398438 Z M 670.933594 62.035156 C 670.183594 62.46875 669.574219 63.527344 669.574219 64.398438 C 669.574219 64.949219 669.820312 65.289062 670.226562 65.289062 C 670.398438 65.289062 670.59375 65.226562 670.792969 65.109375 C 671.527344 64.683594 672.152344 63.597656 672.15625 62.746094 C 672.15625 62.429688 672.074219 62.183594 671.921875 62.027344 C 671.8125 61.917969 671.671875 61.859375 671.503906 61.859375 C 671.328125 61.859375 671.132812 61.921875 670.933594 62.035156 Z M 670.933594 62.035156 " fill-opacity="1" fill-rule="nonzero"/><path fill="#9e6b39" d="M 648.84375 84.335938 L 648.84375 102.457031 L 686.101562 80.925781 L 686.101562 62.804688 Z M 648.84375 84.335938 " fill-opacity="1" fill-rule="nonzero"/><path fill="#916431" d="M 686.109375 62.804688 L 648.847656 84.335938 L 648.847656 102.457031 " fill-opacity="1" fill-rule="nonzero"/><path fill="#c47e3f" d="M 648.847656 84.367188 L 686.109375 62.835938 L 684.75 62.054688 L 647.492188 83.585938 Z M 648.847656 84.367188 " fill-opacity="1" fill-rule="nonzero"/><path fill="#72461a" d="M 647.492188 83.585938 L 647.492188 101.667969 L 648.847656 102.457031 L 648.847656 84.367188 Z M 647.492188 83.585938 " fill-opacity="1" fill-rule="nonzero"/><path fill="#72461a" d="M 670.019531 80.269531 L 669.132812 79.757812 C 668.902344 79.613281 668.582031 79.628906 668.230469 79.835938 C 667.535156 80.234375 666.960938 81.226562 666.960938 82.035156 C 666.960938 82.453125 667.117188 82.742188 667.359375 82.867188 L 667.359375 82.871094 L 668.296875 83.410156 L 668.296875 83.402344 C 668.527344 83.519531 668.832031 83.5 669.164062 83.304688 C 669.859375 82.898438 670.429688 81.910156 670.433594 81.101562 C 670.433594 80.675781 670.273438 80.386719 670.019531 80.269531 Z M 670.019531 80.269531 " fill-opacity="1" fill-rule="nonzero"/><path fill="#332816" d="M 671.519531 81.304688 L 670.046875 80.453125 C 669.664062 80.21875 669.132812 80.238281 668.539062 80.582031 C 667.375 81.253906 666.425781 82.90625 666.425781 84.25 C 666.425781 84.953125 666.683594 85.429688 667.089844 85.640625 L 667.089844 85.648438 L 668.652344 86.550781 L 668.652344 86.535156 C 669.027344 86.734375 669.539062 86.699219 670.097656 86.371094 C 671.25 85.695312 672.207031 84.042969 672.210938 82.699219 C 672.214844 81.984375 671.945312 81.507812 671.519531 81.304688 Z M 671.519531 81.304688 " fill-opacity="0.298" fill-rule="nonzero"/><path fill="#b2902f" d="M 667.207031 83.414062 C 667.207031 82.074219 668.15625 80.425781 669.3125 79.757812 C 669.902344 79.417969 670.433594 79.394531 670.8125 79.628906 L 672.359375 80.523438 L 672.359375 83.640625 L 670.777344 84.582031 L 670.777344 83.058594 C 670.425781 83.667969 669.949219 84.203125 669.425781 84.542969 L 669.425781 85.699219 L 667.871094 84.804688 L 667.871094 84.796875 C 667.464844 84.589844 667.207031 84.109375 667.207031 83.414062 Z M 667.207031 83.414062 " fill-opacity="1" fill-rule="nonzero"/><path fill="#edc85f" d="M 670.871094 85.523438 C 672.023438 84.851562 672.972656 83.207031 672.976562 81.867188 C 672.984375 80.53125 672.042969 79.984375 670.886719 80.652344 C 669.726562 81.320312 668.78125 82.964844 668.78125 84.308594 C 668.777344 85.652344 669.722656 86.199219 670.871094 85.523438 Z M 670.871094 85.523438 " fill-opacity="1" fill-rule="nonzero"/><path fill="#d1b14a" d="M 670.871094 80.652344 C 669.714844 81.320312 668.769531 82.964844 668.769531 84.308594 C 668.769531 85.648438 669.710938 86.195312 670.859375 85.523438 " fill-opacity="1" fill-rule="nonzero"/><path fill="#b2902f" d="M 669.308594 83.914062 C 669.308594 82.960938 669.980469 81.796875 670.800781 81.324219 C 671.304688 81.027344 671.800781 81.046875 672.109375 81.355469 C 672.3125 81.5625 672.421875 81.875 672.421875 82.261719 C 672.414062 83.214844 671.742188 84.378906 670.925781 84.855469 C 670.683594 85 670.449219 85.070312 670.226562 85.070312 C 669.667969 85.070312 669.308594 84.617188 669.308594 83.914062 Z M 670.933594 81.550781 C 670.183594 81.984375 669.574219 83.046875 669.574219 83.914062 C 669.574219 84.464844 669.820312 84.804688 670.226562 84.804688 C 670.398438 84.804688 670.59375 84.742188 670.792969 84.625 C 671.527344 84.199219 672.152344 83.113281 672.15625 82.261719 C 672.15625 81.945312 672.074219 81.699219 671.921875 81.542969 C 671.8125 81.433594 671.671875 81.375 671.503906 81.375 C 671.328125 81.375 671.132812 81.4375 670.933594 81.550781 Z M 670.933594 81.550781 " fill-opacity="1" fill-rule="nonzero"/><path fill="#b7733b" d="M 600.507812 87.097656 L 600.507812 171.417969 L 644.316406 146.101562 L 644.316406 61.78125 Z M 600.507812 87.097656 " fill-opacity="1" fill-rule="nonzero"/><path fill="#9e6b39" d="M 644.316406 61.78125 L 600.507812 87.097656 L 600.507812 171.417969 " fill-opacity="1" fill-rule="nonzero"/><path fill="#314c49" d="M 603.78125 89.050781 L 603.78125 165.929688 L 641.042969 144.265625 L 641.042969 67.515625 Z M 603.78125 89.050781 " fill-opacity="1" fill-rule="nonzero"/><path fill="#6d4222" d="M 603.78125 89.050781 L 603.78125 165.929688 L 641.042969 144.265625 L 641.042969 67.515625 Z M 603.78125 89.050781 " fill-opacity="1" fill-rule="nonzero"/><path fill="#472f1a" d="M 639.652344 143.40625 L 639.652344 68.320312 L 603.78125 89.050781 L 603.78125 164.257812 Z M 639.652344 143.40625 " fill-opacity="1" fill-rule="nonzero"/><path fill="#72461a" d="M 639.652344 143.195312 L 607.457031 124.589844 L 603.78125 126.714844 L 603.78125 164.257812 L 639.652344 143.40625 Z M 639.652344 143.195312 " fill-opacity="1" fill-rule="nonzero"/><path fill="#72461a" d="M 600.507812 87.097656 L 600.507812 171.417969 L 556.699219 146.101562 L 556.699219 61.78125 Z M 600.507812 87.097656 " fill-opacity="1" fill-rule="nonzero"/><path fill="#603814" d="M 556.699219 61.78125 L 600.507812 87.097656 L 600.507812 171.417969 " fill-opacity="1" fill-rule="nonzero"/><path fill="#c47e3f" d="M 600.503906 36.464844 L 556.699219 61.78125 L 600.507812 87.097656 L 644.316406 61.78125 Z M 600.503906 36.464844 " fill-opacity="1" fill-rule="nonzero"/><path fill="#b7733b" d="M 556.699219 61.78125 L 600.507812 87.097656 L 644.316406 61.78125 " fill-opacity="1" fill-rule="nonzero"/><path fill="#b7733b" d="M 556.78125 112.359375 L 556.78125 196.679688 L 600.589844 171.359375 L 600.589844 87.042969 Z M 556.78125 112.359375 " fill-opacity="1" fill-rule="nonzero"/><path fill="#9e6b39" d="M 600.589844 87.042969 L 556.78125 112.359375 L 556.78125 196.679688 " fill-opacity="1" fill-rule="nonzero"/><path fill="#314c49" d="M 560.054688 114.3125 L 560.054688 191.191406 L 597.316406 169.527344 L 597.316406 92.777344 Z M 560.054688 114.3125 " fill-opacity="1" fill-rule="nonzero"/><path fill="#6d4222" d="M 560.054688 114.3125 L 560.054688 191.191406 L 597.316406 169.527344 L 597.316406 92.777344 Z M 560.054688 114.3125 " fill-opacity="1" fill-rule="nonzero"/><path fill="#472f1a" d="M 595.929688 168.664062 L 595.929688 93.574219 L 560.054688 114.308594 L 560.054688 189.515625 Z M 595.929688 168.664062 " fill-opacity="1" fill-rule="nonzero"/><g clip-path="url(#id7)"><path fill="#72461a" d="M 556.78125 112.359375 L 556.78125 196.679688 L 512.972656 171.359375 L 512.972656 87.042969 Z M 556.78125 112.359375 " fill-opacity="1" fill-rule="nonzero"/><path fill="#603814" d="M 512.972656 87.042969 L 556.78125 112.359375 L 556.78125 196.679688 " fill-opacity="1" fill-rule="nonzero"/></g><g clip-path="url(#id8)"><path fill="#c47e3f" d="M 556.78125 61.722656 L 512.972656 87.042969 L 556.78125 112.359375 L 600.589844 87.042969 Z M 556.78125 61.722656 " fill-opacity="1" fill-rule="nonzero"/></g><g clip-path="url(#id9)"><path fill="#b7733b" d="M 512.972656 87.042969 L 556.78125 112.359375 L 600.589844 87.042969 " fill-opacity="1" fill-rule="nonzero"/></g><path fill="#b7733b" d="M 597.265625 195.128906 L 597.265625 212.675781 L 634.472656 191.171875 L 634.472656 173.625 Z M 597.265625 195.128906 " fill-opacity="1" fill-rule="nonzero"/><path fill="#9e6b39" d="M 634.472656 173.628906 L 597.265625 195.132812 L 597.265625 212.679688 " fill-opacity="1" fill-rule="nonzero"/><path fill="#7f4d1f" d="M 597.265625 195.128906 L 597.265625 212.675781 L 560.054688 191.171875 L 560.054688 173.625 Z M 597.265625 195.128906 " fill-opacity="1" fill-rule="nonzero"/><path fill="#72461a" d="M 560.054688 173.628906 L 597.265625 195.132812 L 597.265625 212.679688 " fill-opacity="1" fill-rule="nonzero"/><path fill="#c47e3f" d="M 597.261719 152.121094 L 560.054688 173.625 L 597.265625 195.128906 L 634.472656 173.625 Z M 597.261719 152.121094 " fill-opacity="1" fill-rule="nonzero"/><path fill="#b7733b" d="M 560.054688 173.628906 L 597.265625 195.132812 L 634.472656 173.628906 " fill-opacity="1" fill-rule="nonzero"/><path fill="#472f1a" d="M 597.261719 154.804688 L 564.699219 173.625 L 597.265625 192.445312 L 629.832031 173.625 Z M 597.261719 154.804688 " fill-opacity="1" fill-rule="nonzero"/><path fill="#634027" d="M 597.265625 192.441406 L 629.832031 173.617188 L 597.261719 154.800781 " fill-opacity="1" fill-rule="nonzero"/><path fill="#2b1b10" d="M 578.222656 181.429688 L 597.265625 192.4375 L 616.308594 181.429688 L 597.261719 170.425781 Z M 578.222656 181.429688 " fill-opacity="1" fill-rule="nonzero"/><g clip-path="url(#id10)"><path fill="#9e6b39" d="M 598.511719 195.574219 L 598.511719 213.695312 L 635.773438 192.160156 L 635.773438 174.042969 Z M 598.511719 195.574219 " fill-opacity="1" fill-rule="nonzero"/><path fill="#916431" d="M 635.773438 174.058594 L 598.511719 195.589844 L 598.511719 213.710938 " fill-opacity="1" fill-rule="nonzero"/></g><path fill="#c47e3f" d="M 598.515625 195.605469 L 635.777344 174.074219 L 634.421875 173.292969 L 597.164062 194.824219 Z M 598.515625 195.605469 " fill-opacity="1" fill-rule="nonzero"/><g clip-path="url(#id11)"><path fill="#72461a" d="M 597.164062 194.828125 L 597.164062 212.910156 L 598.515625 213.699219 L 598.515625 195.609375 Z M 597.164062 194.828125 " fill-opacity="1" fill-rule="nonzero"/></g><path fill="#72461a" d="M 619.6875 191.507812 L 618.804688 190.996094 C 618.574219 190.855469 618.25 190.867188 617.898438 191.074219 C 617.203125 191.476562 616.632812 192.46875 616.632812 193.277344 C 616.632812 193.695312 616.785156 193.984375 617.03125 194.109375 L 617.03125 194.113281 L 617.96875 194.652344 L 617.96875 194.644531 C 618.195312 194.761719 618.5 194.742188 618.832031 194.546875 C 619.527344 194.140625 620.097656 193.152344 620.101562 192.34375 C 620.101562 191.914062 619.941406 191.628906 619.6875 191.507812 Z M 619.6875 191.507812 " fill-opacity="1" fill-rule="nonzero"/><path fill="#332816" d="M 621.1875 192.550781 L 619.710938 191.699219 C 619.328125 191.464844 618.796875 191.484375 618.203125 191.828125 C 617.042969 192.5 616.089844 194.148438 616.089844 195.496094 C 616.089844 196.195312 616.347656 196.675781 616.757812 196.886719 L 616.757812 196.894531 L 618.316406 197.792969 L 618.316406 197.777344 C 618.695312 197.980469 619.203125 197.941406 619.761719 197.617188 C 620.917969 196.9375 621.871094 195.289062 621.875 193.945312 C 621.878906 193.234375 621.609375 192.75 621.1875 192.550781 Z M 621.1875 192.550781 " fill-opacity="0.298" fill-rule="nonzero"/><path fill="#b2902f" d="M 616.875 194.65625 C 616.875 193.316406 617.820312 191.667969 618.980469 191 C 619.570312 190.65625 620.101562 190.636719 620.480469 190.871094 L 622.027344 191.765625 L 622.027344 194.882812 L 620.445312 195.824219 L 620.445312 194.300781 C 620.089844 194.910156 619.617188 195.445312 619.09375 195.78125 L 619.09375 196.941406 L 617.539062 196.042969 L 617.539062 196.039062 C 617.132812 195.828125 616.875 195.351562 616.875 194.65625 Z M 616.875 194.65625 " fill-opacity="1" fill-rule="nonzero"/><path fill="#edc85f" d="M 620.535156 196.773438 C 621.683594 196.101562 622.632812 194.457031 622.636719 193.117188 C 622.644531 191.78125 621.703125 191.234375 620.546875 191.902344 C 619.386719 192.570312 618.441406 194.214844 618.441406 195.558594 C 618.441406 196.898438 619.382812 197.449219 620.535156 196.773438 Z M 620.535156 196.773438 " fill-opacity="1" fill-rule="nonzero"/><path fill="#d1b14a" d="M 620.546875 191.902344 C 619.386719 192.570312 618.441406 194.214844 618.441406 195.558594 C 618.441406 196.898438 619.382812 197.445312 620.535156 196.773438 " fill-opacity="1" fill-rule="nonzero"/><path fill="#b2902f" d="M 618.984375 195.160156 C 618.984375 194.207031 619.652344 193.042969 620.476562 192.566406 C 620.980469 192.273438 621.476562 192.292969 621.78125 192.601562 C 621.988281 192.808594 622.09375 193.121094 622.09375 193.507812 C 622.085938 194.460938 621.417969 195.625 620.601562 196.101562 C 620.359375 196.242188 620.121094 196.316406 619.902344 196.316406 C 619.34375 196.316406 618.984375 195.863281 618.984375 195.160156 Z M 620.609375 192.796875 C 619.859375 193.230469 619.25 194.289062 619.25 195.160156 C 619.25 195.707031 619.5 196.046875 619.902344 196.046875 C 620.074219 196.046875 620.269531 195.988281 620.46875 195.875 C 621.203125 195.445312 621.828125 194.359375 621.832031 193.507812 C 621.832031 193.191406 621.75 192.945312 621.597656 192.789062 C 621.488281 192.679688 621.347656 192.625 621.175781 192.625 C 621.007812 192.621094 620.8125 192.683594 620.609375 192.796875 Z M 620.609375 192.796875 " fill-opacity="1" fill-rule="nonzero"/><path fill="#9e6b39" d="M 561.394531 154.371094 L 561.394531 172.492188 L 598.652344 150.960938 L 598.652344 132.84375 Z M 561.394531 154.371094 " fill-opacity="1" fill-rule="nonzero"/><path fill="#916431" d="M 598.652344 132.84375 L 561.394531 154.371094 L 561.394531 172.492188 " fill-opacity="1" fill-rule="nonzero"/><path fill="#c47e3f" d="M 561.398438 154.402344 L 598.660156 132.875 L 597.300781 132.089844 L 560.042969 153.625 Z M 561.398438 154.402344 " fill-opacity="1" fill-rule="nonzero"/><path fill="#72461a" d="M 560.042969 153.625 L 560.042969 171.703125 L 561.398438 172.492188 L 561.398438 154.402344 Z M 560.042969 153.625 " fill-opacity="1" fill-rule="nonzero"/><path fill="#72461a" d="M 582.570312 150.304688 L 581.6875 149.796875 C 581.453125 149.652344 581.132812 149.664062 580.78125 149.871094 C 580.082031 150.273438 579.511719 151.265625 579.511719 152.074219 C 579.511719 152.496094 579.667969 152.78125 579.910156 152.90625 L 579.910156 152.910156 L 580.847656 153.453125 L 580.847656 153.441406 C 581.074219 153.558594 581.378906 153.542969 581.714844 153.34375 C 582.40625 152.941406 582.980469 151.949219 582.984375 151.144531 C 582.984375 150.714844 582.824219 150.425781 582.570312 150.304688 Z M 582.570312 150.304688 " fill-opacity="1" fill-rule="nonzero"/><path fill="#332816" d="M 584.070312 151.34375 L 582.59375 150.492188 C 582.210938 150.253906 581.679688 150.277344 581.085938 150.621094 C 579.921875 151.289062 578.972656 152.941406 578.972656 154.289062 C 578.972656 154.988281 579.230469 155.46875 579.640625 155.679688 L 579.640625 155.6875 L 581.199219 156.585938 L 581.199219 156.570312 C 581.578125 156.769531 582.085938 156.734375 582.644531 156.40625 C 583.800781 155.730469 584.753906 154.078125 584.757812 152.738281 C 584.761719 152.023438 584.492188 151.542969 584.070312 151.34375 Z M 584.070312 151.34375 " fill-opacity="0.298" fill-rule="nonzero"/><path fill="#b2902f" d="M 579.757812 153.449219 C 579.757812 152.109375 580.703125 150.464844 581.863281 149.796875 C 582.453125 149.453125 582.984375 149.433594 583.363281 149.667969 L 584.910156 150.5625 L 584.910156 153.675781 L 583.328125 154.617188 L 583.328125 153.09375 C 582.972656 153.707031 582.5 154.238281 581.976562 154.578125 L 581.976562 155.734375 L 580.421875 154.839844 L 580.421875 154.832031 C 580.011719 154.625 579.757812 154.148438 579.757812 153.449219 Z M 579.757812 153.449219 " fill-opacity="1" fill-rule="nonzero"/><path fill="#edc85f" d="M 583.417969 155.5625 C 584.566406 154.890625 585.515625 153.242188 585.519531 151.90625 C 585.527344 150.566406 584.585938 150.019531 583.425781 150.691406 C 582.269531 151.359375 581.324219 153 581.324219 154.347656 C 581.320312 155.6875 582.265625 156.234375 583.417969 155.5625 Z M 583.417969 155.5625 " fill-opacity="1" fill-rule="nonzero"/><path fill="#d1b14a" d="M 583.425781 150.691406 C 582.269531 151.359375 581.320312 153.003906 581.320312 154.347656 C 581.320312 155.691406 582.265625 156.234375 583.414062 155.5625 " fill-opacity="1" fill-rule="nonzero"/><path fill="#b2902f" d="M 581.867188 153.953125 C 581.867188 153 582.535156 151.835938 583.359375 151.359375 C 583.863281 151.066406 584.359375 151.082031 584.664062 151.390625 C 584.871094 151.601562 584.976562 151.914062 584.976562 152.300781 C 584.96875 153.25 584.300781 154.414062 583.484375 154.894531 C 583.242188 155.035156 583.003906 155.105469 582.785156 155.105469 C 582.226562 155.105469 581.867188 154.65625 581.867188 153.953125 Z M 583.492188 151.589844 C 582.738281 152.019531 582.128906 153.082031 582.128906 153.953125 C 582.128906 154.5 582.378906 154.839844 582.785156 154.839844 C 582.953125 154.839844 583.152344 154.78125 583.351562 154.664062 C 584.082031 154.238281 584.707031 153.152344 584.710938 152.300781 C 584.710938 151.984375 584.632812 151.738281 584.480469 151.582031 C 584.371094 151.46875 584.230469 151.414062 584.058594 151.414062 C 583.886719 151.414062 583.691406 151.476562 583.492188 151.589844 Z M 583.492188 151.589844 " fill-opacity="1" fill-rule="nonzero"/><path fill="#9e6b39" d="M 561.394531 134.855469 L 561.394531 152.976562 L 598.652344 131.445312 L 598.652344 113.324219 Z M 561.394531 134.855469 " fill-opacity="1" fill-rule="nonzero"/><path fill="#916431" d="M 598.652344 113.324219 L 561.394531 134.855469 L 561.394531 152.976562 " fill-opacity="1" fill-rule="nonzero"/><path fill="#c47e3f" d="M 561.398438 134.886719 L 598.660156 113.359375 L 597.300781 112.574219 L 560.042969 134.109375 Z M 561.398438 134.886719 " fill-opacity="1" fill-rule="nonzero"/><path fill="#72461a" d="M 560.042969 134.109375 L 560.042969 152.1875 L 561.398438 152.976562 L 561.398438 134.886719 Z M 560.042969 134.109375 " fill-opacity="1" fill-rule="nonzero"/><path fill="#72461a" d="M 582.570312 130.789062 L 581.6875 130.277344 C 581.453125 130.136719 581.132812 130.148438 580.78125 130.355469 C 580.082031 130.757812 579.511719 131.75 579.511719 132.558594 C 579.511719 132.976562 579.667969 133.261719 579.910156 133.390625 L 579.910156 133.394531 L 580.847656 133.933594 L 580.847656 133.925781 C 581.074219 134.042969 581.378906 134.023438 581.714844 133.828125 C 582.40625 133.421875 582.980469 132.429688 582.984375 131.625 C 582.984375 131.199219 582.824219 130.910156 582.570312 130.789062 Z M 582.570312 130.789062 " fill-opacity="1" fill-rule="nonzero"/><path fill="#332816" d="M 584.070312 131.824219 L 582.59375 130.972656 C 582.210938 130.738281 581.679688 130.757812 581.085938 131.101562 C 579.921875 131.773438 578.972656 133.425781 578.972656 134.769531 C 578.972656 135.472656 579.230469 135.949219 579.640625 136.160156 L 579.640625 136.167969 L 581.199219 137.070312 L 581.199219 137.054688 C 581.578125 137.253906 582.085938 137.21875 582.644531 136.890625 C 583.800781 136.214844 584.753906 134.5625 584.757812 133.222656 C 584.761719 132.507812 584.492188 132.027344 584.070312 131.824219 Z M 584.070312 131.824219 " fill-opacity="0.298" fill-rule="nonzero"/><path fill="#b2902f" d="M 579.757812 133.933594 C 579.757812 132.59375 580.703125 130.945312 581.863281 130.277344 C 582.453125 129.9375 582.984375 129.914062 583.363281 130.148438 L 584.910156 131.042969 L 584.910156 134.160156 L 583.328125 135.101562 L 583.328125 133.578125 C 582.972656 134.191406 582.5 134.722656 581.976562 135.0625 L 581.976562 136.21875 L 580.421875 135.324219 L 580.421875 135.316406 C 580.011719 135.105469 579.757812 134.632812 579.757812 133.933594 Z M 579.757812 133.933594 " fill-opacity="1" fill-rule="nonzero"/><path fill="#edc85f" d="M 583.417969 136.046875 C 584.566406 135.375 585.515625 133.726562 585.519531 132.386719 C 585.527344 131.050781 584.585938 130.503906 583.425781 131.171875 C 582.269531 131.84375 581.324219 133.484375 581.324219 134.828125 C 581.320312 136.171875 582.265625 136.71875 583.417969 136.046875 Z M 583.417969 136.046875 " fill-opacity="1" fill-rule="nonzero"/><path fill="#d1b14a" d="M 583.425781 131.175781 C 582.269531 131.84375 581.320312 133.488281 581.320312 134.832031 C 581.320312 136.171875 582.265625 136.71875 583.414062 136.046875 " fill-opacity="1" fill-rule="nonzero"/><path fill="#b2902f" d="M 581.867188 134.4375 C 581.867188 133.480469 582.535156 132.316406 583.359375 131.84375 C 583.863281 131.546875 584.359375 131.566406 584.664062 131.875 C 584.871094 132.082031 584.976562 132.394531 584.976562 132.785156 C 584.96875 133.734375 584.300781 134.898438 583.484375 135.375 C 583.242188 135.515625 583.003906 135.589844 582.785156 135.589844 C 582.226562 135.589844 581.867188 135.136719 581.867188 134.4375 Z M 583.492188 132.070312 C 582.738281 132.503906 582.128906 133.566406 582.128906 134.4375 C 582.128906 134.984375 582.378906 135.324219 582.785156 135.324219 C 582.953125 135.324219 583.152344 135.265625 583.351562 135.148438 C 584.082031 134.71875 584.707031 133.636719 584.710938 132.785156 C 584.710938 132.46875 584.632812 132.21875 584.480469 132.066406 C 584.371094 131.953125 584.230469 131.898438 584.058594 131.898438 C 583.886719 131.894531 583.691406 131.957031 583.492188 132.070312 Z M 583.492188 132.070312 " fill-opacity="1" fill-rule="nonzero"/><path fill="#9e6b39" d="M 561.394531 115.339844 L 561.394531 133.460938 L 598.652344 111.925781 L 598.652344 93.808594 Z M 561.394531 115.339844 " fill-opacity="1" fill-rule="nonzero"/><path fill="#916431" d="M 598.652344 93.808594 L 561.394531 115.339844 L 561.394531 133.460938 " fill-opacity="1" fill-rule="nonzero"/><path fill="#c47e3f" d="M 561.398438 115.371094 L 598.660156 93.839844 L 597.300781 93.058594 L 560.042969 114.589844 Z M 561.398438 115.371094 " fill-opacity="1" fill-rule="nonzero"/><path fill="#72461a" d="M 560.042969 114.589844 L 560.042969 132.667969 L 561.398438 133.460938 L 561.398438 115.371094 Z M 560.042969 114.589844 " fill-opacity="1" fill-rule="nonzero"/><path fill="#72461a" d="M 582.570312 111.269531 L 581.6875 110.757812 C 581.453125 110.617188 581.132812 110.628906 580.78125 110.835938 C 580.082031 111.238281 579.511719 112.230469 579.511719 113.039062 C 579.511719 113.457031 579.667969 113.746094 579.910156 113.871094 L 579.910156 113.875 L 580.847656 114.414062 L 580.847656 114.40625 C 581.074219 114.523438 581.378906 114.503906 581.714844 114.308594 C 582.40625 113.902344 582.980469 112.914062 582.984375 112.105469 C 582.984375 111.679688 582.824219 111.394531 582.570312 111.269531 Z M 582.570312 111.269531 " fill-opacity="1" fill-rule="nonzero"/><path fill="#332816" d="M 584.070312 112.308594 L 582.59375 111.457031 C 582.210938 111.222656 581.679688 111.242188 581.085938 111.585938 C 579.921875 112.257812 578.972656 113.90625 578.972656 115.253906 C 578.972656 115.957031 579.230469 116.433594 579.640625 116.644531 L 579.640625 116.65625 L 581.199219 117.554688 L 581.199219 117.539062 C 581.578125 117.738281 582.085938 117.703125 582.644531 117.375 C 583.800781 116.699219 584.753906 115.046875 584.757812 113.707031 C 584.761719 112.992188 584.492188 112.511719 584.070312 112.308594 Z M 584.070312 112.308594 " fill-opacity="0.298" fill-rule="nonzero"/><path fill="#b2902f" d="M 579.757812 114.414062 C 579.757812 113.074219 580.703125 111.429688 581.863281 110.761719 C 582.453125 110.417969 582.984375 110.398438 583.363281 110.632812 L 584.910156 111.527344 L 584.910156 114.644531 L 583.328125 115.582031 L 583.328125 114.058594 C 582.972656 114.671875 582.5 115.207031 581.976562 115.542969 L 581.976562 116.699219 L 580.421875 115.804688 L 580.421875 115.796875 C 580.011719 115.589844 579.757812 115.113281 579.757812 114.414062 Z M 579.757812 114.414062 " fill-opacity="1" fill-rule="nonzero"/><path fill="#edc85f" d="M 583.417969 116.527344 C 584.566406 115.855469 585.515625 114.210938 585.519531 112.871094 C 585.527344 111.535156 584.585938 110.988281 583.425781 111.65625 C 582.269531 112.324219 581.324219 113.96875 581.324219 115.3125 C 581.320312 116.652344 582.265625 117.199219 583.417969 116.527344 Z M 583.417969 116.527344 " fill-opacity="1" fill-rule="nonzero"/><path fill="#d1b14a" d="M 583.425781 111.660156 C 582.269531 112.324219 581.320312 113.96875 581.320312 115.3125 C 581.320312 116.65625 582.265625 117.199219 583.414062 116.53125 " fill-opacity="1" fill-rule="nonzero"/><path fill="#b2902f" d="M 581.867188 114.921875 C 581.867188 113.964844 582.535156 112.800781 583.359375 112.328125 C 583.863281 112.035156 584.359375 112.050781 584.664062 112.359375 C 584.871094 112.566406 584.976562 112.878906 584.976562 113.265625 C 584.96875 114.21875 584.300781 115.382812 583.484375 115.859375 C 583.242188 116.003906 583.003906 116.074219 582.785156 116.074219 C 582.226562 116.074219 581.867188 115.621094 581.867188 114.921875 Z M 583.492188 112.554688 C 582.738281 112.988281 582.128906 114.050781 582.128906 114.921875 C 582.128906 115.46875 582.378906 115.808594 582.785156 115.808594 C 582.953125 115.808594 583.152344 115.746094 583.351562 115.632812 C 584.082031 115.203125 584.707031 114.121094 584.710938 113.265625 C 584.710938 112.953125 584.632812 112.703125 584.480469 112.550781 C 584.371094 112.4375 584.230469 112.382812 584.058594 112.382812 C 583.886719 112.378906 583.691406 112.441406 583.492188 112.554688 Z M 583.492188 112.554688 " fill-opacity="1" fill-rule="nonzero"/><path fill="#b7733b" d="M 603.78125 89.164062 L 603.78125 127.980469 L 641.042969 106.449219 L 607.457031 87.042969 Z M 603.78125 89.164062 " fill-opacity="1" fill-rule="nonzero"/><path fill="#af6935" d="M 622.074219 95.488281 L 607.457031 87.042969 L 603.78125 89.164062 L 603.78125 106.0625 Z M 622.074219 95.488281 " fill-opacity="1" fill-rule="nonzero"/><path fill="#c47e3f" d="M 603.78125 127.980469 L 641.042969 106.449219 L 641.042969 108.011719 L 603.78125 129.546875 Z M 603.78125 127.980469 " fill-opacity="1" fill-rule="nonzero"/></svg>