<svg xmlns="http://www.w3.org/2000/svg" xmlns:xlink="http://www.w3.org/1999/xlink" width="1000" zoomAndPan="magnify" viewBox="0 0 750 225" height="300" preserveAspectRatio="xMidYMid meet" version="1.0"><defs><g/><clipPath id="id1"><path d="M 0 70 L 750 70 L 750 225 L 0 225 Z M 0 70 " clip-rule="nonzero"/></clipPath><clipPath id="id2"><path d="M -10.050781 9.109375 L 747.816406 -14.996094 L 759.878906 364.3125 L 2.015625 388.417969 Z M -10.050781 9.109375 " clip-rule="nonzero"/></clipPath><clipPath id="id3"><path d="M 747.992188 -15 L -9.875 9.101562 L 2.191406 388.410156 L 760.054688 364.308594 Z M 747.992188 -15 " clip-rule="nonzero"/></clipPath><clipPath id="id4"><path d="M 493 163 L 684.867188 163 L 684.867188 190 L 493 190 Z M 493 163 " clip-rule="nonzero"/></clipPath><clipPath id="id5"><path d="M 493 189 L 684.867188 189 L 684.867188 196.941406 L 493 196.941406 Z M 493 189 " clip-rule="nonzero"/></clipPath><clipPath id="id6"><path d="M 513 15.441406 L 640 15.441406 L 640 151 L 513 151 Z M 513 15.441406 " clip-rule="nonzero"/></clipPath></defs><rect x="-75" width="900" fill="#ffffff" y="-22.5" height="270" fill-opacity="1"/><rect x="-75" width="900" fill="#ffffff" y="-22.5" height="270" fill-opacity="1"/><rect x="-75" width="900" fill="#ffffff" y="-22.5" height="270" fill-opacity="1"/><rect x="-75" width="900" fill="#ffffff" y="-22.5" height="270" fill-opacity="1"/><g clip-path="url(#id1)"><g clip-path="url(#id2)"><g clip-path="url(#id3)"><path fill="#f96b46" d="M 752.539062 127.953125 C 752.539062 127.953125 609.359375 -5.847656 373.394531 133.363281 C 137.429688 272.578125 -4.914062 165.09375 -4.914062 165.09375 L 2 382.488281 L 759.867188 358.382812 Z M 752.539062 127.953125 " fill-opacity="1" fill-rule="nonzero"/></g></g></g><path fill="#322f30" d="M 515.585938 163.175781 L 658.078125 163.175781 L 658.078125 68.707031 L 515.585938 68.707031 Z M 515.585938 163.175781 " fill-opacity="1" fill-rule="nonzero"/><path fill="#aae3ee" d="M 520.3125 157.953125 L 653.347656 157.953125 L 653.347656 75.886719 L 520.3125 75.886719 Z M 520.3125 157.953125 " fill-opacity="1" fill-rule="nonzero"/><g clip-path="url(#id4)"><path fill="#353132" d="M 658.078125 163.175781 L 515.585938 163.175781 L 493.195312 189.425781 L 684.542969 189.425781 L 658.078125 163.175781 " fill-opacity="1" fill-rule="nonzero"/></g><path fill="#ffffff" d="M 526.257812 168.527344 L 517.875 168.527344 L 520.265625 165.417969 L 528.328125 165.417969 L 526.257812 168.527344 " fill-opacity="1" fill-rule="nonzero"/><path fill="#ffffff" d="M 539.292969 168.527344 L 530.910156 168.527344 L 532.808594 165.417969 L 540.871094 165.417969 L 539.292969 168.527344 " fill-opacity="1" fill-rule="nonzero"/><path fill="#ffffff" d="M 552.328125 168.527344 L 543.945312 168.527344 L 545.351562 165.417969 L 553.410156 165.417969 L 552.328125 168.527344 " fill-opacity="1" fill-rule="nonzero"/><path fill="#ffffff" d="M 565.363281 168.527344 L 556.984375 168.527344 L 557.890625 165.417969 L 565.953125 165.417969 L 565.363281 168.527344 " fill-opacity="1" fill-rule="nonzero"/><path fill="#ffffff" d="M 578.402344 168.527344 L 570.019531 168.527344 L 570.433594 165.417969 L 578.496094 165.417969 L 578.402344 168.527344 " fill-opacity="1" fill-rule="nonzero"/><path fill="#ffffff" d="M 591.4375 168.527344 L 583.058594 168.527344 L 582.976562 165.417969 L 591.035156 165.417969 L 591.4375 168.527344 " fill-opacity="1" fill-rule="nonzero"/><path fill="#ffffff" d="M 604.472656 168.527344 L 596.09375 168.527344 L 595.515625 165.417969 L 603.582031 165.417969 L 604.472656 168.527344 " fill-opacity="1" fill-rule="nonzero"/><path fill="#ffffff" d="M 617.511719 168.527344 L 609.128906 168.527344 L 608.058594 165.417969 L 616.121094 165.417969 L 617.511719 168.527344 " fill-opacity="1" fill-rule="nonzero"/><path fill="#ffffff" d="M 630.546875 168.527344 L 622.167969 168.527344 L 620.601562 165.417969 L 628.664062 165.417969 L 630.546875 168.527344 " fill-opacity="1" fill-rule="nonzero"/><path fill="#ffffff" d="M 643.582031 168.527344 L 635.203125 168.527344 L 633.144531 165.417969 L 641.207031 165.417969 L 643.582031 168.527344 " fill-opacity="1" fill-rule="nonzero"/><path fill="#ffffff" d="M 656.621094 168.527344 L 648.238281 168.527344 L 645.683594 165.417969 L 653.746094 165.417969 L 656.621094 168.527344 " fill-opacity="1" fill-rule="nonzero"/><path fill="#ffffff" d="M 523.148438 173.1875 L 514.289062 173.1875 L 516.679688 170.082031 L 525.21875 170.082031 L 523.148438 173.1875 " fill-opacity="1" fill-rule="nonzero"/><path fill="#ffffff" d="M 536.925781 173.1875 L 528.066406 173.1875 L 529.964844 170.082031 L 538.503906 170.082031 L 536.925781 173.1875 " fill-opacity="1" fill-rule="nonzero"/><path fill="#ffffff" d="M 550.703125 173.1875 L 541.84375 173.1875 L 543.246094 170.082031 L 551.789062 170.082031 L 550.703125 173.1875 " fill-opacity="1" fill-rule="nonzero"/><path fill="#ffffff" d="M 564.480469 173.1875 L 555.625 173.1875 L 556.527344 170.082031 L 565.070312 170.082031 L 564.480469 173.1875 " fill-opacity="1" fill-rule="nonzero"/><path fill="#ffffff" d="M 578.261719 173.1875 L 569.402344 173.1875 L 569.816406 170.082031 L 578.351562 170.082031 L 578.261719 173.1875 " fill-opacity="1" fill-rule="nonzero"/><path fill="#ffffff" d="M 592.039062 173.1875 L 583.179688 173.1875 L 583.097656 170.082031 L 591.640625 170.082031 L 592.039062 173.1875 " fill-opacity="1" fill-rule="nonzero"/><path fill="#ffffff" d="M 605.820312 173.1875 L 596.960938 173.1875 L 596.382812 170.082031 L 604.921875 170.082031 L 605.820312 173.1875 " fill-opacity="1" fill-rule="nonzero"/><path fill="#ffffff" d="M 619.59375 173.1875 L 610.738281 173.1875 L 609.667969 170.082031 L 618.207031 170.082031 L 619.59375 173.1875 " fill-opacity="1" fill-rule="nonzero"/><path fill="#ffffff" d="M 633.375 173.1875 L 624.515625 173.1875 L 622.949219 170.082031 L 631.488281 170.082031 L 633.375 173.1875 " fill-opacity="1" fill-rule="nonzero"/><path fill="#ffffff" d="M 647.152344 173.1875 L 638.296875 173.1875 L 636.230469 170.082031 L 644.773438 170.082031 L 647.152344 173.1875 " fill-opacity="1" fill-rule="nonzero"/><path fill="#ffffff" d="M 660.929688 173.1875 L 652.074219 173.1875 L 649.519531 170.082031 L 658.054688 170.082031 L 660.929688 173.1875 " fill-opacity="1" fill-rule="nonzero"/><path fill="#ffffff" d="M 520.035156 177.851562 L 510.699219 177.851562 L 513.09375 174.742188 L 522.109375 174.742188 L 520.035156 177.851562 " fill-opacity="1" fill-rule="nonzero"/><path fill="#ffffff" d="M 534.554688 177.851562 L 525.21875 177.851562 L 527.117188 174.742188 L 536.136719 174.742188 L 534.554688 177.851562 " fill-opacity="1" fill-rule="nonzero"/><path fill="#ffffff" d="M 549.078125 177.851562 L 539.742188 177.851562 L 541.144531 174.742188 L 550.160156 174.742188 L 549.078125 177.851562 " fill-opacity="1" fill-rule="nonzero"/><path fill="#ffffff" d="M 563.597656 177.851562 L 554.261719 177.851562 L 555.171875 174.742188 L 564.1875 174.742188 L 563.597656 177.851562 " fill-opacity="1" fill-rule="nonzero"/><path fill="#ffffff" d="M 578.117188 177.851562 L 568.78125 177.851562 L 569.199219 174.742188 L 578.210938 174.742188 L 578.117188 177.851562 " fill-opacity="1" fill-rule="nonzero"/><path fill="#ffffff" d="M 592.636719 177.851562 L 583.304688 177.851562 L 583.222656 174.742188 L 592.234375 174.742188 L 592.636719 177.851562 " fill-opacity="1" fill-rule="nonzero"/><path fill="#ffffff" d="M 607.160156 177.851562 L 597.824219 177.851562 L 597.25 174.742188 L 606.261719 174.742188 L 607.160156 177.851562 " fill-opacity="1" fill-rule="nonzero"/><path fill="#ffffff" d="M 621.679688 177.851562 L 612.339844 177.851562 L 611.277344 174.742188 L 620.289062 174.742188 L 621.679688 177.851562 " fill-opacity="1" fill-rule="nonzero"/><path fill="#ffffff" d="M 636.203125 177.851562 L 626.867188 177.851562 L 625.300781 174.742188 L 634.316406 174.742188 L 636.203125 177.851562 " fill-opacity="1" fill-rule="nonzero"/><path fill="#ffffff" d="M 650.71875 177.851562 L 641.386719 177.851562 L 639.324219 174.742188 L 648.34375 174.742188 L 650.71875 177.851562 " fill-opacity="1" fill-rule="nonzero"/><path fill="#ffffff" d="M 665.238281 177.851562 L 655.90625 177.851562 L 653.347656 174.742188 L 662.367188 174.742188 L 665.238281 177.851562 " fill-opacity="1" fill-rule="nonzero"/><path fill="#ffffff" d="M 516.921875 182.515625 L 507.113281 182.515625 L 509.503906 179.40625 L 518.996094 179.40625 L 516.921875 182.515625 " fill-opacity="1" fill-rule="nonzero"/><path fill="#ffffff" d="M 532.1875 182.515625 L 522.375 182.515625 L 524.273438 179.40625 L 533.765625 179.40625 L 532.1875 182.515625 " fill-opacity="1" fill-rule="nonzero"/><path fill="#ffffff" d="M 547.453125 182.515625 L 537.636719 182.515625 L 539.039062 179.40625 L 548.535156 179.40625 L 547.453125 182.515625 " fill-opacity="1" fill-rule="nonzero"/><path fill="#ffffff" d="M 562.710938 182.515625 L 552.898438 182.515625 L 553.808594 179.40625 L 563.304688 179.40625 L 562.710938 182.515625 " fill-opacity="1" fill-rule="nonzero"/><path fill="#ffffff" d="M 577.976562 182.515625 L 568.160156 182.515625 L 568.574219 179.40625 L 578.070312 179.40625 L 577.976562 182.515625 " fill-opacity="1" fill-rule="nonzero"/><path fill="#ffffff" d="M 593.238281 182.515625 L 583.425781 182.515625 L 583.34375 179.40625 L 592.839844 179.40625 L 593.238281 182.515625 " fill-opacity="1" fill-rule="nonzero"/><path fill="#ffffff" d="M 608.503906 182.515625 L 598.6875 182.515625 L 598.113281 179.40625 L 607.605469 179.40625 L 608.503906 182.515625 " fill-opacity="1" fill-rule="nonzero"/><path fill="#ffffff" d="M 623.761719 182.515625 L 613.953125 182.515625 L 612.878906 179.40625 L 622.375 179.40625 L 623.761719 182.515625 " fill-opacity="1" fill-rule="nonzero"/><path fill="#ffffff" d="M 639.027344 182.515625 L 629.210938 182.515625 L 627.648438 179.40625 L 637.140625 179.40625 L 639.027344 182.515625 " fill-opacity="1" fill-rule="nonzero"/><path fill="#ffffff" d="M 654.289062 182.515625 L 644.476562 182.515625 L 642.417969 179.40625 L 651.910156 179.40625 L 654.289062 182.515625 " fill-opacity="1" fill-rule="nonzero"/><path fill="#ffffff" d="M 669.546875 182.515625 L 659.742188 182.515625 L 657.183594 179.40625 L 666.679688 179.40625 L 669.546875 182.515625 " fill-opacity="1" fill-rule="nonzero"/><path fill="#ffffff" d="M 513.816406 187.175781 L 503.527344 187.175781 L 505.917969 184.070312 L 515.890625 184.070312 L 513.816406 187.175781 " fill-opacity="1" fill-rule="nonzero"/><path fill="#ffffff" d="M 529.820312 187.175781 L 519.53125 187.175781 L 521.429688 184.070312 L 531.398438 184.070312 L 529.820312 187.175781 " fill-opacity="1" fill-rule="nonzero"/><path fill="#ffffff" d="M 545.828125 187.175781 L 535.535156 187.175781 L 536.9375 184.070312 L 546.910156 184.070312 L 545.828125 187.175781 " fill-opacity="1" fill-rule="nonzero"/><path fill="#ffffff" d="M 561.828125 187.175781 L 551.539062 187.175781 L 552.445312 184.070312 L 562.417969 184.070312 L 561.828125 187.175781 " fill-opacity="1" fill-rule="nonzero"/><path fill="#ffffff" d="M 625.847656 187.175781 L 615.558594 187.175781 L 614.484375 184.070312 L 624.457031 184.070312 L 625.847656 187.175781 " fill-opacity="1" fill-rule="nonzero"/><path fill="#ffffff" d="M 641.855469 187.175781 L 631.566406 187.175781 L 629.996094 184.070312 L 639.964844 184.070312 L 641.855469 187.175781 " fill-opacity="1" fill-rule="nonzero"/><path fill="#ffffff" d="M 657.855469 187.175781 L 647.566406 187.175781 L 645.507812 184.070312 L 655.480469 184.070312 L 657.855469 187.175781 " fill-opacity="1" fill-rule="nonzero"/><path fill="#ffffff" d="M 673.863281 187.175781 L 663.570312 187.175781 L 661.015625 184.070312 L 670.988281 184.070312 L 673.863281 187.175781 " fill-opacity="1" fill-rule="nonzero"/><path fill="#ffffff" d="M 609.84375 187.175781 L 567.542969 187.175781 L 567.957031 184.070312 L 608.949219 184.070312 L 609.84375 187.175781 " fill-opacity="1" fill-rule="nonzero"/><g clip-path="url(#id5)"><path fill="#393536" d="M 684.542969 196.933594 L 493.195312 196.933594 L 493.195312 189.425781 L 684.542969 189.425781 L 684.542969 196.933594 " fill-opacity="1" fill-rule="nonzero"/></g><path fill="#4e5152" d="M 588.625 72.347656 C 588.625 73.339844 587.820312 74.140625 586.832031 74.140625 C 585.84375 74.140625 585.039062 73.339844 585.039062 72.347656 C 585.039062 71.355469 585.84375 70.554688 586.832031 70.554688 C 587.820312 70.554688 588.625 71.355469 588.625 72.347656 " fill-opacity="1" fill-rule="nonzero"/><path fill="#f5c116" d="M 511.675781 191.523438 C 511.675781 192.191406 511.136719 192.722656 510.472656 192.722656 C 509.8125 192.722656 509.273438 192.191406 509.273438 191.523438 C 509.273438 190.859375 509.8125 190.324219 510.472656 190.324219 C 511.136719 190.324219 511.675781 190.859375 511.675781 191.523438 " fill-opacity="1" fill-rule="nonzero"/><path fill="#f5c116" d="M 514.886719 191.523438 C 514.886719 192.191406 514.347656 192.722656 513.683594 192.722656 C 513.019531 192.722656 512.484375 192.191406 512.484375 191.523438 C 512.484375 190.859375 513.019531 190.324219 513.683594 190.324219 C 514.347656 190.324219 514.886719 190.859375 514.886719 191.523438 " fill-opacity="1" fill-rule="nonzero"/><path fill="#f5c116" d="M 518.09375 191.523438 C 518.09375 192.191406 517.558594 192.722656 516.894531 192.722656 C 516.230469 192.722656 515.695312 192.191406 515.695312 191.523438 C 515.695312 190.859375 516.230469 190.324219 516.894531 190.324219 C 517.558594 190.324219 518.09375 190.859375 518.09375 191.523438 " fill-opacity="1" fill-rule="nonzero"/><path fill="#ed1c24" d="M 633.4375 192.671875 C 633.4375 193.609375 632.675781 194.367188 631.746094 194.367188 L 623.550781 194.367188 C 622.617188 194.367188 621.855469 193.609375 621.855469 192.671875 C 621.855469 191.738281 622.617188 190.980469 623.550781 190.980469 L 631.746094 190.980469 C 632.675781 190.980469 633.4375 191.738281 633.4375 192.671875 " fill-opacity="1" fill-rule="nonzero"/><path fill="#d08d64" d="M 590.609375 104.539062 C 589.925781 105.792969 590.390625 107.355469 591.648438 108.03125 L 598.105469 111.496094 C 599.363281 112.175781 600.933594 111.707031 601.613281 110.457031 C 602.296875 109.207031 601.832031 107.640625 600.578125 106.964844 L 594.117188 103.5 C 592.859375 102.820312 591.289062 103.285156 590.609375 104.539062 " fill-opacity="1" fill-rule="nonzero"/><path fill="#d08d64" d="M 599.222656 108.410156 C 598.058594 109.242188 597.796875 110.851562 598.628906 112.007812 L 603.800781 119.265625 C 604.636719 120.417969 606.25 120.683594 607.414062 119.851562 C 608.574219 119.015625 609.585938 117.007812 608.757812 115.851562 L 602.832031 108.996094 C 602 107.84375 600.382812 107.578125 599.222656 108.410156 " fill-opacity="1" fill-rule="nonzero"/><path fill="#d08d64" d="M 581.121094 102.535156 C 580.777344 103.917969 581.621094 105.316406 583.011719 105.65625 L 590.136719 107.390625 C 591.523438 107.730469 592.929688 106.886719 593.273438 105.503906 C 593.617188 104.117188 592.773438 102.726562 591.386719 102.386719 L 584.257812 100.652344 C 582.871094 100.3125 581.46875 101.15625 581.121094 102.535156 " fill-opacity="1" fill-rule="nonzero"/><path fill="#dd966b" d="M 588.398438 98.550781 C 587.773438 100.078125 588.503906 101.816406 590.035156 102.4375 L 597.898438 105.609375 C 599.425781 106.230469 601.175781 105.496094 601.804688 103.972656 C 602.425781 102.449219 601.695312 100.707031 600.167969 100.085938 L 592.304688 96.914062 C 590.773438 96.296875 589.023438 97.027344 588.398438 98.550781 " fill-opacity="1" fill-rule="nonzero"/><path fill="#dd966b" d="M 598.949219 102.183594 C 597.78125 103.347656 597.777344 105.238281 598.949219 106.398438 L 606.222656 113.703125 C 607.386719 114.867188 609.285156 114.867188 610.453125 113.699219 C 611.621094 112.535156 611.621094 110.644531 610.457031 109.480469 L 603.179688 102.175781 C 602.011719 101.015625 600.117188 101.015625 598.949219 102.183594 " fill-opacity="1" fill-rule="nonzero"/><path fill="#dd966b" d="M 576.765625 98.226562 C 576.632812 99.867188 577.859375 101.304688 579.507812 101.433594 L 587.96875 102.074219 C 589.613281 102.203125 591.058594 100.976562 591.191406 99.335938 C 591.324219 97.695312 590.097656 96.261719 588.449219 96.128906 L 579.988281 95.488281 C 578.339844 95.359375 576.898438 96.582031 576.765625 98.226562 " fill-opacity="1" fill-rule="nonzero"/><path fill="#ea9f71" d="M 588.15625 93.171875 C 587.550781 94.90625 588.46875 96.804688 590.214844 97.40625 L 599.175781 100.46875 C 600.914062 101.070312 602.824219 100.148438 603.425781 98.410156 C 604.03125 96.671875 603.113281 94.78125 601.367188 94.179688 L 592.40625 91.113281 C 590.664062 90.515625 588.761719 91.433594 588.15625 93.171875 " fill-opacity="1" fill-rule="nonzero"/><path fill="#ea9f71" d="M 600.414062 97.023438 C 599.109375 98.328125 599.109375 100.433594 600.414062 101.730469 L 608.539062 109.886719 C 609.839844 111.191406 611.957031 111.1875 613.261719 109.882812 C 614.566406 108.578125 614.566406 106.476562 613.265625 105.175781 L 605.140625 97.019531 C 603.835938 95.71875 601.722656 95.71875 600.414062 97.023438 " fill-opacity="1" fill-rule="nonzero"/><path fill="#ea9f71" d="M 575.644531 92.605469 C 575.496094 94.4375 576.867188 96.039062 578.707031 96.183594 L 588.152344 96.902344 C 589.996094 97.046875 591.605469 95.679688 591.753906 93.847656 C 591.902344 92.015625 590.53125 90.410156 588.695312 90.265625 L 579.242188 89.546875 C 577.40625 89.402344 575.792969 90.769531 575.644531 92.605469 " fill-opacity="1" fill-rule="nonzero"/><path fill="#f9a979" d="M 631.992188 135.507812 L 632.382812 136.71875 L 613.902344 144.925781 C 613.136719 143.917969 611.820312 142.269531 610.070312 140.332031 C 607.195312 137.15625 600.835938 132.664062 596.859375 129.828125 C 592.882812 127 587.59375 123.039062 587.59375 123.039062 C 585.726562 121.9375 581.574219 118.769531 581.574219 118.769531 C 576.457031 115.050781 574.253906 115.050781 574.257812 113.074219 C 574.257812 110.171875 576.941406 107.265625 580.585938 108.382812 C 584.230469 109.5 588.023438 111.054688 592.746094 114.265625 C 596.894531 117.089844 600.367188 118.398438 604.980469 116.761719 C 606.632812 115.96875 611.308594 108.347656 607.8125 104.328125 C 603.972656 99.90625 602.304688 98.023438 602.304688 98.023438 C 602.304688 98.023438 599.675781 94.695312 596.777344 93.707031 C 593.886719 92.714844 591.515625 91.6875 591.515625 91.6875 L 584.433594 90.628906 C 579.769531 90.273438 577.585938 89.839844 577.929688 86.460938 C 578.273438 83.085938 581.054688 83 581.054688 83 C 581.054688 83 588.796875 83.554688 593.171875 84.171875 C 597.550781 84.789062 604.203125 87.960938 604.203125 87.960938 C 606.144531 89.082031 607.6875 90.710938 609.921875 92.898438 C 613.425781 96.324219 617.246094 99.355469 620.566406 103.273438 C 623.292969 106.496094 626.691406 115.367188 627.226562 121.160156 C 627.761719 126.953125 631.992188 135.507812 631.992188 135.507812 " fill-opacity="1" fill-rule="nonzero"/><g clip-path="url(#id6)"><path fill="#f4f4f4" d="M 581.734375 150.179688 L 513.164062 106.476562 L 571.152344 15.425781 L 639.71875 59.128906 L 581.734375 150.179688 " fill-opacity="1" fill-rule="nonzero"/></g><path fill="#fabb18" d="M 579.984375 144.265625 L 580.914062 142.804688 L 521.648438 105.03125 L 573.425781 23.730469 L 631.238281 60.570312 L 578.523438 143.335938 L 579.984375 144.265625 L 580.914062 142.804688 L 579.984375 144.265625 L 581.445312 145.195312 L 636.019531 59.511719 L 572.367188 18.949219 L 516.867188 106.09375 L 580.515625 146.65625 L 581.445312 145.195312 L 579.984375 144.265625 " fill-opacity="1" fill-rule="nonzero"/><path fill="#f0402d" d="M 561.070312 128.109375 L 560.46875 123.871094 L 556.441406 122.429688 L 572.386719 109.417969 L 577.015625 115.089844 L 561.070312 128.109375 " fill-opacity="1" fill-rule="nonzero"/><path fill="#f0402d" d="M 569.472656 133.460938 L 573.5625 132.214844 L 576.566406 135.261719 L 581.621094 115.304688 L 574.527344 113.503906 L 569.472656 133.460938 " fill-opacity="1" fill-rule="nonzero"/><path fill="#fabb18" d="M 588.539062 118.316406 L 585.222656 119.058594 L 584.441406 122.363281 L 581.140625 121.585938 L 579.003906 124.226562 L 576.359375 122.097656 L 573.289062 123.550781 L 571.835938 120.476562 L 568.4375 120.457031 L 568.453125 117.058594 L 565.40625 115.5625 L 566.898438 112.511719 L 564.796875 109.839844 L 567.460938 107.738281 L 566.734375 104.421875 L 570.046875 103.679688 L 570.824219 100.378906 L 574.132812 101.152344 L 576.269531 98.511719 L 578.910156 100.640625 L 581.984375 99.1875 L 583.4375 102.261719 L 586.832031 102.28125 L 586.816406 105.679688 L 589.859375 107.175781 L 588.375 110.226562 L 590.472656 112.894531 L 587.808594 115 L 588.539062 118.316406 " fill-opacity="1" fill-rule="nonzero"/><path fill="#f89e1b" d="M 586.832031 117.234375 L 584.035156 117.855469 L 583.382812 120.644531 L 580.589844 119.992188 L 578.789062 122.21875 L 576.558594 120.421875 L 573.96875 121.648438 L 572.742188 119.054688 L 569.871094 119.039062 L 569.890625 116.171875 L 567.316406 114.90625 L 568.574219 112.332031 L 566.804688 110.078125 L 569.054688 108.304688 L 568.4375 105.503906 L 571.234375 104.882812 L 571.890625 102.09375 L 574.679688 102.746094 L 576.484375 100.515625 L 578.714844 102.316406 L 581.300781 101.089844 L 582.53125 103.679688 L 585.398438 103.699219 L 585.378906 106.566406 L 587.953125 107.828125 L 586.695312 110.40625 L 588.46875 112.65625 L 586.21875 114.433594 L 586.832031 117.234375 " fill-opacity="1" fill-rule="nonzero"/><path fill="#fabb18" d="M 585.195312 116.1875 L 582.898438 116.703125 L 582.359375 118.996094 L 580.066406 118.457031 L 578.585938 120.289062 L 576.75 118.808594 L 574.621094 119.816406 L 573.609375 117.6875 L 571.253906 117.671875 L 571.265625 115.316406 L 569.152344 114.277344 L 570.1875 112.160156 L 568.730469 110.308594 L 570.578125 108.851562 L 570.074219 106.546875 L 572.371094 106.035156 L 572.914062 103.742188 L 575.207031 104.28125 L 576.6875 102.453125 L 578.523438 103.925781 L 580.652344 102.917969 L 581.660156 105.050781 L 584.015625 105.066406 L 584.003906 107.421875 L 586.117188 108.460938 L 585.082031 110.578125 L 586.542969 112.425781 L 584.691406 113.886719 L 585.195312 116.1875 " fill-opacity="1" fill-rule="nonzero"/><path fill="#dfdfdf" d="M 611.589844 89.359375 L 555.648438 53.707031 L 556.367188 52.578125 L 612.308594 88.234375 L 611.589844 89.359375 " fill-opacity="1" fill-rule="nonzero"/><path fill="#dfdfdf" d="M 609.964844 91.917969 L 554.019531 56.261719 L 554.738281 55.136719 L 610.679688 90.789062 L 609.964844 91.917969 " fill-opacity="1" fill-rule="nonzero"/><path fill="#dfdfdf" d="M 608.335938 94.472656 L 552.390625 58.816406 L 553.109375 57.691406 L 609.054688 93.34375 L 608.335938 94.472656 " fill-opacity="1" fill-rule="nonzero"/><path fill="#dfdfdf" d="M 606.707031 97.027344 L 550.761719 61.371094 L 551.480469 60.246094 L 607.425781 95.898438 L 606.707031 97.027344 " fill-opacity="1" fill-rule="nonzero"/><path fill="#dfdfdf" d="M 605.078125 99.585938 L 549.136719 63.925781 L 549.855469 62.800781 L 605.796875 98.457031 L 605.078125 99.585938 " fill-opacity="1" fill-rule="nonzero"/><path fill="#dfdfdf" d="M 601.488281 105.226562 L 545.542969 69.570312 L 546.261719 68.445312 L 602.203125 104.101562 L 601.488281 105.226562 " fill-opacity="1" fill-rule="nonzero"/><path fill="#dfdfdf" d="M 599.859375 107.78125 L 543.914062 72.128906 L 544.632812 71 L 600.578125 106.652344 L 599.859375 107.78125 " fill-opacity="1" fill-rule="nonzero"/><path fill="#dfdfdf" d="M 571.171875 96.683594 L 540.660156 77.238281 L 541.375 76.113281 L 571.886719 95.554688 L 571.171875 96.683594 " fill-opacity="1" fill-rule="nonzero"/><path fill="#dfdfdf" d="M 569.542969 99.238281 L 539.03125 79.792969 L 539.75 78.664062 L 570.257812 98.113281 L 569.542969 99.238281 " fill-opacity="1" fill-rule="nonzero"/><path fill="#dfdfdf" d="M 568.027344 101.617188 L 537.519531 82.167969 L 538.238281 81.042969 L 568.742188 100.488281 L 568.027344 101.617188 " fill-opacity="1" fill-rule="nonzero"/><path fill="#f0402d" d="M 608.765625 79.1875 L 564.636719 51.0625 L 567.636719 46.359375 L 611.757812 74.480469 L 608.765625 79.1875 " fill-opacity="1" fill-rule="nonzero"/><path fill="#f0402d" d="M 616.414062 67.175781 L 572.289062 39.050781 L 573.46875 37.195312 L 617.59375 65.316406 L 616.414062 67.175781 " fill-opacity="1" fill-rule="nonzero"/><path fill="#f0402d" d="M 618.460938 63.957031 L 574.339844 35.832031 L 575.523438 33.976562 L 619.648438 62.097656 L 618.460938 63.957031 " fill-opacity="1" fill-rule="nonzero"/><path fill="#f9a979" d="M 632.382812 136.71875 L 613.902344 144.925781 C 613.136719 143.917969 611.820312 142.269531 610.070312 140.332031 C 607.195312 137.15625 600.835938 132.664062 596.859375 129.828125 C 592.882812 127 587.59375 123.039062 587.59375 123.039062 C 585.726562 121.9375 581.574219 118.769531 581.574219 118.769531 C 576.457031 115.050781 574.253906 115.050781 574.257812 113.074219 C 574.257812 110.171875 576.941406 107.265625 580.585938 108.382812 C 584.230469 109.5 588.023438 111.054688 592.746094 114.265625 C 596.414062 116.761719 599.550781 118.074219 603.410156 117.214844 L 629.199219 128.78125 C 630.40625 132.441406 631.992188 135.507812 631.992188 135.507812 L 632.382812 136.71875 " fill-opacity="1" fill-rule="nonzero"/><path fill="#ffffff" d="M 635.511719 137.859375 L 614.59375 149.667969 L 610.347656 142.152344 L 631.265625 130.339844 L 635.511719 137.859375 " fill-opacity="1" fill-rule="nonzero"/><path fill="#231f20" d="M 648.859375 158.253906 L 634.285156 132.722656 L 610.828125 145.964844 L 617.824219 158.253906 L 648.859375 158.253906 " fill-opacity="1" fill-rule="nonzero"/><g fill="#f96b46" fill-opacity="1"><g transform="translate(41.691173, 90.417846)"><g><path d="M 2.957031 0 L 10.957031 0 L 10.957031 -14.273438 L 21.589844 0 L 28.148438 0 L 28.148438 -27.988281 L 20.191406 -27.988281 L 20.191406 -13.792969 L 9.554688 -27.988281 L 2.957031 -27.988281 Z M 2.957031 0 "/></g></g></g><g fill="#f96b46" fill-opacity="1"><g transform="translate(72.829825, 90.417846)"><g><path d="M 16.59375 0.601562 C 25.507812 0.601562 31.824219 -5.4375 31.824219 -13.992188 C 31.824219 -22.550781 25.507812 -28.585938 16.59375 -28.585938 C 7.675781 -28.585938 1.359375 -22.550781 1.359375 -13.992188 C 1.359375 -5.4375 7.675781 0.601562 16.59375 0.601562 Z M 9.554688 -13.992188 C 9.554688 -18.191406 12.472656 -21.109375 16.59375 -21.109375 C 20.75 -21.109375 23.628906 -18.191406 23.628906 -13.992188 C 23.628906 -9.796875 20.75 -6.878906 16.59375 -6.878906 C 12.472656 -6.878906 9.554688 -9.796875 9.554688 -13.992188 Z M 9.554688 -13.992188 "/></g></g></g><g fill="#f96b46" fill-opacity="1"><g transform="translate(106.047055, 90.417846)"><g/></g></g><g fill="#f96b46" fill-opacity="1"><g transform="translate(115.280732, 90.417846)"><g><path d="M 16.03125 0.601562 C 23.75 0.601562 29.585938 -4.078125 30.785156 -11.195312 L 22.589844 -11.195312 C 21.589844 -8.554688 19.230469 -6.878906 16.191406 -6.878906 C 12.273438 -6.878906 9.554688 -9.796875 9.554688 -13.992188 C 9.554688 -18.230469 12.316406 -21.109375 16.273438 -21.109375 C 19.191406 -21.109375 21.628906 -19.472656 22.46875 -16.953125 L 30.625 -16.953125 C 29.1875 -24.03125 23.429688 -28.585938 15.953125 -28.585938 C 7.316406 -28.585938 1.359375 -22.628906 1.359375 -13.992188 C 1.359375 -5.359375 7.316406 0.601562 16.03125 0.601562 Z M 16.03125 0.601562 "/></g></g></g><g fill="#f96b46" fill-opacity="1"><g transform="translate(147.338756, 90.417846)"><g><path d="M 2.957031 0 L 22.589844 0 L 22.589844 -6.597656 L 10.957031 -6.597656 L 10.957031 -10.914062 L 21.070312 -10.914062 L 21.070312 -17.390625 L 10.957031 -17.390625 L 10.957031 -21.46875 L 22.148438 -21.46875 L 22.148438 -27.988281 L 2.957031 -27.988281 Z M 2.957031 0 "/></g></g></g><g fill="#f96b46" fill-opacity="1"><g transform="translate(171.72204, 90.417846)"><g><path d="M 2.957031 0 L 11.035156 0 L 11.035156 -7.957031 L 14.074219 -7.957031 L 18.070312 0 L 27.226562 0 L 22.070312 -9.4375 C 25.027344 -11.074219 26.707031 -14.035156 26.707031 -17.953125 C 26.707031 -24.148438 22.511719 -27.988281 15.714844 -27.988281 L 2.957031 -27.988281 Z M 10.875 -14.394531 L 10.875 -21.390625 L 14.632812 -21.390625 C 17.191406 -21.390625 18.59375 -20.152344 18.59375 -17.914062 C 18.59375 -15.671875 17.191406 -14.394531 14.632812 -14.394531 Z M 10.875 -14.394531 "/></g></g></g><g fill="#f96b46" fill-opacity="1"><g transform="translate(200.502316, 90.417846)"><g><path d="M 9.636719 0 L 17.671875 0 L 17.671875 -20.511719 L 26.1875 -20.511719 L 26.1875 -27.988281 L 1.121094 -27.988281 L 1.121094 -20.511719 L 9.636719 -20.511719 Z M 9.636719 0 "/></g></g></g><g fill="#f96b46" fill-opacity="1"><g transform="translate(227.803604, 90.417846)"><g><path d="M 2.957031 0 L 11.035156 0 L 11.035156 -27.988281 L 2.957031 -27.988281 Z M 2.957031 0 "/></g></g></g><g fill="#f96b46" fill-opacity="1"><g transform="translate(241.794017, 90.417846)"><g><path d="M 2.957031 0 L 11.035156 0 L 11.035156 -8.316406 L 20.390625 -8.316406 L 20.390625 -15.3125 L 11.035156 -15.3125 L 11.035156 -20.789062 L 21.429688 -20.789062 L 21.429688 -27.988281 L 2.957031 -27.988281 Z M 2.957031 0 "/></g></g></g><g fill="#f96b46" fill-opacity="1"><g transform="translate(264.738299, 90.417846)"><g><path d="M 2.957031 0 L 11.035156 0 L 11.035156 -27.988281 L 2.957031 -27.988281 Z M 2.957031 0 "/></g></g></g><g fill="#f96b46" fill-opacity="1"><g transform="translate(278.7287, 90.417846)"><g><path d="M 16.03125 0.601562 C 23.75 0.601562 29.585938 -4.078125 30.785156 -11.195312 L 22.589844 -11.195312 C 21.589844 -8.554688 19.230469 -6.878906 16.191406 -6.878906 C 12.273438 -6.878906 9.554688 -9.796875 9.554688 -13.992188 C 9.554688 -18.230469 12.316406 -21.109375 16.273438 -21.109375 C 19.191406 -21.109375 21.628906 -19.472656 22.46875 -16.953125 L 30.625 -16.953125 C 29.1875 -24.03125 23.429688 -28.585938 15.953125 -28.585938 C 7.316406 -28.585938 1.359375 -22.628906 1.359375 -13.992188 C 1.359375 -5.359375 7.316406 0.601562 16.03125 0.601562 Z M 16.03125 0.601562 "/></g></g></g><g fill="#f96b46" fill-opacity="1"><g transform="translate(310.786713, 90.417846)"><g><path d="M 0.199219 0 L 8.757812 0 L 10.277344 -3.957031 L 19.832031 -3.957031 L 21.351562 0 L 29.945312 0 L 19.070312 -27.988281 L 11.074219 -27.988281 Z M 11.953125 -9.875 L 15.074219 -18.550781 L 18.191406 -9.875 Z M 11.953125 -9.875 "/></g></g></g><g fill="#f96b46" fill-opacity="1"><g transform="translate(340.926055, 90.417846)"><g><path d="M 9.636719 0 L 17.671875 0 L 17.671875 -20.511719 L 26.1875 -20.511719 L 26.1875 -27.988281 L 1.121094 -27.988281 L 1.121094 -20.511719 L 9.636719 -20.511719 Z M 9.636719 0 "/></g></g></g><g fill="#f96b46" fill-opacity="1"><g transform="translate(368.227354, 90.417846)"><g><path d="M 2.957031 0 L 22.589844 0 L 22.589844 -6.597656 L 10.957031 -6.597656 L 10.957031 -10.914062 L 21.070312 -10.914062 L 21.070312 -17.390625 L 10.957031 -17.390625 L 10.957031 -21.46875 L 22.148438 -21.46875 L 22.148438 -27.988281 L 2.957031 -27.988281 Z M 2.957031 0 "/></g></g></g><g fill="#f96b46" fill-opacity="1"><g transform="translate(392.610638, 90.417846)"><g><path d="M 12.996094 0.601562 C 19.953125 0.601562 24.070312 -2.679688 24.070312 -8.195312 C 24.070312 -12.835938 21.070312 -15.554688 14.273438 -17.074219 C 10.675781 -17.871094 9.355469 -18.75 9.355469 -20.191406 C 9.355469 -21.550781 10.554688 -22.390625 12.433594 -22.390625 C 14.671875 -22.390625 15.953125 -21.230469 15.953125 -19.113281 L 23.550781 -19.113281 C 23.550781 -24.867188 19.152344 -28.585938 12.273438 -28.585938 C 5.675781 -28.585938 1.597656 -25.308594 1.597656 -20.03125 C 1.597656 -15.3125 4.679688 -12.394531 10.996094 -11.195312 C 14.394531 -10.515625 16.03125 -9.476562 16.03125 -7.875 C 16.03125 -6.476562 14.832031 -5.675781 12.875 -5.675781 C 10.554688 -5.675781 9.195312 -6.917969 9.195312 -9.074219 L 1.398438 -9.074219 C 1.398438 -3.039062 5.71875 0.601562 12.996094 0.601562 Z M 12.996094 0.601562 "/></g></g></g><g fill="#f96b46" fill-opacity="1"><g transform="translate(41.691173, 130.917845)"><g><path d="M 2.957031 0 L 11.035156 0 L 11.035156 -27.988281 L 2.957031 -27.988281 Z M 2.957031 0 "/></g></g></g><g fill="#f96b46" fill-opacity="1"><g transform="translate(55.681587, 130.917845)"><g><path d="M 12.996094 0.601562 C 19.953125 0.601562 24.070312 -2.679688 24.070312 -8.195312 C 24.070312 -12.835938 21.070312 -15.554688 14.273438 -17.074219 C 10.675781 -17.871094 9.355469 -18.75 9.355469 -20.191406 C 9.355469 -21.550781 10.554688 -22.390625 12.433594 -22.390625 C 14.671875 -22.390625 15.953125 -21.230469 15.953125 -19.113281 L 23.550781 -19.113281 C 23.550781 -24.867188 19.152344 -28.585938 12.273438 -28.585938 C 5.675781 -28.585938 1.597656 -25.308594 1.597656 -20.03125 C 1.597656 -15.3125 4.679688 -12.394531 10.996094 -11.195312 C 14.394531 -10.515625 16.03125 -9.476562 16.03125 -7.875 C 16.03125 -6.476562 14.832031 -5.675781 12.875 -5.675781 C 10.554688 -5.675781 9.195312 -6.917969 9.195312 -9.074219 L 1.398438 -9.074219 C 1.398438 -3.039062 5.71875 0.601562 12.996094 0.601562 Z M 12.996094 0.601562 "/></g></g></g><g fill="#f96b46" fill-opacity="1"><g transform="translate(81.224078, 130.917845)"><g><path d="M 12.996094 0.601562 C 19.953125 0.601562 24.070312 -2.679688 24.070312 -8.195312 C 24.070312 -12.835938 21.070312 -15.554688 14.273438 -17.074219 C 10.675781 -17.871094 9.355469 -18.75 9.355469 -20.191406 C 9.355469 -21.550781 10.554688 -22.390625 12.433594 -22.390625 C 14.671875 -22.390625 15.953125 -21.230469 15.953125 -19.113281 L 23.550781 -19.113281 C 23.550781 -24.867188 19.152344 -28.585938 12.273438 -28.585938 C 5.675781 -28.585938 1.597656 -25.308594 1.597656 -20.03125 C 1.597656 -15.3125 4.679688 -12.394531 10.996094 -11.195312 C 14.394531 -10.515625 16.03125 -9.476562 16.03125 -7.875 C 16.03125 -6.476562 14.832031 -5.675781 12.875 -5.675781 C 10.554688 -5.675781 9.195312 -6.917969 9.195312 -9.074219 L 1.398438 -9.074219 C 1.398438 -3.039062 5.71875 0.601562 12.996094 0.601562 Z M 12.996094 0.601562 "/></g></g></g><g fill="#f96b46" fill-opacity="1"><g transform="translate(106.766569, 130.917845)"><g><path d="M 14.992188 0.601562 C 22.550781 0.601562 27.226562 -4 27.226562 -11.515625 L 27.226562 -27.988281 L 19.191406 -27.988281 L 19.191406 -12.035156 C 19.191406 -8.714844 17.792969 -6.957031 14.992188 -6.957031 C 12.195312 -6.957031 10.796875 -8.714844 10.796875 -12.035156 L 10.796875 -27.988281 L 2.71875 -27.988281 L 2.71875 -11.515625 C 2.71875 -4 7.4375 0.601562 14.992188 0.601562 Z M 14.992188 0.601562 "/></g></g></g><g fill="#f96b46" fill-opacity="1"><g transform="translate(136.746025, 130.917845)"><g><path d="M 2.957031 0 L 22.589844 0 L 22.589844 -6.597656 L 10.957031 -6.597656 L 10.957031 -10.914062 L 21.070312 -10.914062 L 21.070312 -17.390625 L 10.957031 -17.390625 L 10.957031 -21.46875 L 22.148438 -21.46875 L 22.148438 -27.988281 L 2.957031 -27.988281 Z M 2.957031 0 "/></g></g></g><g fill="#f96b46" fill-opacity="1"><g transform="translate(161.129309, 130.917845)"><g><path d="M 2.957031 0 L 14.832031 0 C 23.871094 0 29.867188 -5.558594 29.867188 -13.992188 C 29.867188 -22.390625 23.871094 -27.988281 14.832031 -27.988281 L 2.957031 -27.988281 Z M 11.035156 -7.238281 L 11.035156 -20.75 L 14.59375 -20.75 C 18.871094 -20.75 21.628906 -18.113281 21.628906 -13.992188 C 21.628906 -9.875 18.871094 -7.238281 14.59375 -7.238281 Z M 11.035156 -7.238281 "/></g></g></g></svg>