<svg xmlns="http://www.w3.org/2000/svg" xmlns:xlink="http://www.w3.org/1999/xlink" width="1000" zoomAndPan="magnify" viewBox="0 0 750 225" height="300" preserveAspectRatio="xMidYMid meet" version="1.0"><defs><g/><clipPath id="id1"><path d="M 0 70 L 750 70 L 750 225 L 0 225 Z M 0 70 " clip-rule="nonzero"/></clipPath><clipPath id="id2"><path d="M -10.050781 9.109375 L 747.816406 -14.996094 L 759.878906 364.3125 L 2.015625 388.417969 Z M -10.050781 9.109375 " clip-rule="nonzero"/></clipPath><clipPath id="id3"><path d="M 747.992188 -15 L -9.875 9.105469 L 2.191406 388.410156 L 760.054688 364.308594 Z M 747.992188 -15 " clip-rule="nonzero"/></clipPath><clipPath id="id4"><path d="M 477.066406 177 L 727.566406 177 L 727.566406 202.5 L 477.066406 202.5 Z M 477.066406 177 " clip-rule="nonzero"/></clipPath><clipPath id="id5"><path d="M 538 22.5 L 667 22.5 L 667 137 L 538 137 Z M 538 22.5 " clip-rule="nonzero"/></clipPath></defs><rect x="-75" width="900" fill="#ffffff" y="-22.5" height="270" fill-opacity="1"/><rect x="-75" width="900" fill="#ffffff" y="-22.5" height="270" fill-opacity="1"/><rect x="-75" width="900" fill="#ffffff" y="-22.5" height="270" fill-opacity="1"/><g clip-path="url(#id1)"><g clip-path="url(#id2)"><g clip-path="url(#id3)"><path fill="#aa0018" d="M 752.539062 127.953125 C 752.539062 127.953125 609.359375 -5.847656 373.394531 133.363281 C 137.429688 272.578125 -4.914062 165.09375 -4.914062 165.09375 L 2 382.488281 L 759.867188 358.382812 Z M 752.539062 127.953125 " fill-opacity="1" fill-rule="nonzero"/></g></g></g><g fill="#aa0018" fill-opacity="1"><g transform="translate(47.949867, 92.504157)"><g><path d="M 2.957031 0 L 10.957031 0 L 10.957031 -14.273438 L 21.589844 0 L 28.148438 0 L 28.148438 -27.988281 L 20.191406 -27.988281 L 20.191406 -13.792969 L 9.554688 -27.988281 L 2.957031 -27.988281 Z M 2.957031 0 "/></g></g></g><g fill="#aa0018" fill-opacity="1"><g transform="translate(79.088519, 92.504157)"><g><path d="M 16.59375 0.601562 C 25.507812 0.601562 31.824219 -5.4375 31.824219 -13.992188 C 31.824219 -22.550781 25.507812 -28.585938 16.59375 -28.585938 C 7.675781 -28.585938 1.359375 -22.550781 1.359375 -13.992188 C 1.359375 -5.4375 7.675781 0.601562 16.59375 0.601562 Z M 9.554688 -13.992188 C 9.554688 -18.191406 12.472656 -21.109375 16.59375 -21.109375 C 20.75 -21.109375 23.628906 -18.191406 23.628906 -13.992188 C 23.628906 -9.796875 20.75 -6.878906 16.59375 -6.878906 C 12.472656 -6.878906 9.554688 -9.796875 9.554688 -13.992188 Z M 9.554688 -13.992188 "/></g></g></g><g fill="#aa0018" fill-opacity="1"><g transform="translate(112.305749, 92.504157)"><g/></g></g><g fill="#aa0018" fill-opacity="1"><g transform="translate(121.539425, 92.504157)"><g><path d="M 2.957031 0 L 11.035156 0 L 11.035156 -7.957031 L 14.074219 -7.957031 L 18.070312 0 L 27.226562 0 L 22.070312 -9.4375 C 25.027344 -11.074219 26.707031 -14.035156 26.707031 -17.953125 C 26.707031 -24.148438 22.511719 -27.988281 15.714844 -27.988281 L 2.957031 -27.988281 Z M 10.875 -14.394531 L 10.875 -21.390625 L 14.632812 -21.390625 C 17.191406 -21.390625 18.59375 -20.152344 18.59375 -17.914062 C 18.59375 -15.671875 17.191406 -14.394531 14.632812 -14.394531 Z M 10.875 -14.394531 "/></g></g></g><g fill="#aa0018" fill-opacity="1"><g transform="translate(150.319701, 92.504157)"><g><path d="M 2.957031 0 L 22.589844 0 L 22.589844 -6.597656 L 10.957031 -6.597656 L 10.957031 -10.914062 L 21.070312 -10.914062 L 21.070312 -17.390625 L 10.957031 -17.390625 L 10.957031 -21.46875 L 22.148438 -21.46875 L 22.148438 -27.988281 L 2.957031 -27.988281 Z M 2.957031 0 "/></g></g></g><g fill="#aa0018" fill-opacity="1"><g transform="translate(174.702985, 92.504157)"><g><path d="M 16.03125 0.601562 C 23.75 0.601562 29.585938 -4.078125 30.785156 -11.195312 L 22.589844 -11.195312 C 21.589844 -8.554688 19.230469 -6.878906 16.191406 -6.878906 C 12.273438 -6.878906 9.554688 -9.796875 9.554688 -13.992188 C 9.554688 -18.230469 12.316406 -21.109375 16.273438 -21.109375 C 19.191406 -21.109375 21.628906 -19.472656 22.46875 -16.953125 L 30.625 -16.953125 C 29.1875 -24.03125 23.429688 -28.585938 15.953125 -28.585938 C 7.316406 -28.585938 1.359375 -22.628906 1.359375 -13.992188 C 1.359375 -5.359375 7.316406 0.601562 16.03125 0.601562 Z M 16.03125 0.601562 "/></g></g></g><g fill="#aa0018" fill-opacity="1"><g transform="translate(206.76101, 92.504157)"><g><path d="M 16.59375 0.601562 C 25.507812 0.601562 31.824219 -5.4375 31.824219 -13.992188 C 31.824219 -22.550781 25.507812 -28.585938 16.59375 -28.585938 C 7.675781 -28.585938 1.359375 -22.550781 1.359375 -13.992188 C 1.359375 -5.4375 7.675781 0.601562 16.59375 0.601562 Z M 9.554688 -13.992188 C 9.554688 -18.191406 12.472656 -21.109375 16.59375 -21.109375 C 20.75 -21.109375 23.628906 -18.191406 23.628906 -13.992188 C 23.628906 -9.796875 20.75 -6.878906 16.59375 -6.878906 C 12.472656 -6.878906 9.554688 -9.796875 9.554688 -13.992188 Z M 9.554688 -13.992188 "/></g></g></g><g fill="#aa0018" fill-opacity="1"><g transform="translate(239.97824, 92.504157)"><g><path d="M 2.957031 0 L 11.035156 0 L 11.035156 -7.957031 L 14.074219 -7.957031 L 18.070312 0 L 27.226562 0 L 22.070312 -9.4375 C 25.027344 -11.074219 26.707031 -14.035156 26.707031 -17.953125 C 26.707031 -24.148438 22.511719 -27.988281 15.714844 -27.988281 L 2.957031 -27.988281 Z M 10.875 -14.394531 L 10.875 -21.390625 L 14.632812 -21.390625 C 17.191406 -21.390625 18.59375 -20.152344 18.59375 -17.914062 C 18.59375 -15.671875 17.191406 -14.394531 14.632812 -14.394531 Z M 10.875 -14.394531 "/></g></g></g><g fill="#aa0018" fill-opacity="1"><g transform="translate(268.758527, 92.504157)"><g><path d="M 2.957031 0 L 14.832031 0 C 23.871094 0 29.867188 -5.558594 29.867188 -13.992188 C 29.867188 -22.390625 23.871094 -27.988281 14.832031 -27.988281 L 2.957031 -27.988281 Z M 11.035156 -7.238281 L 11.035156 -20.75 L 14.59375 -20.75 C 18.871094 -20.75 21.628906 -18.113281 21.628906 -13.992188 C 21.628906 -9.875 18.871094 -7.238281 14.59375 -7.238281 Z M 11.035156 -7.238281 "/></g></g></g><g fill="#aa0018" fill-opacity="1"><g transform="translate(47.949867, 133.004155)"><g><path d="M 2.957031 0 L 11.035156 0 L 11.035156 -8.316406 L 20.390625 -8.316406 L 20.390625 -15.3125 L 11.035156 -15.3125 L 11.035156 -20.789062 L 21.429688 -20.789062 L 21.429688 -27.988281 L 2.957031 -27.988281 Z M 2.957031 0 "/></g></g></g><g fill="#aa0018" fill-opacity="1"><g transform="translate(70.894137, 133.004155)"><g><path d="M 16.59375 0.601562 C 25.507812 0.601562 31.824219 -5.4375 31.824219 -13.992188 C 31.824219 -22.550781 25.507812 -28.585938 16.59375 -28.585938 C 7.675781 -28.585938 1.359375 -22.550781 1.359375 -13.992188 C 1.359375 -5.4375 7.675781 0.601562 16.59375 0.601562 Z M 9.554688 -13.992188 C 9.554688 -18.191406 12.472656 -21.109375 16.59375 -21.109375 C 20.75 -21.109375 23.628906 -18.191406 23.628906 -13.992188 C 23.628906 -9.796875 20.75 -6.878906 16.59375 -6.878906 C 12.472656 -6.878906 9.554688 -9.796875 9.554688 -13.992188 Z M 9.554688 -13.992188 "/></g></g></g><g fill="#aa0018" fill-opacity="1"><g transform="translate(104.111367, 133.004155)"><g><path d="M 14.992188 0.601562 C 22.550781 0.601562 27.226562 -4 27.226562 -11.515625 L 27.226562 -27.988281 L 19.191406 -27.988281 L 19.191406 -12.035156 C 19.191406 -8.714844 17.792969 -6.957031 14.992188 -6.957031 C 12.195312 -6.957031 10.796875 -8.714844 10.796875 -12.035156 L 10.796875 -27.988281 L 2.71875 -27.988281 L 2.71875 -11.515625 C 2.71875 -4 7.4375 0.601562 14.992188 0.601562 Z M 14.992188 0.601562 "/></g></g></g><g fill="#aa0018" fill-opacity="1"><g transform="translate(134.090823, 133.004155)"><g><path d="M 2.957031 0 L 10.957031 0 L 10.957031 -14.273438 L 21.589844 0 L 28.148438 0 L 28.148438 -27.988281 L 20.191406 -27.988281 L 20.191406 -13.792969 L 9.554688 -27.988281 L 2.957031 -27.988281 Z M 2.957031 0 "/></g></g></g><g fill="#aa0018" fill-opacity="1"><g transform="translate(165.229475, 133.004155)"><g><path d="M 2.957031 0 L 14.832031 0 C 23.871094 0 29.867188 -5.558594 29.867188 -13.992188 C 29.867188 -22.390625 23.871094 -27.988281 14.832031 -27.988281 L 2.957031 -27.988281 Z M 11.035156 -7.238281 L 11.035156 -20.75 L 14.59375 -20.75 C 18.871094 -20.75 21.628906 -18.113281 21.628906 -13.992188 C 21.628906 -9.875 18.871094 -7.238281 14.59375 -7.238281 Z M 11.035156 -7.238281 "/></g></g></g><path fill="#000000" d="M 580.445312 183.4375 L 502.074219 183.4375 C 500.4375 183.4375 499.113281 182.109375 499.113281 180.476562 L 499.113281 74.519531 C 499.113281 68.355469 504.128906 63.34375 510.289062 63.34375 L 575.394531 63.34375 C 577.027344 63.34375 578.355469 64.671875 578.355469 66.304688 C 578.355469 67.941406 577.027344 69.269531 575.394531 69.269531 L 510.289062 69.269531 C 507.394531 69.269531 505.035156 71.625 505.035156 74.519531 L 505.035156 177.511719 L 580.445312 177.511719 C 582.078125 177.511719 583.40625 178.839844 583.40625 180.476562 C 583.40625 182.109375 582.078125 183.4375 580.445312 183.4375 Z M 702.382812 183.4375 L 624.011719 183.4375 C 622.378906 183.4375 621.046875 182.109375 621.046875 180.476562 C 621.050781 178.839844 622.375 177.511719 624.011719 177.511719 L 699.421875 177.511719 L 699.421875 74.519531 C 699.421875 71.625 697.0625 69.269531 694.171875 69.269531 L 629.0625 69.269531 C 627.425781 69.269531 626.097656 67.941406 626.097656 66.304688 C 626.101562 64.671875 627.425781 63.34375 629.0625 63.34375 L 694.171875 63.34375 C 700.335938 63.34375 705.347656 68.355469 705.347656 74.519531 L 705.347656 180.472656 C 705.347656 182.109375 704.019531 183.4375 702.382812 183.4375 Z M 702.382812 183.4375 " fill-opacity="1" fill-rule="evenodd"/><path fill="#000000" d="M 687.324219 170.238281 L 517.136719 170.238281 C 515.5 170.238281 514.171875 168.914062 514.171875 167.277344 L 514.171875 79.503906 C 514.171875 77.871094 515.5 76.542969 517.132812 76.542969 L 567.773438 76.542969 C 569.410156 76.542969 570.734375 77.871094 570.734375 79.507812 C 570.738281 81.140625 569.410156 82.46875 567.773438 82.46875 L 520.097656 82.46875 L 520.097656 164.3125 L 684.351562 164.3125 L 684.351562 82.46875 L 636.6875 82.46875 C 635.050781 82.46875 633.722656 81.140625 633.722656 79.507812 C 633.722656 77.871094 635.046875 76.542969 636.683594 76.542969 L 687.324219 76.542969 C 688.960938 76.542969 690.285156 77.871094 690.285156 79.507812 L 690.285156 167.277344 C 690.285156 168.914062 688.960938 170.238281 687.324219 170.238281 Z M 687.324219 170.238281 " fill-opacity="1" fill-rule="evenodd"/><g clip-path="url(#id4)"><path fill="#000000" d="M 482.925781 183.4375 L 482.925781 189.804688 C 482.925781 193.316406 485.785156 196.175781 489.296875 196.175781 L 715.164062 196.175781 C 718.675781 196.175781 721.535156 193.316406 721.535156 189.808594 L 721.535156 183.4375 L 626.46875 183.4375 C 625.246094 186.894531 621.945312 189.378906 618.074219 189.378906 L 586.390625 189.378906 C 582.511719 189.378906 579.214844 186.894531 577.988281 183.4375 Z M 715.164062 202.101562 L 489.300781 202.101562 C 482.515625 202.101562 477 196.585938 477 189.808594 L 477 180.472656 C 477 179.691406 477.308594 178.9375 477.863281 178.378906 C 478.421875 177.824219 479.171875 177.511719 479.964844 177.511719 L 580.445312 177.511719 C 582.082031 177.511719 583.40625 178.839844 583.40625 180.476562 C 583.40625 182.117188 584.746094 183.453125 586.390625 183.453125 L 618.074219 183.453125 C 619.714844 183.453125 621.050781 182.117188 621.050781 180.476562 C 621.050781 178.839844 622.375 177.511719 624.011719 177.511719 L 724.5 177.511719 C 726.136719 177.511719 727.460938 178.839844 727.460938 180.476562 L 727.464844 189.804688 C 727.464844 196.585938 721.941406 202.101562 715.164062 202.101562 Z M 715.164062 202.101562 " fill-opacity="1" fill-rule="evenodd"/></g><g clip-path="url(#id5)"><path fill="#000000" d="M 602.230469 28.820312 C 601.078125 28.820312 600.164062 29.347656 599.582031 30.347656 L 544.566406 125.609375 C 543.992188 126.605469 543.992188 127.664062 544.566406 128.664062 C 545.148438 129.660156 546.0625 130.191406 547.214844 130.191406 L 657.238281 130.1875 C 658.394531 130.1875 659.3125 129.660156 659.886719 128.664062 C 660.46875 127.664062 660.46875 126.605469 659.886719 125.609375 L 604.875 30.347656 C 604.300781 29.347656 603.386719 28.820312 602.230469 28.820312 Z M 657.238281 136.117188 L 547.214844 136.117188 C 543.96875 136.117188 541.058594 134.4375 539.4375 131.625 C 537.8125 128.8125 537.8125 125.457031 539.4375 122.644531 L 594.453125 27.382812 C 596.074219 24.574219 598.984375 22.894531 602.230469 22.894531 C 605.476562 22.894531 608.386719 24.574219 610.007812 27.386719 L 610.007812 27.382812 L 665.019531 122.644531 C 666.644531 125.457031 666.640625 128.8125 665.019531 131.625 C 663.394531 134.4375 660.488281 136.117188 657.238281 136.117188 Z M 657.238281 136.117188 " fill-opacity="1" fill-rule="evenodd"/></g><path fill="#000000" d="M 602.230469 45.167969 C 600.847656 45.167969 599.730469 46.289062 599.730469 47.667969 L 599.730469 86.019531 C 599.730469 87.398438 600.847656 88.519531 602.230469 88.519531 C 603.605469 88.519531 604.730469 87.398438 604.730469 86.019531 L 604.730469 47.664062 C 604.730469 46.289062 603.605469 45.167969 602.230469 45.167969 Z M 602.230469 94.445312 C 597.582031 94.445312 593.804688 90.664062 593.804688 86.019531 L 593.804688 47.664062 C 593.804688 43.019531 597.582031 39.242188 602.230469 39.242188 C 606.875 39.242188 610.65625 43.019531 610.65625 47.667969 L 610.660156 86.019531 C 610.660156 90.664062 606.875 94.445312 602.230469 94.445312 Z M 602.230469 94.445312 " fill-opacity="1" fill-rule="evenodd"/><path fill="#000000" d="M 602.230469 102.589844 C 599.253906 102.589844 596.839844 105.117188 596.839844 108.21875 C 596.839844 111.320312 599.253906 113.84375 602.230469 113.84375 C 605.199219 113.84375 607.621094 111.320312 607.621094 108.21875 C 607.621094 105.113281 605.199219 102.589844 602.230469 102.589844 Z M 602.230469 119.769531 C 595.988281 119.769531 590.914062 114.585938 590.914062 108.21875 C 590.914062 101.847656 595.988281 96.667969 602.230469 96.667969 C 608.464844 96.664062 613.546875 101.847656 613.546875 108.21875 C 613.546875 114.585938 608.464844 119.769531 602.230469 119.769531 Z M 602.230469 119.769531 " fill-opacity="1" fill-rule="evenodd"/><path fill="#80deea" d="M 505.035156 74.519531 L 505.035156 177.511719 L 580.445312 177.511719 C 582.078125 177.511719 583.40625 178.839844 583.40625 180.476562 C 583.40625 182.117188 584.746094 183.453125 586.386719 183.453125 L 618.074219 183.453125 C 619.714844 183.453125 621.046875 182.117188 621.046875 180.476562 C 621.050781 178.839844 622.375 177.511719 624.011719 177.511719 L 699.421875 177.511719 L 699.421875 74.519531 C 699.421875 71.625 697.0625 69.269531 694.171875 69.269531 L 634.195312 69.269531 L 638.398438 76.542969 L 687.324219 76.542969 C 688.960938 76.542969 690.289062 77.871094 690.289062 79.503906 L 690.289062 167.277344 C 690.289062 168.914062 688.960938 170.238281 687.324219 170.238281 L 517.136719 170.238281 C 515.5 170.238281 514.171875 168.914062 514.171875 167.277344 L 514.171875 79.503906 C 514.171875 77.867188 515.5 76.542969 517.136719 76.542969 L 566.0625 76.542969 L 570.261719 69.269531 L 510.289062 69.269531 C 507.394531 69.269531 505.035156 71.625 505.035156 74.519531 Z M 505.035156 74.519531 " fill-opacity="1" fill-rule="evenodd"/><path fill="#80deea" d="M 577.984375 183.4375 L 482.925781 183.4375 L 482.925781 189.804688 C 482.925781 193.316406 485.785156 196.175781 489.296875 196.175781 L 715.164062 196.175781 C 718.675781 196.175781 721.535156 193.316406 721.535156 189.804688 L 721.535156 183.4375 L 626.46875 183.4375 C 625.246094 186.894531 621.945312 189.378906 618.074219 189.378906 L 586.390625 189.378906 C 582.511719 189.378906 579.214844 186.894531 577.988281 183.4375 Z M 577.984375 183.4375 " fill-opacity="1" fill-rule="evenodd"/><path fill="#6190f7" d="M 520.101562 82.46875 L 520.101562 164.3125 L 684.355469 164.3125 L 684.355469 82.46875 L 641.816406 82.46875 L 665.019531 122.644531 C 666.640625 125.457031 666.640625 128.8125 665.019531 131.625 C 663.394531 134.4375 660.488281 136.117188 657.238281 136.117188 L 547.214844 136.117188 C 543.96875 136.117188 541.058594 134.4375 539.4375 131.625 C 537.8125 128.8125 537.8125 125.457031 539.4375 122.644531 L 562.640625 82.46875 L 520.097656 82.46875 Z M 520.101562 82.46875 " fill-opacity="1" fill-rule="evenodd"/><path fill="#80deea" d="M 570.269531 81.105469 L 544.566406 125.609375 C 543.992188 126.605469 543.992188 127.664062 544.566406 128.664062 C 545.148438 129.660156 546.0625 130.191406 547.214844 130.191406 L 657.238281 130.1875 C 658.394531 130.1875 659.3125 129.660156 659.886719 128.664062 C 660.46875 127.664062 660.46875 126.605469 659.886719 125.609375 L 626.519531 67.828125 C 626.503906 67.800781 626.484375 67.769531 626.46875 67.738281 L 604.875 30.347656 C 604.300781 29.347656 603.386719 28.820312 602.230469 28.820312 C 601.078125 28.820312 600.164062 29.347656 599.582031 30.347656 L 577.984375 67.746094 C 577.96875 67.773438 577.953125 67.800781 577.9375 67.824219 L 570.410156 80.859375 C 570.367188 80.945312 570.320312 81.027344 570.269531 81.105469 Z M 602.230469 119.769531 C 595.988281 119.769531 590.914062 114.585938 590.914062 108.21875 C 590.914062 101.847656 595.988281 96.667969 602.230469 96.667969 C 608.464844 96.664062 613.546875 101.847656 613.546875 108.21875 C 613.546875 114.585938 608.464844 119.769531 602.230469 119.769531 Z M 593.804688 86.019531 L 593.804688 47.664062 C 593.804688 43.019531 597.582031 39.242188 602.230469 39.242188 C 606.875 39.242188 610.65625 43.019531 610.65625 47.667969 L 610.660156 86.019531 C 610.660156 90.664062 606.875 94.445312 602.230469 94.445312 C 597.582031 94.445312 593.804688 90.664062 593.804688 86.019531 Z M 593.804688 86.019531 " fill-opacity="1" fill-rule="evenodd"/><path fill="#e57373" d="M 599.730469 47.667969 L 599.730469 86.019531 C 599.730469 87.398438 600.847656 88.519531 602.230469 88.519531 C 603.605469 88.519531 604.730469 87.398438 604.730469 86.019531 L 604.730469 47.664062 C 604.730469 46.289062 603.605469 45.167969 602.230469 45.167969 C 600.847656 45.167969 599.730469 46.289062 599.730469 47.667969 Z M 599.730469 47.667969 " fill-opacity="1" fill-rule="evenodd"/><path fill="#e57373" d="M 602.230469 102.589844 C 599.253906 102.589844 596.839844 105.117188 596.839844 108.21875 C 596.839844 111.320312 599.253906 113.84375 602.230469 113.84375 C 605.199219 113.84375 607.621094 111.320312 607.621094 108.21875 C 607.621094 105.113281 605.199219 102.589844 602.230469 102.589844 Z M 602.230469 102.589844 " fill-opacity="1" fill-rule="evenodd"/></svg>