<?xml version="1.0" encoding="UTF-8"?><svg xmlns="http://www.w3.org/2000/svg" xmlns:xlink="http://www.w3.org/1999/xlink" contentScriptType="text/ecmascript" width="75" zoomAndPan="magnify" contentStyleType="text/css" viewBox="0 0 75 74.999997" height="74.999997" preserveAspectRatio="xMidYMid meet" version="1.0"><defs><clipPath id="clip-0"><path d="M 5.0625 5.597656 L 70.3125 5.597656 L 70.3125 64.097656 L 5.0625 64.097656 Z M 5.0625 5.597656 " clip-rule="nonzero"/></clipPath></defs><path fill="rgb(97.648621%, 68.238831%, 10.978699%)" d="M 6.152344 59.582031 C 6.152344 58.992188 6.304688 58.410156 6.597656 57.894531 L 34.695312 8.472656 C 35.324219 7.367188 36.507812 6.679688 37.785156 6.679688 C 39.066406 6.679688 40.253906 7.371094 40.882812 8.484375 L 68.78125 57.898438 C 69.070312 58.410156 69.222656 58.988281 69.222656 59.582031 C 69.222656 61.476562 67.679688 63.011719 65.777344 63.011719 L 9.59375 63.011719 C 7.695312 63.011719 6.152344 61.476562 6.152344 59.582031 " fill-opacity="1" fill-rule="nonzero"/><path fill="rgb(96.859741%, 59.21936%, 12.939453%)" d="M 68.78125 57.898438 L 51.113281 26.613281 C 43.71875 46.101562 30.203125 57.058594 19.363281 63.011719 L 65.777344 63.011719 C 67.679688 63.011719 69.222656 61.476562 69.222656 59.582031 C 69.222656 58.988281 69.070312 58.410156 68.78125 57.898438 " fill-opacity="1" fill-rule="nonzero"/><path fill="rgb(87.838745%, 21.958923%, 20.779419%)" d="M 30.074219 46.761719 L 27.902344 46.761719 L 27.902344 50.011719 L 25.992188 50.011719 L 27.875 41.582031 L 25.75 41.109375 L 23.578125 50.859375 C 23.503906 51.179688 23.585938 51.519531 23.789062 51.773438 C 23.996094 52.03125 24.308594 52.179688 24.636719 52.179688 L 27.902344 52.179688 L 27.902344 54.347656 L 30.074219 54.347656 L 30.074219 52.179688 L 31.164062 52.179688 L 31.164062 50.011719 L 30.074219 50.011719 L 30.074219 46.761719 " fill-opacity="1" fill-rule="nonzero"/><path fill="rgb(87.838745%, 21.958923%, 20.779419%)" d="M 39.863281 50.011719 C 39.863281 51.207031 38.886719 52.179688 37.6875 52.179688 C 36.488281 52.179688 35.511719 51.207031 35.511719 50.011719 L 35.511719 45.679688 C 35.511719 44.488281 36.488281 43.511719 37.6875 43.511719 C 38.886719 43.511719 39.863281 44.488281 39.863281 45.679688 Z M 37.6875 41.347656 C 35.289062 41.347656 33.335938 43.289062 33.335938 45.679688 L 33.335938 50.011719 C 33.335938 52.402344 35.289062 54.347656 37.6875 54.347656 C 40.085938 54.347656 42.035156 52.402344 42.035156 50.011719 L 42.035156 45.679688 C 42.035156 43.289062 40.085938 41.347656 37.6875 41.347656 " fill-opacity="1" fill-rule="nonzero"/><path fill="rgb(87.838745%, 21.958923%, 20.779419%)" d="M 51.824219 50.011719 L 50.734375 50.011719 L 50.734375 46.761719 L 48.5625 46.761719 L 48.5625 50.011719 L 46.652344 50.011719 L 48.535156 41.582031 L 46.410156 41.109375 L 44.238281 50.859375 C 44.164062 51.179688 44.246094 51.519531 44.449219 51.773438 C 44.65625 52.03125 44.96875 52.179688 45.300781 52.179688 L 48.5625 52.179688 L 48.5625 54.347656 L 50.734375 54.347656 L 50.734375 52.179688 L 51.824219 52.179688 L 51.824219 50.011719 " fill-opacity="1" fill-rule="nonzero"/><path fill="rgb(87.838745%, 21.958923%, 20.779419%)" d="M 36.601562 20.761719 L 36.601562 31.597656 L 38.773438 31.597656 L 38.773438 20.761719 L 36.601562 20.761719 " fill-opacity="1" fill-rule="nonzero"/><path fill="rgb(87.838745%, 21.958923%, 20.779419%)" d="M 36.601562 35.929688 L 38.773438 35.929688 L 38.773438 33.761719 L 36.601562 33.761719 L 36.601562 35.929688 " fill-opacity="1" fill-rule="nonzero"/><g clip-path="url(#clip-0)"><path fill="rgb(6.269836%, 5.879211%, 5.099487%)" d="M 65.777344 61.929688 L 9.59375 61.929688 C 8.296875 61.929688 7.238281 60.875 7.238281 59.582031 C 7.238281 59.179688 7.347656 58.78125 7.546875 58.429688 L 35.644531 9.007812 C 36.078125 8.242188 36.902344 7.761719 37.785156 7.761719 C 38.671875 7.761719 39.496094 8.242188 39.933594 9.015625 L 67.832031 58.425781 C 68.027344 58.777344 68.136719 59.175781 68.136719 59.582031 C 68.136719 60.875 67.078125 61.929688 65.777344 61.929688 Z M 41.828125 7.949219 C 41.007812 6.496094 39.457031 5.597656 37.785156 5.597656 C 36.121094 5.597656 34.574219 6.492188 33.75 7.941406 L 5.65625 57.359375 C 5.269531 58.035156 5.066406 58.808594 5.066406 59.582031 C 5.066406 62.074219 7.09375 64.097656 9.59375 64.097656 L 65.777344 64.097656 C 68.273438 64.097656 70.308594 62.070312 70.308594 59.582031 C 70.308594 58.800781 70.109375 58.039062 69.726562 57.363281 L 41.828125 7.949219 " fill-opacity="1" fill-rule="nonzero"/></g><path fill="rgb(6.269836%, 5.879211%, 5.099487%)" d="M 30.074219 46.761719 L 27.902344 46.761719 L 27.902344 50.011719 L 25.992188 50.011719 L 27.875 41.582031 L 25.75 41.109375 L 23.578125 50.859375 C 23.503906 51.179688 23.585938 51.519531 23.789062 51.773438 C 23.996094 52.03125 24.308594 52.179688 24.636719 52.179688 L 27.902344 52.179688 L 27.902344 54.347656 L 30.074219 54.347656 L 30.074219 52.179688 L 31.164062 52.179688 L 31.164062 50.011719 L 30.074219 50.011719 L 30.074219 46.761719 " fill-opacity="1" fill-rule="nonzero"/><path fill="rgb(6.269836%, 5.879211%, 5.099487%)" d="M 39.863281 50.011719 C 39.863281 51.207031 38.886719 52.179688 37.6875 52.179688 C 36.488281 52.179688 35.511719 51.207031 35.511719 50.011719 L 35.511719 45.679688 C 35.511719 44.488281 36.488281 43.511719 37.6875 43.511719 C 38.886719 43.511719 39.863281 44.488281 39.863281 45.679688 Z M 37.6875 41.347656 C 35.289062 41.347656 33.335938 43.289062 33.335938 45.679688 L 33.335938 50.011719 C 33.335938 52.402344 35.289062 54.347656 37.6875 54.347656 C 40.085938 54.347656 42.035156 52.402344 42.035156 50.011719 L 42.035156 45.679688 C 42.035156 43.289062 40.085938 41.347656 37.6875 41.347656 " fill-opacity="1" fill-rule="nonzero"/><path fill="rgb(6.269836%, 5.879211%, 5.099487%)" d="M 50.734375 46.761719 L 48.5625 46.761719 L 48.5625 50.011719 L 46.652344 50.011719 L 48.535156 41.582031 L 46.410156 41.109375 L 44.238281 50.859375 C 44.164062 51.179688 44.246094 51.519531 44.449219 51.773438 C 44.65625 52.03125 44.96875 52.179688 45.300781 52.179688 L 48.5625 52.179688 L 48.5625 54.347656 L 50.734375 54.347656 L 50.734375 52.179688 L 51.824219 52.179688 L 51.824219 50.011719 L 50.734375 50.011719 L 50.734375 46.761719 " fill-opacity="1" fill-rule="nonzero"/><path fill="rgb(6.269836%, 5.879211%, 5.099487%)" d="M 38.773438 20.761719 L 36.601562 20.761719 L 36.601562 31.597656 L 38.773438 31.597656 L 38.773438 20.761719 " fill-opacity="1" fill-rule="nonzero"/><path fill="rgb(6.269836%, 5.879211%, 5.099487%)" d="M 38.773438 33.761719 L 36.601562 33.761719 L 36.601562 35.929688 L 38.773438 35.929688 L 38.773438 33.761719 " fill-opacity="1" fill-rule="nonzero"/></svg>