<svg xmlns="http://www.w3.org/2000/svg" xmlns:xlink="http://www.w3.org/1999/xlink" width="375" viewBox="0 0 375 375" height="375" version="1.0"><defs><clipPath id="a"><path d="M 175 316 L 188 316 L 188 325.417969 L 175 325.417969 Z M 175 316"/></clipPath><clipPath id="b"><path d="M 0 3.75 L 375 3.75 L 375 216 L 0 216 Z M 0 3.75"/></clipPath><clipPath id="c"><path d="M 52 148 L 322 148 L 322 325.417969 L 52 325.417969 Z M 52 148"/></clipPath><clipPath id="d"><path d="M 187 274 L 366 274 L 366 359 L 187 359 Z M 187 274"/></clipPath><clipPath id="e"><path d="M 276.320312 274.332031 C 251.511719 274.332031 223.796875 275.730469 200.730469 285.859375 C 185.871094 292.386719 187.15625 300.285156 187.15625 314.660156 C 187.15625 330.0625 184.777344 339.988281 200.730469 346.992188 C 223.796875 357.117188 251.511719 358.519531 276.320312 358.519531 C 301.128906 358.519531 328.835938 357.117188 351.90625 346.992188 C 367.847656 339.988281 365.476562 330.085938 365.476562 314.6875 C 365.476562 300.304688 366.773438 292.390625 351.90625 285.859375 C 328.835938 275.730469 301.125 274.332031 276.320312 274.332031"/></clipPath><clipPath id="g"><path d="M 185 272 L 368 272 L 368 361 L 185 361 Z M 185 272"/></clipPath><clipPath id="h"><path d="M 185.75 298.886719 L 185.75 333.214844 C 185.75 349.601562 216.753906 354 228.097656 355.992188 C 257.253906 361.105469 287.757812 361.304688 317.046875 357.171875 C 328.410156 355.570312 366.878906 351.414062 366.878906 333.964844 C 368.691406 323.152344 366.878906 310.621094 366.878906 299.636719 C 366.878906 283.253906 335.875 278.851562 324.535156 276.863281 C 295.375 271.746094 264.875 271.546875 235.585938 275.679688 C 224.222656 277.285156 185.75 281.445312 185.75 298.886719 M 188.558594 333.964844 C 188.558594 323.074219 186.164062 309.464844 188.558594 298.886719 C 188.558594 285.1875 221.519531 280.722656 230.238281 279.253906 C 260.347656 274.191406 292.289062 274.191406 322.398438 279.253906 C 331.113281 280.722656 364.074219 285.1875 364.074219 298.886719 C 365.1875 303.8125 364.074219 310.261719 364.074219 315.285156 C 364.074219 321.011719 365.34375 328.355469 364.074219 333.964844 C 364.074219 347.667969 331.117188 352.128906 322.398438 353.597656 C 292.289062 358.664062 260.347656 358.664062 230.238281 353.597656 C 221.515625 352.128906 188.558594 347.667969 188.558594 333.964844"/></clipPath><clipPath id="j"><path d="M 187 212 L 366 212 L 366 297 L 187 297 Z M 187 212"/></clipPath><clipPath id="k"><path d="M 276.320312 212.546875 C 251.511719 212.546875 223.796875 213.945312 200.730469 224.074219 C 185.871094 230.597656 187.15625 238.5 187.15625 252.875 C 187.15625 268.28125 184.777344 278.199219 200.730469 285.207031 C 223.796875 295.332031 251.511719 296.730469 276.320312 296.730469 C 301.128906 296.730469 328.835938 295.332031 351.90625 285.207031 C 367.847656 278.203125 365.476562 268.296875 365.476562 252.902344 C 365.476562 238.515625 366.773438 230.601562 351.90625 224.074219 C 328.835938 213.945312 301.125 212.546875 276.320312 212.546875"/></clipPath><clipPath id="m"><path d="M 185 210 L 368 210 L 368 299 L 185 299 Z M 185 210"/></clipPath><clipPath id="n"><path d="M 185.75 237.101562 L 185.75 271.425781 C 185.75 287.8125 216.753906 292.21875 228.097656 294.207031 C 257.253906 299.320312 287.757812 299.515625 317.046875 295.386719 C 328.414062 293.78125 366.878906 289.625 366.878906 272.175781 C 368.691406 261.363281 366.878906 248.835938 366.878906 237.851562 C 366.878906 221.464844 335.875 217.0625 324.535156 215.074219 C 295.375 209.957031 264.875 209.757812 235.585938 213.890625 C 224.222656 215.496094 185.75 219.65625 185.75 237.101562 M 188.558594 272.175781 C 188.558594 261.289062 186.164062 247.675781 188.558594 237.101562 C 188.558594 223.402344 221.519531 218.933594 230.238281 217.46875 C 260.347656 212.402344 292.289062 212.402344 322.398438 217.46875 C 331.113281 218.933594 364.074219 223.402344 364.074219 237.101562 C 365.1875 242.019531 364.074219 248.476562 364.074219 253.496094 C 364.074219 259.222656 365.34375 266.570312 364.074219 272.179688 C 364.074219 285.878906 331.113281 290.347656 322.398438 291.8125 C 292.289062 296.878906 260.347656 296.878906 230.238281 291.8125 C 221.515625 290.34375 188.558594 285.878906 188.558594 272.175781"/></clipPath><clipPath id="p"><path d="M 187 150 L 366 150 L 366 235 L 187 235 Z M 187 150"/></clipPath><clipPath id="q"><path d="M 276.320312 150.765625 C 251.511719 150.765625 223.796875 152.164062 200.730469 162.292969 C 185.871094 168.816406 187.15625 176.714844 187.15625 191.09375 C 187.15625 206.496094 184.777344 216.417969 200.730469 223.421875 C 223.796875 233.550781 251.511719 234.949219 276.320312 234.949219 C 301.128906 234.949219 328.835938 233.550781 351.90625 223.421875 C 367.847656 216.421875 365.476562 206.515625 365.476562 191.121094 C 365.476562 176.734375 366.773438 168.820312 351.90625 162.292969 C 328.835938 152.164062 301.125 150.765625 276.320312 150.765625"/></clipPath><clipPath id="s"><path d="M 185 149 L 368 149 L 368 237 L 185 237 Z M 185 149"/></clipPath><clipPath id="t"><path d="M 185.75 175.320312 L 185.75 209.644531 C 185.75 226.027344 216.753906 230.429688 228.097656 232.417969 C 257.253906 237.535156 287.757812 237.734375 317.046875 233.601562 C 328.410156 232 366.878906 227.839844 366.878906 210.394531 C 368.691406 199.582031 366.878906 187.050781 366.878906 176.070312 C 366.878906 159.683594 335.878906 155.28125 324.535156 153.289062 C 295.375 148.175781 264.875 147.980469 235.585938 152.109375 C 224.21875 153.714844 185.75 157.871094 185.75 175.320312 M 188.558594 210.394531 C 188.558594 199.503906 186.164062 185.894531 188.558594 175.320312 C 188.558594 161.617188 221.515625 157.15625 230.238281 155.6875 C 260.347656 150.621094 292.289062 150.621094 322.398438 155.6875 C 331.117188 157.15625 364.074219 161.617188 364.074219 175.320312 C 365.1875 180.242188 364.074219 186.695312 364.074219 191.714844 C 364.074219 197.441406 365.34375 204.789062 364.074219 210.394531 C 364.074219 224.09375 331.113281 228.558594 322.398438 230.03125 C 292.289062 235.09375 260.347656 235.09375 230.238281 230.03125 C 221.515625 228.558594 188.558594 224.09375 188.558594 210.394531"/></clipPath><clipPath id="v"><path d="M 182.5 189 L 370 189 L 370 225 L 182.5 225 Z M 182.5 189"/></clipPath><clipPath id="w"><path d="M 182.5 249 L 370 249 L 370 285 L 182.5 285 Z M 182.5 249"/></clipPath><clipPath id="x"><path d="M 182.5 309 L 370 309 L 370 345 L 182.5 345 Z M 182.5 309"/></clipPath><clipPath id="y"><path d="M 247.234375 213.078125 L 304 213.078125 L 304 270 L 247.234375 270 Z M 247.234375 213.078125"/></clipPath><clipPath id="z"><path d="M 278 259 L 305.566406 259 L 305.566406 296.410156 L 278 296.410156 Z M 278 259"/></clipPath><clipPath id="A"><path d="M 247.234375 259 L 273 259 L 273 296.410156 L 247.234375 296.410156 Z M 247.234375 259"/></clipPath><linearGradient x1="-.524" gradientTransform="matrix(1.53158 0 0 1.53037 185.58 149.214)" xmlns:xlink="http://www.w3.org/1999/xlink" y1="0" x2="119.006" gradientUnits="userSpaceOnUse" y2="0" xlink:type="simple" xlink:actuate="onLoad" id="f" xlink:show="other"><stop stop-color="#DFDFDF" offset="0"/><stop stop-color="#DFDFDF" offset=".031"/><stop stop-color="#DEDEDE" offset=".063"/><stop stop-color="#DEDEDE" offset=".094"/><stop stop-color="#DDD" offset=".125"/><stop stop-color="#DCDCDC" offset=".156"/><stop stop-color="#DBDBDB" offset=".188"/><stop stop-color="#DBDBDB" offset=".219"/><stop stop-color="#DADADA" offset=".234"/><stop stop-color="#D9D9D9" offset=".25"/><stop stop-color="#D8D8D8" offset=".266"/><stop stop-color="#D7D7D7" offset=".281"/><stop stop-color="#D6D6D6" offset=".297"/><stop stop-color="#D5D5D5" offset=".313"/><stop stop-color="#D4D4D4" offset=".328"/><stop stop-color="#D3D3D3" offset=".344"/><stop stop-color="#D3D3D3" offset=".359"/><stop stop-color="#D2D2D2" offset=".375"/><stop stop-color="#D1D1D1" offset=".391"/><stop stop-color="#D0D0D0" offset=".406"/><stop stop-color="#CFCFCF" offset=".422"/><stop stop-color="#CECECE" offset=".438"/><stop stop-color="#CDCDCD" offset=".453"/><stop stop-color="#CCC" offset=".469"/><stop stop-color="#CBCBCB" offset=".477"/><stop stop-color="#CBCBCB" offset=".484"/><stop stop-color="#CACACA" offset=".492"/><stop stop-color="#CACACA" offset=".5"/><stop stop-color="#C9C9C9" offset=".508"/><stop stop-color="#C8C8C8" offset=".516"/><stop stop-color="#C8C8C8" offset=".523"/><stop stop-color="#C7C7C7" offset=".531"/><stop stop-color="#C6C6C6" offset=".539"/><stop stop-color="#C6C6C6" offset=".547"/><stop stop-color="#C5C5C5" offset=".555"/><stop stop-color="#C4C4C4" offset=".563"/><stop stop-color="#C4C4C4" offset=".57"/><stop stop-color="#C3C3C3" offset=".578"/><stop stop-color="#C2C2C2" offset=".586"/><stop stop-color="#C2C2C2" offset=".594"/><stop stop-color="#C1C1C1" offset=".602"/><stop stop-color="#C0C0C0" offset=".609"/><stop stop-color="#C0C0C0" offset=".617"/><stop stop-color="#BFBFBF" offset=".625"/><stop stop-color="#BEBEBE" offset=".633"/><stop stop-color="#BEBEBE" offset=".641"/><stop stop-color="#BDBDBD" offset=".648"/><stop stop-color="#BCBCBC" offset=".656"/><stop stop-color="#BBB" offset=".664"/><stop stop-color="#BBB" offset=".672"/><stop stop-color="#BABABA" offset=".68"/><stop stop-color="#B9B9B9" offset=".688"/><stop stop-color="#B9B9B9" offset=".695"/><stop stop-color="#B8B8B8" offset=".703"/><stop stop-color="#B7B7B7" offset=".711"/><stop stop-color="#B7B7B7" offset=".719"/><stop stop-color="#B6B6B6" offset=".727"/><stop stop-color="#B5B5B5" offset=".734"/><stop stop-color="#B5B5B5" offset=".742"/><stop stop-color="#B4B4B4" offset=".75"/><stop stop-color="#B3B3B3" offset=".758"/><stop stop-color="#B3B3B3" offset=".766"/><stop stop-color="#B2B2B2" offset=".773"/><stop stop-color="#B1B1B1" offset=".781"/><stop stop-color="#B0B0B0" offset=".789"/><stop stop-color="#AFAFAF" offset=".797"/><stop stop-color="#AEAEAE" offset=".805"/><stop stop-color="#AEADAD" offset=".813"/><stop stop-color="#ADACAC" offset=".82"/><stop stop-color="#ACACAC" offset=".828"/><stop stop-color="#ABABAB" offset=".836"/><stop stop-color="#AAA" offset=".844"/><stop stop-color="#A9A9A9" offset=".852"/><stop stop-color="#A8A8A8" offset=".859"/><stop stop-color="#A8A7A7" offset=".867"/><stop stop-color="#A7A6A6" offset=".875"/><stop stop-color="#A6A5A5" offset=".883"/><stop stop-color="#A5A4A4" offset=".891"/><stop stop-color="#A4A4A4" offset=".898"/><stop stop-color="#A3A3A3" offset=".906"/><stop stop-color="#A2A2A2" offset=".914"/><stop stop-color="#A2A1A1" offset=".922"/><stop stop-color="#A1A0A0" offset=".93"/><stop stop-color="#A09F9F" offset=".938"/><stop stop-color="#9F9E9E" offset=".945"/><stop stop-color="#9E9D9D" offset=".953"/><stop stop-color="#9D9C9C" offset=".961"/><stop stop-color="#9D9C9C" offset=".969"/><stop stop-color="#9C9B9B" offset=".977"/><stop stop-color="#9B9A9A" offset=".984"/><stop stop-color="#9A9999" offset="1"/></linearGradient><linearGradient x1="-247.971" gradientTransform="matrix(0 314.5519 314.80147 0 -145146.294 78271.452)" xmlns:xlink="http://www.w3.org/1999/xlink" y1="0" x2="-247.686" gradientUnits="userSpaceOnUse" y2="0" xlink:type="simple" xlink:actuate="onLoad" id="i" xlink:show="other"><stop stop-color="#B8B8B8" offset="0"/><stop stop-color="#B7B7B7" offset=".016"/><stop stop-color="#B7B7B7" offset=".031"/><stop stop-color="#B6B6B6" offset=".047"/><stop stop-color="#B5B5B5" offset=".063"/><stop stop-color="#B5B5B5" offset=".078"/><stop stop-color="#B4B4B4" offset=".094"/><stop stop-color="#B3B3B3" offset=".109"/><stop stop-color="#B3B3B3" offset=".125"/><stop stop-color="#B2B2B2" offset=".141"/><stop stop-color="#B2B2B2" offset=".156"/><stop stop-color="#B1B1B1" offset=".172"/><stop stop-color="#B0B0B0" offset=".188"/><stop stop-color="#B0B0B0" offset=".203"/><stop stop-color="#AFAFAF" offset=".219"/><stop stop-color="#AEAEAE" offset=".234"/><stop stop-color="#AEAEAE" offset=".25"/><stop stop-color="#ADADAD" offset=".266"/><stop stop-color="#ACACAC" offset=".281"/><stop stop-color="#ACACAC" offset=".297"/><stop stop-color="#ABABAB" offset=".313"/><stop stop-color="#AAA" offset=".328"/><stop stop-color="#AAA" offset=".344"/><stop stop-color="#A9A9A9" offset=".359"/><stop stop-color="#A9A9A9" offset=".375"/><stop stop-color="#A8A8A8" offset=".391"/><stop stop-color="#A7A7A7" offset=".406"/><stop stop-color="#A7A7A7" offset=".422"/><stop stop-color="#A6A6A6" offset=".438"/><stop stop-color="#A5A5A5" offset=".453"/><stop stop-color="#A5A5A5" offset=".469"/><stop stop-color="#A4A4A4" offset=".484"/><stop stop-color="#A3A3A3" offset=".5"/><stop stop-color="#A3A3A3" offset=".516"/><stop stop-color="#A2A2A2" offset=".531"/><stop stop-color="#A2A2A2" offset=".547"/><stop stop-color="#A1A1A1" offset=".563"/><stop stop-color="#A0A0A0" offset=".578"/><stop stop-color="#A0A0A0" offset=".594"/><stop stop-color="#9F9F9F" offset=".609"/><stop stop-color="#9E9E9E" offset=".625"/><stop stop-color="#9E9E9E" offset=".641"/><stop stop-color="#9D9D9D" offset=".656"/><stop stop-color="#9C9C9C" offset=".672"/><stop stop-color="#9C9C9C" offset=".688"/><stop stop-color="#9B9B9B" offset=".703"/><stop stop-color="#9B9B9B" offset=".719"/><stop stop-color="#9A9A9A" offset=".734"/><stop stop-color="#999" offset=".75"/><stop stop-color="#999" offset=".766"/><stop stop-color="#989898" offset=".781"/><stop stop-color="#979797" offset=".797"/><stop stop-color="#979797" offset=".813"/><stop stop-color="#969696" offset=".828"/><stop stop-color="#959595" offset=".844"/><stop stop-color="#959595" offset=".859"/><stop stop-color="#949494" offset=".875"/><stop stop-color="#939393" offset=".891"/><stop stop-color="#939393" offset=".906"/><stop stop-color="#929292" offset=".922"/><stop stop-color="#929292" offset=".938"/><stop stop-color="#919191" offset=".953"/><stop stop-color="#909090" offset=".969"/><stop stop-color="#909090" offset=".984"/><stop stop-color="#8F8F8F" offset="1"/></linearGradient><linearGradient x1="-.524" gradientTransform="matrix(1.53158 0 0 1.53037 185.58 149.214)" xmlns:xlink="http://www.w3.org/1999/xlink" y1="0" x2="119.006" gradientUnits="userSpaceOnUse" y2="0" xlink:type="simple" xlink:actuate="onLoad" id="l" xlink:show="other"><stop stop-color="#DFDFDF" offset="0"/><stop stop-color="#DFDFDF" offset=".031"/><stop stop-color="#DEDEDE" offset=".063"/><stop stop-color="#DEDEDE" offset=".094"/><stop stop-color="#DDD" offset=".125"/><stop stop-color="#DCDCDC" offset=".156"/><stop stop-color="#DBDBDB" offset=".188"/><stop stop-color="#DBDBDB" offset=".219"/><stop stop-color="#DADADA" offset=".234"/><stop stop-color="#D9D9D9" offset=".25"/><stop stop-color="#D8D8D8" offset=".266"/><stop stop-color="#D7D7D7" offset=".281"/><stop stop-color="#D6D6D6" offset=".297"/><stop stop-color="#D5D5D5" offset=".313"/><stop stop-color="#D4D4D4" offset=".328"/><stop stop-color="#D3D3D3" offset=".344"/><stop stop-color="#D3D3D3" offset=".359"/><stop stop-color="#D2D2D2" offset=".375"/><stop stop-color="#D1D1D1" offset=".391"/><stop stop-color="#D0D0D0" offset=".406"/><stop stop-color="#CFCFCF" offset=".422"/><stop stop-color="#CECECE" offset=".438"/><stop stop-color="#CDCDCD" offset=".453"/><stop stop-color="#CCC" offset=".469"/><stop stop-color="#CBCBCB" offset=".477"/><stop stop-color="#CBCBCB" offset=".484"/><stop stop-color="#CACACA" offset=".492"/><stop stop-color="#CACACA" offset=".5"/><stop stop-color="#C9C9C9" offset=".508"/><stop stop-color="#C8C8C8" offset=".516"/><stop stop-color="#C8C8C8" offset=".523"/><stop stop-color="#C7C7C7" offset=".531"/><stop stop-color="#C6C6C6" offset=".539"/><stop stop-color="#C6C6C6" offset=".547"/><stop stop-color="#C5C5C5" offset=".555"/><stop stop-color="#C4C4C4" offset=".563"/><stop stop-color="#C4C4C4" offset=".57"/><stop stop-color="#C3C3C3" offset=".578"/><stop stop-color="#C2C2C2" offset=".586"/><stop stop-color="#C2C2C2" offset=".594"/><stop stop-color="#C1C1C1" offset=".602"/><stop stop-color="#C0C0C0" offset=".609"/><stop stop-color="#C0C0C0" offset=".617"/><stop stop-color="#BFBFBF" offset=".625"/><stop stop-color="#BEBEBE" offset=".633"/><stop stop-color="#BEBEBE" offset=".641"/><stop stop-color="#BDBDBD" offset=".648"/><stop stop-color="#BCBCBC" offset=".656"/><stop stop-color="#BBB" offset=".664"/><stop stop-color="#BBB" offset=".672"/><stop stop-color="#BABABA" offset=".68"/><stop stop-color="#B9B9B9" offset=".688"/><stop stop-color="#B9B9B9" offset=".695"/><stop stop-color="#B8B8B8" offset=".703"/><stop stop-color="#B7B7B7" offset=".711"/><stop stop-color="#B7B7B7" offset=".719"/><stop stop-color="#B6B6B6" offset=".727"/><stop stop-color="#B5B5B5" offset=".734"/><stop stop-color="#B5B5B5" offset=".742"/><stop stop-color="#B4B4B4" offset=".75"/><stop stop-color="#B3B3B3" offset=".758"/><stop stop-color="#B3B3B3" offset=".766"/><stop stop-color="#B2B2B2" offset=".773"/><stop stop-color="#B1B1B1" offset=".781"/><stop stop-color="#B0B0B0" offset=".789"/><stop stop-color="#AFAFAF" offset=".797"/><stop stop-color="#AEAEAE" offset=".805"/><stop stop-color="#AEADAD" offset=".813"/><stop stop-color="#ADACAC" offset=".82"/><stop stop-color="#ACACAC" offset=".828"/><stop stop-color="#ABABAB" offset=".836"/><stop stop-color="#AAA" offset=".844"/><stop stop-color="#A9A9A9" offset=".852"/><stop stop-color="#A8A8A8" offset=".859"/><stop stop-color="#A8A7A7" offset=".867"/><stop stop-color="#A7A6A6" offset=".875"/><stop stop-color="#A6A5A5" offset=".883"/><stop stop-color="#A5A4A4" offset=".891"/><stop stop-color="#A4A4A4" offset=".898"/><stop stop-color="#A3A3A3" offset=".906"/><stop stop-color="#A2A2A2" offset=".914"/><stop stop-color="#A2A1A1" offset=".922"/><stop stop-color="#A1A0A0" offset=".93"/><stop stop-color="#A09F9F" offset=".938"/><stop stop-color="#9F9E9E" offset=".945"/><stop stop-color="#9E9D9D" offset=".953"/><stop stop-color="#9D9C9C" offset=".961"/><stop stop-color="#9D9C9C" offset=".969"/><stop stop-color="#9C9B9B" offset=".977"/><stop stop-color="#9B9A9A" offset=".984"/><stop stop-color="#9A9999" offset="1"/></linearGradient><linearGradient x1="-248.049" gradientTransform="matrix(0 314.5672 314.8168 0 -145150.888 78237.788)" xmlns:xlink="http://www.w3.org/1999/xlink" y1="0" x2="-247.764" gradientUnits="userSpaceOnUse" y2="0" xlink:type="simple" xlink:actuate="onLoad" id="o" xlink:show="other"><stop stop-color="#B6B6B6" offset="0"/><stop stop-color="#B6B6B6" offset=".016"/><stop stop-color="#B5B5B5" offset=".031"/><stop stop-color="#B5B5B5" offset=".047"/><stop stop-color="#B4B4B4" offset=".063"/><stop stop-color="#B3B3B3" offset=".078"/><stop stop-color="#B3B3B3" offset=".094"/><stop stop-color="#B2B2B2" offset=".109"/><stop stop-color="#B1B1B1" offset=".125"/><stop stop-color="#B1B1B1" offset=".141"/><stop stop-color="#B0B0B0" offset=".156"/><stop stop-color="#B0B0B0" offset=".172"/><stop stop-color="#AFAFAF" offset=".188"/><stop stop-color="#AEAEAE" offset=".203"/><stop stop-color="#AEAEAE" offset=".219"/><stop stop-color="#ADADAD" offset=".234"/><stop stop-color="#ACACAC" offset=".25"/><stop stop-color="#ACACAC" offset=".266"/><stop stop-color="#ABABAB" offset=".281"/><stop stop-color="#AAA" offset=".297"/><stop stop-color="#AAA" offset=".313"/><stop stop-color="#A9A9A9" offset=".328"/><stop stop-color="#A9A9A9" offset=".344"/><stop stop-color="#A8A8A8" offset=".359"/><stop stop-color="#A7A7A7" offset=".375"/><stop stop-color="#A7A7A7" offset=".391"/><stop stop-color="#A6A6A6" offset=".406"/><stop stop-color="#A5A5A5" offset=".422"/><stop stop-color="#A5A5A5" offset=".438"/><stop stop-color="#A4A4A4" offset=".453"/><stop stop-color="#A3A3A3" offset=".469"/><stop stop-color="#A3A3A3" offset=".484"/><stop stop-color="#A2A2A2" offset=".5"/><stop stop-color="#A2A2A2" offset=".516"/><stop stop-color="#A1A1A1" offset=".531"/><stop stop-color="#A0A0A0" offset=".547"/><stop stop-color="#A0A0A0" offset=".563"/><stop stop-color="#9F9F9F" offset=".578"/><stop stop-color="#9E9E9E" offset=".594"/><stop stop-color="#9E9E9E" offset=".609"/><stop stop-color="#9D9D9D" offset=".625"/><stop stop-color="#9C9C9C" offset=".641"/><stop stop-color="#9C9C9C" offset=".656"/><stop stop-color="#9B9B9B" offset=".672"/><stop stop-color="#9B9B9B" offset=".688"/><stop stop-color="#9A9A9A" offset=".703"/><stop stop-color="#999" offset=".719"/><stop stop-color="#999" offset=".734"/><stop stop-color="#989898" offset=".75"/><stop stop-color="#979797" offset=".766"/><stop stop-color="#979797" offset=".781"/><stop stop-color="#969696" offset=".797"/><stop stop-color="#959595" offset=".813"/><stop stop-color="#959595" offset=".828"/><stop stop-color="#949494" offset=".844"/><stop stop-color="#949494" offset=".859"/><stop stop-color="#939393" offset=".875"/><stop stop-color="#929292" offset=".891"/><stop stop-color="#929292" offset=".906"/><stop stop-color="#919191" offset=".922"/><stop stop-color="#909090" offset=".938"/><stop stop-color="#909090" offset=".953"/><stop stop-color="#8F8F8F" offset=".969"/><stop stop-color="#8E8E8E" offset=".984"/><stop stop-color="#8E8E8E" offset="1"/></linearGradient><linearGradient x1="-.524" gradientTransform="matrix(1.53158 0 0 1.53037 185.58 149.214)" xmlns:xlink="http://www.w3.org/1999/xlink" y1="0" x2="119.006" gradientUnits="userSpaceOnUse" y2="0" xlink:type="simple" xlink:actuate="onLoad" id="r" xlink:show="other"><stop stop-color="#DFDFDF" offset="0"/><stop stop-color="#DFDFDF" offset=".031"/><stop stop-color="#DEDEDE" offset=".063"/><stop stop-color="#DEDEDE" offset=".094"/><stop stop-color="#DDD" offset=".125"/><stop stop-color="#DCDCDC" offset=".156"/><stop stop-color="#DBDBDB" offset=".188"/><stop stop-color="#DBDBDB" offset=".219"/><stop stop-color="#DADADA" offset=".234"/><stop stop-color="#D9D9D9" offset=".25"/><stop stop-color="#D8D8D8" offset=".266"/><stop stop-color="#D7D7D7" offset=".281"/><stop stop-color="#D6D6D6" offset=".297"/><stop stop-color="#D5D5D5" offset=".313"/><stop stop-color="#D4D4D4" offset=".328"/><stop stop-color="#D3D3D3" offset=".344"/><stop stop-color="#D3D3D3" offset=".359"/><stop stop-color="#D2D2D2" offset=".375"/><stop stop-color="#D1D1D1" offset=".391"/><stop stop-color="#D0D0D0" offset=".406"/><stop stop-color="#CFCFCF" offset=".422"/><stop stop-color="#CECECE" offset=".438"/><stop stop-color="#CDCDCD" offset=".453"/><stop stop-color="#CCC" offset=".469"/><stop stop-color="#CBCBCB" offset=".477"/><stop stop-color="#CBCBCB" offset=".484"/><stop stop-color="#CACACA" offset=".492"/><stop stop-color="#CACACA" offset=".5"/><stop stop-color="#C9C9C9" offset=".508"/><stop stop-color="#C8C8C8" offset=".516"/><stop stop-color="#C8C8C8" offset=".523"/><stop stop-color="#C7C7C7" offset=".531"/><stop stop-color="#C6C6C6" offset=".539"/><stop stop-color="#C6C6C6" offset=".547"/><stop stop-color="#C5C5C5" offset=".555"/><stop stop-color="#C4C4C4" offset=".563"/><stop stop-color="#C4C4C4" offset=".57"/><stop stop-color="#C3C3C3" offset=".578"/><stop stop-color="#C2C2C2" offset=".586"/><stop stop-color="#C2C2C2" offset=".594"/><stop stop-color="#C1C1C1" offset=".602"/><stop stop-color="#C0C0C0" offset=".609"/><stop stop-color="#C0C0C0" offset=".617"/><stop stop-color="#BFBFBF" offset=".625"/><stop stop-color="#BEBEBE" offset=".633"/><stop stop-color="#BEBEBE" offset=".641"/><stop stop-color="#BDBDBD" offset=".648"/><stop stop-color="#BCBCBC" offset=".656"/><stop stop-color="#BBB" offset=".664"/><stop stop-color="#BBB" offset=".672"/><stop stop-color="#BABABA" offset=".68"/><stop stop-color="#B9B9B9" offset=".688"/><stop stop-color="#B9B9B9" offset=".695"/><stop stop-color="#B8B8B8" offset=".703"/><stop stop-color="#B7B7B7" offset=".711"/><stop stop-color="#B7B7B7" offset=".719"/><stop stop-color="#B6B6B6" offset=".727"/><stop stop-color="#B5B5B5" offset=".734"/><stop stop-color="#B5B5B5" offset=".742"/><stop stop-color="#B4B4B4" offset=".75"/><stop stop-color="#B3B3B3" offset=".758"/><stop stop-color="#B3B3B3" offset=".766"/><stop stop-color="#B2B2B2" offset=".773"/><stop stop-color="#B1B1B1" offset=".781"/><stop stop-color="#B0B0B0" offset=".789"/><stop stop-color="#AFAFAF" offset=".797"/><stop stop-color="#AEAEAE" offset=".805"/><stop stop-color="#AEADAD" offset=".813"/><stop stop-color="#ADACAC" offset=".82"/><stop stop-color="#ACACAC" offset=".828"/><stop stop-color="#ABABAB" offset=".836"/><stop stop-color="#AAA" offset=".844"/><stop stop-color="#A9A9A9" offset=".852"/><stop stop-color="#A8A8A8" offset=".859"/><stop stop-color="#A8A7A7" offset=".867"/><stop stop-color="#A7A6A6" offset=".875"/><stop stop-color="#A6A5A5" offset=".883"/><stop stop-color="#A5A4A4" offset=".891"/><stop stop-color="#A4A4A4" offset=".898"/><stop stop-color="#A3A3A3" offset=".906"/><stop stop-color="#A2A2A2" offset=".914"/><stop stop-color="#A2A1A1" offset=".922"/><stop stop-color="#A1A0A0" offset=".93"/><stop stop-color="#A09F9F" offset=".938"/><stop stop-color="#9F9E9E" offset=".945"/><stop stop-color="#9E9D9D" offset=".953"/><stop stop-color="#9D9C9C" offset=".961"/><stop stop-color="#9D9C9C" offset=".969"/><stop stop-color="#9C9B9B" offset=".977"/><stop stop-color="#9B9A9A" offset=".984"/><stop stop-color="#9A9999" offset="1"/></linearGradient><linearGradient x1="-248.145" gradientTransform="matrix(0 314.5519 314.80147 0 -145146.294 78202.585)" xmlns:xlink="http://www.w3.org/1999/xlink" y1="0" x2="-247.86" gradientUnits="userSpaceOnUse" y2="0" xlink:type="simple" xlink:actuate="onLoad" id="u" xlink:show="other"><stop stop-color="#B8B8B8" offset="0"/><stop stop-color="#B8B8B8" offset=".016"/><stop stop-color="#B7B7B7" offset=".031"/><stop stop-color="#B7B7B7" offset=".047"/><stop stop-color="#B6B6B6" offset=".063"/><stop stop-color="#B5B5B5" offset=".078"/><stop stop-color="#B5B5B5" offset=".094"/><stop stop-color="#B4B4B4" offset=".109"/><stop stop-color="#B3B3B3" offset=".125"/><stop stop-color="#B3B3B3" offset=".141"/><stop stop-color="#B2B2B2" offset=".156"/><stop stop-color="#B1B1B1" offset=".172"/><stop stop-color="#B1B1B1" offset=".188"/><stop stop-color="#B0B0B0" offset=".203"/><stop stop-color="#B0B0B0" offset=".219"/><stop stop-color="#AFAFAF" offset=".234"/><stop stop-color="#AEAEAE" offset=".25"/><stop stop-color="#AEAEAE" offset=".266"/><stop stop-color="#ADADAD" offset=".281"/><stop stop-color="#ACACAC" offset=".297"/><stop stop-color="#ACACAC" offset=".313"/><stop stop-color="#ABABAB" offset=".328"/><stop stop-color="#AAA" offset=".344"/><stop stop-color="#AAA" offset=".359"/><stop stop-color="#A9A9A9" offset=".375"/><stop stop-color="#A8A8A8" offset=".391"/><stop stop-color="#A8A8A8" offset=".406"/><stop stop-color="#A7A7A7" offset=".422"/><stop stop-color="#A7A7A7" offset=".438"/><stop stop-color="#A6A6A6" offset=".453"/><stop stop-color="#A5A5A5" offset=".469"/><stop stop-color="#A5A5A5" offset=".484"/><stop stop-color="#A4A4A4" offset=".5"/><stop stop-color="#A3A3A3" offset=".516"/><stop stop-color="#A3A3A3" offset=".531"/><stop stop-color="#A2A2A2" offset=".547"/><stop stop-color="#A1A1A1" offset=".563"/><stop stop-color="#A1A1A1" offset=".578"/><stop stop-color="#A0A0A0" offset=".594"/><stop stop-color="#A0A0A0" offset=".609"/><stop stop-color="#9F9F9F" offset=".625"/><stop stop-color="#9E9E9E" offset=".641"/><stop stop-color="#9E9E9E" offset=".656"/><stop stop-color="#9D9D9D" offset=".672"/><stop stop-color="#9C9C9C" offset=".688"/><stop stop-color="#9C9C9C" offset=".703"/><stop stop-color="#9B9B9B" offset=".719"/><stop stop-color="#9A9A9A" offset=".734"/><stop stop-color="#9A9A9A" offset=".75"/><stop stop-color="#999" offset=".766"/><stop stop-color="#999" offset=".781"/><stop stop-color="#989898" offset=".797"/><stop stop-color="#979797" offset=".813"/><stop stop-color="#979797" offset=".828"/><stop stop-color="#969696" offset=".844"/><stop stop-color="#959595" offset=".859"/><stop stop-color="#959595" offset=".875"/><stop stop-color="#949494" offset=".891"/><stop stop-color="#939393" offset=".906"/><stop stop-color="#939393" offset=".922"/><stop stop-color="#929292" offset=".938"/><stop stop-color="#919191" offset=".953"/><stop stop-color="#919191" offset=".969"/><stop stop-color="#909090" offset=".984"/><stop stop-color="#909090" offset="1"/></linearGradient></defs><path fill="#FFF" d="M-37.5 -37.5H412.5V412.5H-37.5z"/><path fill="#FFF" d="M-37.5 -37.5H412.5V412.5H-37.5z"/><path fill="#FEFEFE" d="M-37.5 -37.5H412.5V412.5H-37.5z"/><g clip-path="url(#a)"><path d="M 175.753906 316.65625 C 180.046875 317.078125 181.601562 324.59375 187.390625 321.15625 C 185.683594 325.261719 183.511719 326.9375 180.183594 322.519531 C 178.710938 320.558594 177.230469 318.609375 175.753906 316.65625 Z M 175.753906 316.65625" fill-rule="evenodd"/></g><path d="M 29.765625 76.785156 C 29.695312 78.394531 28.605469 78.734375 27.300781 78.710938 C 26.320312 78.691406 25.253906 78.582031 25.058594 77.371094 C 24.824219 75.886719 25.832031 75.089844 27.078125 74.863281 C 28.476562 74.601562 29.269531 75.578125 29.765625 76.789062 Z M 29.765625 76.785156" fill-rule="evenodd"/><path d="M 20.667969 79.839844 C 19.535156 79.894531 18.816406 79.484375 19.085938 78.648438 C 19.242188 78.160156 20.105469 77.785156 20.726562 77.601562 C 20.992188 77.523438 21.445312 78.050781 21.8125 78.300781 C 21.398438 78.863281 20.980469 79.421875 20.667969 79.839844 Z M 20.667969 79.839844" fill-rule="evenodd"/><path fill="#FEFEFE" d="M 184.035156 273.152344 C 187.683594 277.515625 191.09375 281.261719 194.035156 285.339844 C 194.816406 286.414062 184.585938 296.75 183.210938 296.523438 C 181.886719 296.3125 173.132812 285.796875 173.777344 285.003906 C 176.953125 281.089844 180.351562 277.363281 184.035156 273.152344 Z M 184.035156 273.152344" fill-rule="evenodd"/><g clip-path="url(#b)"><path fill="#FEFEFE" d="M 12.847656 81.769531 C 13.039062 81.980469 13.234375 82.191406 13.425781 82.402344 C 13.429688 82.402344 13.441406 82.402344 13.445312 82.402344 C 13.324219 82.117188 13.109375 81.921875 12.847656 81.769531 Z M 0 77.199219 C 0.199219 77.085938 0.421875 76.964844 0.648438 76.84375 C 2.855469 74.816406 5.414062 73.636719 8.304688 73.246094 C 10.925781 72.097656 13.839844 70.863281 16.808594 69.640625 C 16.949219 69.574219 17.097656 69.515625 17.25 69.453125 C 27.890625 65.0625 38.976562 60.816406 38.976562 60.816406 L 39.21875 61 C 86.707031 42.378906 134.214844 23.816406 181.683594 5.15625 C 186.039062 3.441406 189.90625 3.425781 194.261719 5.171875 C 213.792969 12.996094 233.441406 20.542969 253.015625 28.257812 C 292.164062 43.691406 331.296875 59.171875 370.4375 74.628906 C 372.15625 75.277344 374.214844 75.375 375 77.5 C 372.953125 78.511719 370.960938 79.660156 368.851562 80.527344 C 343.351562 90.996094 349.148438 83.847656 348.25 110.617188 C 348.078125 115.722656 349.195312 118.667969 354.476562 121.097656 C 367.4375 127.054688 369.691406 142.148438 359.859375 152.207031 C 359.445312 152.621094 359.03125 153.027344 358.621094 153.441406 C 351.777344 156.015625 354.046875 161.457031 355.3125 165.835938 C 359.421875 180.035156 360.398438 194.511719 360.59375 209.175781 C 360.65625 213.875 358.710938 215.015625 354.722656 215.003906 C 347.777344 214.984375 340.832031 214.859375 333.894531 215.046875 C 329.03125 215.175781 327.535156 213.011719 328.074219 208.457031 C 329.832031 193.722656 329.828125 178.742188 334.152344 164.371094 C 335.652344 159.390625 335.042969 156.042969 330.484375 152.15625 C 320.121094 143.320312 323.179688 127.492188 335.574219 121.753906 C 337.351562 120.933594 339.5 120.773438 340.757812 118.996094 C 340.738281 119 340.71875 119.003906 340.699219 119.007812 C 340.808594 112.082031 340.558594 105.128906 341.125 98.242188 C 341.671875 91.527344 338.960938 92.03125 334.210938 93.960938 C 319.972656 99.765625 305.597656 105.25 291.304688 110.917969 C 289.238281 111.738281 286.65625 111.894531 285.746094 114.539062 C 291.429688 123.597656 294.046875 133.738281 296.277344 144.035156 C 297.066406 147.679688 295.992188 150.28125 293.066406 152.734375 C 264.160156 176.96875 231.433594 191.535156 193.246094 191.816406 C 159.789062 192.0625 129.394531 181.339844 101.933594 163.070312 C 75.246094 145.316406 75.179688 153.417969 88.335938 118.789062 C 90.144531 114.046875 89.597656 112.617188 84.886719 110.808594 C 63.578125 102.632812 42.449219 93.984375 21.25 85.507812 C 18.339844 85.300781 15.695312 84.410156 13.472656 82.460938 C 10.515625 82.320312 7.957031 81.109375 5.535156 79.53125 C 4.1875 79.171875 2.847656 78.816406 1.5 78.460938 C 1 78.132812 0.5 77.800781 0.00390625 77.472656 C 0.0898438 77.378906 0.179688 77.289062 0.277344 77.203125 L 0.00390625 77.195312 Z M 0 77.199219" fill-rule="evenodd"/></g><path fill="#38B6FF" d="M 280.125 235.378906 C 270.796875 197.394531 216.804688 197.253906 207.433594 235.378906 L 211.433594 235.378906 C 211.433594 235.40625 211.4375 235.429688 211.441406 235.460938 L 222.644531 235.460938 C 222.644531 235.460938 222.648438 235.433594 222.65625 235.378906 Z M 280.125 235.378906" fill-rule="evenodd"/><path fill="#38B6FF" d="M 156.847656 235.378906 C 147.519531 197.394531 93.523438 197.253906 84.15625 235.378906 L 88.15625 235.378906 C 88.15625 235.40625 88.160156 235.429688 88.164062 235.460938 L 99.367188 235.460938 C 99.367188 235.460938 99.371094 235.433594 99.378906 235.378906 Z M 156.847656 235.378906" fill-rule="evenodd"/><g clip-path="url(#c)"><path fill="#FEFEFE" d="M 136.035156 254.84375 C 139.105469 251.359375 142.304688 252.628906 145.539062 252.386719 C 149.234375 252.109375 152.96875 252.320312 156.742188 252.320312 C 154.859375 266.914062 142.898438 278.488281 127.789062 280.789062 C 112.613281 285.578125 91.460938 275.058594 85.632812 256.929688 C 85.109375 255.292969 83.71875 252.3125 87.152344 252.476562 C 92.988281 252.753906 99.019531 250.625 104.667969 253.613281 C 115.210938 266.003906 125.660156 266.644531 136.035156 254.84375 Z M 84.160156 235.378906 C 93.523438 197.253906 147.523438 197.394531 156.847656 235.378906 L 99.386719 235.378906 C 99.378906 235.429688 99.375 235.460938 99.375 235.460938 L 88.171875 235.460938 C 88.167969 235.433594 88.164062 235.40625 88.164062 235.378906 Z M 160.175781 301.421875 C 164.867188 307.496094 170.3125 312.984375 175.4375 318.722656 C 177.539062 319.820312 178.730469 321.878906 180.25 323.53125 C 182.882812 326.390625 185.070312 325.378906 187.390625 323.34375 C 193.816406 316.351562 200.523438 309.59375 206.558594 302.285156 C 210.339844 297.707031 213.652344 296.648438 219.613281 298.5625 C 248.210938 307.75 279.664062 296.355469 295.378906 271.773438 C 310.964844 247.398438 307.9375 218.390625 287.121094 195.238281 C 284.183594 191.972656 283.714844 190.507812 287.886719 187.933594 C 297.738281 181.859375 307.03125 174.925781 315.804688 167.359375 C 321.851562 162.148438 322.832031 156.691406 318.855469 152.0625 C 314.980469 147.558594 308.792969 147.472656 303 151.875 C 296.449219 156.855469 290.125 162.15625 283.347656 166.808594 C 247.851562 191.179688 209.617188 206.671875 165.472656 201.035156 C 134.023438 197.019531 106.488281 184.109375 82.984375 162.75 L 83.042969 162.816406 C 78.359375 160.402344 75.382812 156.070312 71.617188 152.628906 C 66.226562 147.703125 60.246094 147.226562 55.933594 151.472656 C 51.40625 155.933594 51.777344 161.164062 57.285156 167.011719 C 63.460938 173.566406 70.011719 179.832031 77.503906 184.78125 C 83.601562 188.808594 85.027344 191.070312 78.960938 197.289062 C 64.074219 212.546875 59.628906 231.679688 64.402344 252.179688 C 73.0625 289.351562 111.886719 310.308594 149.136719 298.320312 C 154.113281 296.71875 156.96875 297.265625 160.175781 301.417969 Z M 259.3125 254.84375 C 262.382812 251.359375 265.582031 252.628906 268.816406 252.386719 C 272.511719 252.109375 276.246094 252.320312 280.019531 252.320312 C 278.136719 266.914062 266.175781 278.488281 251.066406 280.789062 C 235.890625 285.578125 214.738281 275.058594 208.910156 256.929688 C 208.386719 255.292969 206.996094 252.3125 210.429688 252.476562 C 216.265625 252.753906 222.296875 250.625 227.949219 253.613281 C 238.488281 266.003906 248.9375 266.644531 259.3125 254.84375 Z M 173.78125 285.003906 C 176.957031 281.09375 180.351562 277.363281 184.039062 273.152344 C 187.6875 277.515625 191.097656 281.261719 194.039062 285.339844 C 194.820312 286.414062 184.589844 296.75 183.214844 296.523438 C 181.890625 296.3125 173.132812 285.796875 173.78125 285.003906 Z M 207.4375 235.378906 C 216.804688 197.253906 270.800781 197.394531 280.128906 235.378906 L 222.664062 235.378906 C 222.65625 235.429688 222.652344 235.460938 222.652344 235.460938 L 211.449219 235.460938 C 211.445312 235.433594 211.441406 235.40625 211.441406 235.378906 Z M 207.4375 235.378906" fill-rule="evenodd"/></g><g clip-path="url(#d)"><g clip-path="url(#e)"><path fill="url(#f)" d="M 184.777344 274.332031 L 184.777344 358.519531 L 367.847656 358.519531 L 367.847656 274.332031 Z M 184.777344 274.332031"/></g></g><g clip-path="url(#g)"><g clip-path="url(#h)"><path fill="url(#i)" d="M 185.75 271.546875 L 368.691406 271.546875 L 368.691406 361.304688 L 185.75 361.304688 Z M 185.75 271.546875"/></g></g><path fill="#C6C6C6" d="M 362.125 294.292969 C 363.171875 301.277344 362.203125 309.054688 362.203125 316.097656 C 362.203125 321.554688 364.066406 330.421875 360.140625 335.023438 C 353.601562 342.703125 340.992188 345.59375 331.691406 347.78125 C 313.617188 352.027344 294.84375 353.371094 276.320312 353.371094 C 258.78125 353.371094 241.070312 352.132812 223.894531 348.441406 C 213.8125 346.273438 201.054688 343.484375 193.386719 335.976562 C 188.816406 331.503906 190.433594 324.101562 190.433594 318.3125 C 190.433594 310.589844 189.296875 301.941406 190.511719 294.292969 C 185.859375 299.882812 188.5625 313.25 188.5625 319.835938 C 188.5625 325.214844 186.695312 334.078125 190.554688 338.628906 C 196.878906 346.101562 209.101562 348.960938 218.121094 351.140625 C 237.089844 355.722656 256.859375 357.109375 276.320312 357.109375 C 294.832031 357.109375 313.554688 355.8125 331.660156 351.800781 C 341.433594 349.632812 353.804688 346.871094 361.222656 339.558594 C 365.699219 335.144531 364.074219 327.734375 364.074219 322.054688 C 364.074219 315.035156 367.074219 300.234375 362.125 294.292969"/><path fill="#E5E5E5" d="M 362.203125 304.441406 C 362.203125 309.175781 347.605469 314.472656 344.589844 315.675781 C 324.539062 323.675781 302.195312 325.753906 280.804688 326.042969 C 257.453125 326.359375 233.238281 324.425781 211.128906 316.378906 C 209.929688 315.941406 188.621094 306.886719 190.464844 304.332031 C 190.867188 303.777344 208.347656 310.730469 209.53125 311.066406 C 232.570312 317.546875 257.011719 318.941406 280.828125 318.683594 C 302.113281 318.457031 323.871094 316.808594 344.394531 310.808594 C 345.679688 310.4375 362.203125 305.367188 362.203125 304.441406"/><path fill="#F4F2F2" d="M 276.320312 149.363281 C 251.335938 149.363281 223.367188 150.859375 200.140625 161.011719 C 184.433594 167.875 185.75 176.769531 185.75 191.714844 C 185.75 205.824219 183.203125 216.449219 197.789062 223.613281 C 221.132812 235.074219 250.820312 236.351562 276.320312 236.351562 C 301.304688 236.351562 329.261719 234.847656 352.492188 224.699219 C 368.199219 217.835938 366.882812 208.941406 366.882812 193.996094 C 366.882812 179.882812 369.429688 169.261719 354.84375 162.097656 C 331.5 150.636719 301.816406 149.363281 276.320312 149.363281"/><path fill="#7C7C7C" d="M 194.855469 291.667969 C 202.382812 299.175781 214.910156 301.90625 224.90625 304.023438 C 241.746094 307.597656 259.125 308.914062 276.320312 308.914062 C 292.335938 308.914062 308.46875 307.734375 324.214844 304.730469 C 335.230469 302.628906 349.484375 299.949219 357.785156 291.667969 C 350.257812 284.15625 337.726562 281.429688 327.734375 279.304688 C 310.890625 275.730469 293.515625 274.414062 276.320312 274.414062 C 260.300781 274.414062 244.167969 275.59375 228.421875 278.597656 C 217.40625 280.699219 203.15625 283.382812 194.855469 291.667969"/><g clip-path="url(#j)"><g clip-path="url(#k)"><path fill="url(#l)" d="M 184.777344 212.546875 L 184.777344 296.730469 L 367.847656 296.730469 L 367.847656 212.546875 Z M 184.777344 212.546875"/></g></g><g clip-path="url(#m)"><g clip-path="url(#n)"><path fill="url(#o)" d="M 185.75 209.757812 L 368.691406 209.757812 L 368.691406 299.515625 L 185.75 299.515625 Z M 185.75 209.757812"/></g></g><path fill="#C6C6C6" d="M 362.125 232.503906 C 363.152344 239.503906 362.203125 247.261719 362.203125 254.316406 C 362.203125 259.769531 364.066406 268.636719 360.140625 273.242188 C 353.601562 280.917969 340.988281 283.808594 331.691406 285.996094 C 313.617188 290.246094 294.84375 291.589844 276.320312 291.589844 C 258.78125 291.589844 241.070312 290.347656 223.894531 286.65625 C 213.8125 284.492188 201.058594 281.699219 193.386719 274.191406 C 188.816406 269.71875 190.433594 262.316406 190.433594 256.53125 C 190.433594 248.792969 189.320312 240.167969 190.511719 232.503906 C 185.855469 238.09375 188.5625 251.464844 188.5625 258.050781 C 188.5625 263.429688 186.695312 272.292969 190.554688 276.847656 C 196.878906 284.320312 209.101562 287.175781 218.121094 289.355469 C 237.089844 293.9375 256.859375 295.324219 276.320312 295.324219 C 294.832031 295.324219 313.554688 294.027344 331.660156 290.015625 C 341.433594 287.851562 353.804688 285.082031 361.222656 277.769531 C 365.699219 273.363281 364.074219 265.945312 364.074219 260.265625 C 364.074219 253.246094 367.074219 238.445312 362.125 232.503906"/><path fill="#E5E5E5" d="M 362.203125 242.652344 C 362.203125 247.390625 347.609375 252.683594 344.589844 253.890625 C 324.539062 261.886719 302.195312 263.964844 280.804688 264.253906 C 257.453125 264.570312 233.238281 262.640625 211.128906 254.589844 C 209.929688 254.152344 188.617188 245.09375 190.464844 242.542969 C 190.871094 241.984375 208.34375 248.941406 209.53125 249.277344 C 232.570312 255.757812 257.011719 257.148438 280.828125 256.894531 C 302.113281 256.667969 323.871094 255.019531 344.394531 249.019531 C 345.679688 248.644531 362.203125 243.582031 362.203125 242.652344"/><path fill="#7C7C7C" d="M 194.855469 229.550781 C 202.378906 237.0625 214.910156 239.792969 224.90625 241.910156 C 241.746094 245.484375 259.125 246.800781 276.320312 246.800781 C 292.335938 246.800781 308.46875 245.621094 324.214844 242.621094 C 335.230469 240.519531 349.484375 237.835938 357.785156 229.550781 C 350.261719 222.039062 337.726562 219.3125 327.734375 217.195312 C 310.890625 213.621094 293.515625 212.304688 276.320312 212.304688 C 260.300781 212.304688 244.167969 213.484375 228.421875 216.488281 C 217.40625 218.585938 203.15625 221.269531 194.855469 229.550781"/><g clip-path="url(#p)"><g clip-path="url(#q)"><path fill="url(#r)" d="M 184.777344 150.765625 L 184.777344 234.949219 L 367.847656 234.949219 L 367.847656 150.765625 Z M 184.777344 150.765625"/></g></g><g clip-path="url(#s)"><g clip-path="url(#t)"><path fill="url(#u)" d="M 185.75 147.988281 L 368.691406 147.988281 L 368.691406 237.734375 L 185.75 237.734375 Z M 185.75 147.988281"/></g></g><path fill="#C6C6C6" d="M 362.125 170.722656 C 363.179688 177.703125 362.203125 185.488281 362.203125 192.527344 C 362.203125 197.984375 364.066406 206.851562 360.140625 211.457031 C 353.601562 219.132812 340.992188 222.027344 331.691406 224.210938 C 313.617188 228.460938 294.84375 229.804688 276.320312 229.804688 C 258.78125 229.804688 241.070312 228.566406 223.894531 224.875 C 213.8125 222.707031 201.054688 219.914062 193.386719 212.410156 C 188.816406 207.933594 190.433594 200.53125 190.433594 194.746094 C 190.433594 187.027344 189.285156 178.367188 190.511719 170.726562 C 185.859375 176.316406 188.5625 189.683594 188.5625 196.269531 C 188.5625 201.648438 186.695312 210.507812 190.554688 215.066406 C 196.878906 222.535156 209.101562 225.394531 218.121094 227.570312 C 237.089844 232.15625 256.859375 233.546875 276.320312 233.546875 C 294.832031 233.546875 313.554688 232.25 331.660156 228.234375 C 341.433594 226.070312 353.804688 223.304688 361.222656 215.992188 C 365.699219 211.582031 364.074219 204.167969 364.074219 198.488281 C 364.074219 191.460938 367.074219 176.664062 362.125 170.722656"/><path fill="#E5E5E5" d="M 362.203125 180.871094 C 362.203125 185.605469 347.605469 190.902344 344.589844 192.105469 C 324.539062 200.101562 302.195312 202.183594 280.804688 202.472656 C 257.453125 202.789062 233.238281 200.859375 211.128906 192.804688 C 209.929688 192.371094 188.621094 183.316406 190.464844 180.761719 C 190.867188 180.207031 208.347656 187.160156 209.53125 187.496094 C 232.570312 193.976562 257.011719 195.367188 280.828125 195.113281 C 302.113281 194.886719 323.871094 193.238281 344.394531 187.238281 C 345.679688 186.867188 362.203125 181.796875 362.203125 180.871094"/><path fill="#EAEAEA" d="M 195.390625 171.6875 C 219.109375 184.730469 251.394531 185.078125 277.601562 184.824219 C 295.617188 184.648438 313.769531 183.601562 331.546875 180.535156 C 340.152344 179.050781 353.550781 177.578125 359.953125 170.738281 C 351.234375 163.472656 337.921875 161.089844 327.121094 159.121094 C 308.949219 155.804688 290.363281 154.800781 271.914062 154.984375 C 255.34375 155.144531 238.554688 156.039062 222.296875 159.402344 C 213.578125 161.199219 200.855469 163.734375 195.390625 171.6875"/><path fill="#F4F4F4" d="M 300.722656 161.390625 C 313.570312 161.636719 326.507812 162.839844 339.003906 165.929688 C 339.789062 166.121094 351.847656 169.207031 351.847656 169.605469 C 351.847656 167.117188 333.375 163.820312 331.691406 163.457031 C 313.417969 159.5 294.65625 157.574219 275.964844 157.375 C 258.667969 157.191406 241.191406 158.335938 224.21875 161.8125 C 222.433594 162.179688 204.660156 165.21875 204.660156 168.117188 C 204.660156 173.078125 260.386719 175.578125 264.15625 175.75 C 269.148438 175.980469 295.933594 181.230469 289.664062 171.699219 C 283.632812 162.527344 292.371094 161.230469 300.722656 161.390625"/><g clip-path="url(#v)"><path transform="matrix(1.53158 0 0 1.53037 185.58 149.214)" fill="none" d="M 1.712494 33.571037 C 47.450011 47.670993 74.839472 45.828095 118.911534 31.922129" stroke="#9A9999"/></g><g clip-path="url(#w)"><path transform="matrix(1.53158 0 0 1.53037 185.58 149.214)" fill="none" d="M 1.370731 72.802811 C 47.108248 86.902767 74.497709 85.059869 118.569772 71.153903" stroke="#9A9999"/></g><g clip-path="url(#x)"><path transform="matrix(1.53158 0 0 1.53037 185.58 149.214)" fill="none" d="M 0.916748 112.06011 C 46.654265 126.157514 74.043726 124.317168 118.115788 110.411202" stroke="#9A9999"/></g><path fill="#54BEC7" d="M 294.789062 241.253906 C 294.789062 241.878906 294.757812 242.5 294.695312 243.121094 C 294.636719 243.742188 294.542969 244.359375 294.421875 244.96875 C 294.296875 245.582031 294.144531 246.1875 293.964844 246.78125 C 293.78125 247.378906 293.570312 247.964844 293.332031 248.542969 C 293.089844 249.117188 292.824219 249.679688 292.527344 250.230469 C 292.234375 250.78125 291.910156 251.316406 291.5625 251.832031 C 291.214844 252.351562 290.839844 252.851562 290.445312 253.332031 C 290.046875 253.816406 289.625 254.277344 289.183594 254.71875 C 288.738281 255.160156 288.273438 255.578125 287.789062 255.972656 C 287.304688 256.367188 286.804688 256.738281 286.28125 257.085938 C 285.761719 257.433594 285.222656 257.753906 284.671875 258.046875 C 284.117188 258.339844 283.550781 258.605469 282.972656 258.84375 C 282.394531 259.085938 281.804688 259.292969 281.203125 259.476562 C 280.605469 259.65625 279.996094 259.808594 279.382812 259.929688 C 278.765625 260.050781 278.148438 260.140625 277.523438 260.203125 C 276.898438 260.265625 276.273438 260.292969 275.648438 260.292969 C 275.019531 260.292969 274.394531 260.265625 273.769531 260.203125 C 273.148438 260.140625 272.527344 260.050781 271.914062 259.929688 C 271.296875 259.808594 270.691406 259.65625 270.089844 259.476562 C 269.492188 259.292969 268.902344 259.085938 268.320312 258.84375 C 267.742188 258.605469 267.175781 258.339844 266.625 258.046875 C 266.070312 257.753906 265.535156 257.433594 265.011719 257.085938 C 264.492188 256.738281 263.988281 256.367188 263.503906 255.972656 C 263.019531 255.578125 262.554688 255.160156 262.113281 254.71875 C 261.667969 254.277344 261.25 253.816406 260.851562 253.332031 C 260.453125 252.851562 260.078125 252.351562 259.730469 251.832031 C 259.382812 251.316406 259.0625 250.78125 258.765625 250.230469 C 258.46875 249.679688 258.203125 249.117188 257.960938 248.542969 C 257.722656 247.964844 257.511719 247.378906 257.328125 246.78125 C 257.148438 246.1875 256.996094 245.582031 256.875 244.96875 C 256.75 244.359375 256.660156 243.742188 256.597656 243.121094 C 256.535156 242.5 256.503906 241.878906 256.503906 241.253906 C 256.503906 240.632812 256.535156 240.011719 256.597656 239.390625 C 256.660156 238.769531 256.75 238.152344 256.875 237.542969 C 256.996094 236.929688 257.148438 236.324219 257.328125 235.730469 C 257.511719 235.132812 257.722656 234.546875 257.960938 233.96875 C 258.203125 233.394531 258.46875 232.832031 258.765625 232.28125 C 259.0625 231.730469 259.382812 231.195312 259.730469 230.679688 C 260.078125 230.160156 260.453125 229.660156 260.851562 229.175781 C 261.25 228.695312 261.667969 228.234375 262.113281 227.792969 C 262.554688 227.351562 263.019531 226.933594 263.503906 226.539062 C 263.988281 226.144531 264.492188 225.773438 265.011719 225.425781 C 265.535156 225.078125 266.070312 224.757812 266.625 224.464844 C 267.175781 224.171875 267.742188 223.90625 268.320312 223.664062 C 268.902344 223.425781 269.492188 223.21875 270.089844 223.035156 C 270.691406 222.855469 271.296875 222.703125 271.914062 222.582031 C 272.527344 222.460938 273.148438 222.371094 273.769531 222.308594 C 274.394531 222.246094 275.019531 222.214844 275.648438 222.214844 C 276.273438 222.214844 276.898438 222.246094 277.523438 222.308594 C 278.148438 222.371094 278.765625 222.460938 279.382812 222.582031 C 279.996094 222.703125 280.605469 222.855469 281.203125 223.035156 C 281.804688 223.21875 282.394531 223.425781 282.972656 223.664062 C 283.550781 223.90625 284.117188 224.171875 284.671875 224.464844 C 285.222656 224.757812 285.761719 225.078125 286.28125 225.425781 C 286.804688 225.773438 287.304688 226.144531 287.789062 226.539062 C 288.273438 226.933594 288.738281 227.351562 289.183594 227.792969 C 289.625 228.234375 290.046875 228.695312 290.445312 229.175781 C 290.839844 229.660156 291.214844 230.160156 291.5625 230.679688 C 291.910156 231.195312 292.234375 231.730469 292.527344 232.28125 C 292.824219 232.832031 293.089844 233.394531 293.332031 233.96875 C 293.570312 234.546875 293.78125 235.132812 293.964844 235.730469 C 294.144531 236.324219 294.296875 236.929688 294.421875 237.542969 C 294.542969 238.152344 294.636719 238.769531 294.695312 239.390625 C 294.757812 240.011719 294.789062 240.632812 294.789062 241.253906 Z M 294.789062 241.253906"/><path fill="#002F42" d="M 275.648438 255.613281 C 267.6875 255.613281 261.210938 249.171875 261.210938 241.253906 C 261.210938 233.339844 267.6875 226.898438 275.648438 226.898438 C 283.605469 226.898438 290.082031 233.339844 290.082031 241.253906 C 290.082031 249.171875 283.605469 255.613281 275.648438 255.613281 Z M 275.648438 229.421875 C 269.085938 229.421875 263.746094 234.730469 263.746094 241.253906 C 263.746094 247.78125 269.085938 253.089844 275.648438 253.089844 C 282.207031 253.089844 287.546875 247.78125 287.546875 241.253906 C 287.546875 234.730469 282.207031 229.421875 275.648438 229.421875 Z M 275.648438 229.421875"/><g clip-path="url(#y)"><path fill="#002F42" d="M 279.925781 269.382812 C 279.648438 269.382812 279.378906 269.296875 279.160156 269.128906 L 275.648438 266.472656 L 272.136719 269.128906 C 271.859375 269.335938 271.511719 269.421875 271.167969 269.367188 C 270.828125 269.316406 270.523438 269.125 270.328125 268.84375 L 267.8125 265.238281 L 263.648438 266.683594 C 263.320312 266.796875 262.960938 266.773438 262.65625 266.617188 C 262.347656 266.460938 262.117188 266.1875 262.015625 265.855469 L 260.746094 261.65625 L 256.335938 261.75 C 255.984375 261.757812 255.65625 261.625 255.410156 261.382812 C 255.167969 261.140625 255.03125 260.808594 255.039062 260.464844 L 255.136719 256.078125 L 250.914062 254.8125 C 250.582031 254.714844 250.304688 254.484375 250.148438 254.179688 C 249.992188 253.871094 249.96875 253.515625 250.082031 253.191406 L 251.535156 249.046875 L 247.910156 246.546875 C 247.625 246.351562 247.433594 246.046875 247.382812 245.707031 C 247.328125 245.367188 247.414062 245.023438 247.625 244.75 L 250.292969 241.257812 L 247.625 237.761719 C 247.414062 237.488281 247.328125 237.140625 247.382812 236.804688 C 247.433594 236.464844 247.625 236.160156 247.910156 235.964844 L 251.535156 233.464844 L 250.082031 229.320312 C 249.96875 228.996094 249.992188 228.640625 250.148438 228.332031 C 250.304688 228.027344 250.582031 227.796875 250.914062 227.699219 L 255.136719 226.433594 L 255.039062 222.046875 C 255.03125 221.703125 255.167969 221.371094 255.410156 221.128906 C 255.65625 220.886719 255.996094 220.753906 256.335938 220.761719 L 260.746094 220.855469 L 262.015625 216.652344 C 262.117188 216.324219 262.347656 216.050781 262.65625 215.894531 C 262.960938 215.738281 263.320312 215.714844 263.648438 215.828125 L 267.8125 217.273438 L 270.328125 213.667969 C 270.523438 213.386719 270.828125 213.195312 271.167969 213.140625 C 271.511719 213.085938 271.859375 213.175781 272.136719 213.382812 L 275.648438 216.039062 L 279.160156 213.382812 C 279.433594 213.175781 279.78125 213.085938 280.125 213.140625 C 280.464844 213.195312 280.769531 213.386719 280.964844 213.667969 L 283.480469 217.273438 L 287.644531 215.828125 C 287.972656 215.714844 288.332031 215.738281 288.636719 215.894531 C 288.945312 216.050781 289.175781 216.324219 289.277344 216.652344 L 290.550781 220.855469 L 294.957031 220.761719 C 295.320312 220.753906 295.636719 220.886719 295.882812 221.128906 C 296.125 221.371094 296.261719 221.703125 296.253906 222.046875 L 296.15625 226.433594 L 300.382812 227.699219 C 300.710938 227.796875 300.988281 228.027344 301.144531 228.332031 C 301.300781 228.640625 301.324219 228.996094 301.210938 229.320312 L 299.757812 233.464844 L 303.382812 235.964844 C 303.667969 236.160156 303.859375 236.460938 303.914062 236.800781 C 303.964844 237.140625 303.878906 237.488281 303.667969 237.761719 L 301 241.253906 L 303.667969 244.75 C 303.878906 245.023438 303.964844 245.367188 303.914062 245.707031 C 303.859375 246.046875 303.667969 246.351562 303.382812 246.546875 L 299.757812 249.046875 L 301.210938 253.191406 C 301.324219 253.515625 301.300781 253.871094 301.144531 254.179688 C 300.988281 254.484375 300.710938 254.714844 300.382812 254.8125 L 296.15625 256.078125 L 296.253906 260.464844 C 296.261719 260.808594 296.125 261.140625 295.882812 261.382812 C 295.636719 261.625 295.300781 261.757812 294.957031 261.75 L 290.550781 261.65625 L 289.277344 265.855469 C 289.175781 266.1875 288.945312 266.460938 288.636719 266.617188 C 288.332031 266.773438 287.972656 266.796875 287.644531 266.683594 L 283.480469 265.238281 L 280.964844 268.84375 C 280.769531 269.125 280.464844 269.316406 280.125 269.367188 C 280.058594 269.378906 279.992188 269.382812 279.925781 269.382812 Z M 275.648438 263.628906 C 275.917969 263.628906 276.1875 263.714844 276.414062 263.886719 L 279.640625 266.324219 L 281.949219 263.011719 C 282.273438 262.546875 282.871094 262.355469 283.40625 262.542969 L 287.230469 263.871094 L 288.398438 260.011719 C 288.5625 259.46875 289.066406 259.105469 289.640625 259.113281 L 293.6875 259.203125 L 293.601562 255.175781 C 293.589844 254.609375 293.957031 254.101562 294.503906 253.941406 L 298.382812 252.777344 L 297.046875 248.972656 C 296.859375 248.441406 297.054688 247.847656 297.519531 247.523438 L 300.847656 245.226562 L 298.398438 242.019531 C 298.054688 241.566406 298.054688 240.945312 298.398438 240.492188 L 300.847656 237.285156 L 297.519531 234.988281 C 297.054688 234.664062 296.859375 234.070312 297.046875 233.535156 L 298.382812 229.734375 L 294.503906 228.570312 C 293.957031 228.410156 293.589844 227.902344 293.601562 227.335938 L 293.6875 223.308594 L 289.640625 223.394531 C 289.0625 223.402344 288.5625 223.042969 288.398438 222.5 L 287.230469 218.640625 L 283.40625 219.96875 C 282.871094 220.15625 282.273438 219.964844 281.949219 219.496094 L 279.640625 216.1875 L 276.414062 218.625 C 275.960938 218.96875 275.332031 218.96875 274.878906 218.625 L 271.65625 216.1875 L 269.34375 219.496094 C 269.019531 219.964844 268.425781 220.15625 267.886719 219.96875 L 264.0625 218.640625 L 262.894531 222.5 C 262.734375 223.03125 262.238281 223.398438 261.679688 223.398438 C 261.671875 223.398438 261.664062 223.398438 261.652344 223.394531 L 257.605469 223.308594 L 257.691406 227.335938 C 257.703125 227.902344 257.335938 228.410156 256.789062 228.570312 L 252.910156 229.734375 L 254.246094 233.539062 C 254.433594 234.070312 254.238281 234.664062 253.773438 234.988281 L 250.445312 237.285156 L 252.894531 240.492188 C 253.238281 240.945312 253.238281 241.570312 252.894531 242.019531 L 250.445312 245.226562 L 253.773438 247.523438 C 254.238281 247.847656 254.433594 248.441406 254.246094 248.976562 L 252.910156 252.777344 L 256.789062 253.941406 C 257.335938 254.101562 257.703125 254.609375 257.691406 255.175781 L 257.605469 259.203125 L 261.652344 259.113281 C 262.214844 259.105469 262.730469 259.46875 262.894531 260.011719 L 264.0625 263.871094 L 267.886719 262.542969 C 268.425781 262.355469 269.019531 262.546875 269.34375 263.015625 L 271.65625 266.324219 L 274.878906 263.886719 C 275.105469 263.714844 275.375 263.628906 275.648438 263.628906 Z M 275.648438 263.628906"/></g><g clip-path="url(#z)"><path fill="#002F42" d="M 288.8125 296.425781 C 288.773438 296.425781 288.730469 296.421875 288.691406 296.417969 C 288.1875 296.371094 287.765625 296.03125 287.609375 295.554688 L 278.71875 268.515625 C 278.503906 267.855469 278.867188 267.140625 279.53125 266.925781 C 280.195312 266.707031 280.914062 267.070312 281.128906 267.730469 L 289.117188 292.039062 L 292.550781 285.9375 C 292.84375 285.414062 293.46875 285.167969 294.039062 285.351562 L 302.085938 287.902344 L 292.410156 260.914062 C 292.175781 260.257812 292.519531 259.539062 293.179688 259.304688 C 293.839844 259.070312 294.5625 259.410156 294.796875 260.066406 L 305.332031 289.453125 C 305.492188 289.902344 305.382812 290.40625 305.050781 290.753906 C 304.714844 291.097656 304.210938 291.222656 303.753906 291.078125 L 294.257812 288.066406 L 289.917969 295.78125 C 289.695312 296.179688 289.269531 296.425781 288.8125 296.425781 Z M 288.8125 296.425781"/></g><g clip-path="url(#A)"><path fill="#002F42" d="M 263.957031 296.425781 C 263.503906 296.425781 263.078125 296.179688 262.851562 295.777344 L 258.515625 288.066406 L 249.019531 291.078125 C 248.570312 291.21875 248.078125 291.101562 247.742188 290.769531 C 247.40625 290.441406 247.285156 289.949219 247.421875 289.503906 L 256.574219 260.117188 C 256.78125 259.453125 257.492188 259.082031 258.160156 259.289062 C 258.828125 259.492188 259.203125 260.199219 258.996094 260.863281 L 250.5625 287.941406 L 258.730469 285.351562 C 259.304688 285.167969 259.929688 285.414062 260.222656 285.9375 L 263.550781 291.855469 L 270.144531 267.792969 C 270.328125 267.121094 271.023438 266.726562 271.703125 266.90625 C 272.378906 267.089844 272.777344 267.785156 272.589844 268.457031 L 265.183594 295.496094 C 265.046875 295.988281 264.625 296.351562 264.113281 296.414062 C 264.0625 296.421875 264.007812 296.425781 263.957031 296.425781 Z M 263.957031 296.425781"/></g></svg>